<svg width="93" height="76" viewBox="0 0 93 76" fill="none" xmlns="http://www.w3.org/2000/svg">
<path d="M20.2332 9.796C20.7632 7.53564 22.7794 5.9375 25.1011 5.9375H86.6918C89.9145 5.9375 92.2955 8.94143 91.5597 12.079L77.4754 72.1415C76.9454 74.4019 74.9292 76 72.6075 76H11.0168C7.79416 76 5.41314 72.9961 6.14889 69.8585L20.2332 9.796Z" fill="#FFEF3B"/>
<path d="M15.5244 3.8585C16.0545 1.59814 18.0707 0 20.3924 0H81.983C85.2057 0 87.5867 3.00393 86.851 6.14151L72.7667 66.204C72.2367 68.4644 70.2204 70.0625 67.8988 70.0625H6.30811C3.08542 70.0625 0.704402 67.0586 1.44014 63.921L15.5244 3.8585Z" fill="#FFFBE5"/>
<g clip-path="url(#clip0_22_754)">
<path d="M24.9011 46.7276H27.3061C27.91 44.3713 30.0361 42.6255 32.5584 42.6255C35.08 42.6255 37.2055 44.3713 37.8093 46.7276H47.7141C48.3179 44.3713 50.4434 42.6255 52.9658 42.6255C55.9562 42.6255 58.3892 45.0796 58.3892 48.0955C58.3892 51.1121 55.9562 53.5663 52.9658 53.5663C50.4434 53.5663 48.3177 51.8202 47.714 49.4634H37.8094C37.2058 51.8202 35.0802 53.5663 32.5585 53.5663C30.0361 53.5663 27.9099 51.8202 27.3061 49.4634H24.9012C24.1527 49.4634 23.5444 48.8513 23.5444 48.0955C23.5444 47.3397 24.1519 46.7276 24.9011 46.7276ZM52.9658 50.8305C54.4606 50.8305 55.6771 49.6034 55.6771 48.0955C55.6771 46.5876 54.4606 45.3612 52.9658 45.3612C51.4709 45.3612 50.2545 46.5875 50.2544 48.0954V48.0956C50.2545 49.6035 51.4709 50.8305 52.9658 50.8305ZM32.5584 50.8305C34.0525 50.8305 35.2683 49.6034 35.2683 48.0955C35.2683 46.5876 34.0525 45.3612 32.5584 45.3612C31.0635 45.3612 29.847 46.5876 29.847 48.0955C29.8471 49.6034 31.0635 50.8305 32.5584 50.8305Z" fill="#FFEF3B"/>
<path d="M38.3497 37.5637C38.3497 38.3195 37.7429 38.9316 36.9937 38.9316H28.8215C28.0722 38.9316 27.4647 38.3195 27.4647 37.5637C27.4647 36.8079 28.0722 36.1958 28.8215 36.1958H35.6376V28.3368H30.2935C29.2394 30.3501 26.257 37.2688 26.257 39.6415V44.3409C26.257 45.0967 25.6502 45.7088 24.9009 45.7088C24.1524 45.7088 23.5448 45.0967 23.5448 44.3409V39.6415C23.5448 36.2426 27.6637 26.9289 28.5811 26.0027C28.7071 25.8756 28.8567 25.7748 29.0213 25.706C29.1859 25.6372 29.3623 25.6018 29.5405 25.6018H36.9935C37.7428 25.6018 38.3496 26.214 38.3496 26.9698V37.5637H38.3497ZM44.0507 40.5329L38.1712 23.3522C37.9266 22.6379 38.3027 21.859 39.0108 21.6123C39.7197 21.3677 40.4903 21.7456 40.7356 22.4593L46.3001 38.7182H60.661C61.4095 38.7182 62.0171 39.3303 62.0171 40.0861V45.8726C62.0171 46.6284 61.4103 47.2405 60.661 47.2405C59.9118 47.2405 59.305 46.6284 59.305 45.8726V41.454H45.3325C45.0505 41.454 44.7754 41.3652 44.5457 41.2001C44.3159 41.035 44.1429 40.8018 44.0507 40.5329ZM39.7366 39.7852C40.4858 39.7852 41.0934 40.3973 41.0934 41.1531C41.0934 41.9089 40.4859 42.521 39.7366 42.521H37.7084C36.9592 42.521 36.3516 41.9089 36.3516 41.1531C36.3516 40.3973 36.9591 39.7852 37.7084 39.7852H39.7366Z" fill="#FFEF3B"/>
<path d="M53.51 36.3425C53.51 35.5867 54.1168 34.9746 54.866 34.9746C60.036 34.9746 62.455 30.9236 63.1154 29.5802L60.2813 20.8905C50.9177 18.7728 45.124 24.517 44.8582 24.7867C44.3351 25.3246 43.4778 25.3335 42.9424 24.806C42.4076 24.2776 42.3981 23.4122 42.9219 22.872C43.2186 22.566 50.3139 15.4183 61.6779 18.4171C61.8971 18.4749 62.0984 18.5872 62.2636 18.7437C62.4287 18.9001 62.5524 19.0958 62.6233 19.3129L65.8568 29.2305C65.9546 29.5327 65.9455 29.8598 65.831 30.156C65.712 30.4643 62.8127 37.7098 54.866 37.7098C54.1167 37.7097 53.51 37.0983 53.51 36.3425Z" fill="#FFEF3B"/>
</g>
<defs>
<clipPath id="clip0_22_754">
<rect width="42.3797" height="42.75" fill="white" transform="matrix(-1 0 0 1 65.9241 14.25)"/>
</clipPath>
</defs>
</svg>
