<svg width="93" height="76" viewBox="0 0 93 76" fill="none" xmlns="http://www.w3.org/2000/svg">
<path d="M20.2332 9.796C20.7632 7.53564 22.7794 5.9375 25.1011 5.9375H86.6918C89.9145 5.9375 92.2955 8.94143 91.5597 12.079L77.4754 72.1415C76.9454 74.4019 74.9292 76 72.6075 76H11.0168C7.79416 76 5.41314 72.9961 6.14889 69.8585L20.2332 9.796Z" fill="#FFEF3B"/>
<path d="M15.5244 3.8585C16.0545 1.59814 18.0707 0 20.3924 0H81.983C85.2057 0 87.5867 3.00393 86.851 6.14151L72.7667 66.204C72.2367 68.4644 70.2204 70.0625 67.8988 70.0625H6.30811C3.08542 70.0625 0.704402 67.0586 1.44014 63.921L15.5244 3.8585Z" fill="#FFFBE5"/>
<path d="M43.5571 38.5937C42.1019 38.5937 40.6794 38.1585 39.4694 37.3429C38.2595 36.5274 37.3164 35.3683 36.7595 34.0121C36.2027 32.6559 36.0569 31.1636 36.3408 29.7239C36.6247 28.2842 37.3255 26.9618 38.3545 25.9238C39.3834 24.8858 40.6944 24.179 42.1217 23.8926C43.5489 23.6062 45.0283 23.7532 46.3727 24.315C47.7171 24.8767 48.8662 25.828 49.6747 27.0485C50.4831 28.269 50.9147 29.704 50.9147 31.1719C50.9123 33.1396 50.1364 35.026 48.7571 36.4173C47.3778 37.8087 45.5077 38.5914 43.5571 38.5937ZM43.5571 26.7187C42.6839 26.7187 41.8304 26.9799 41.1045 27.4692C40.3785 27.9585 39.8127 28.654 39.4785 29.4677C39.1444 30.2814 39.057 31.1768 39.2273 32.0406C39.3977 32.9045 39.8181 33.6979 40.4355 34.3207C41.0529 34.9435 41.8395 35.3676 42.6958 35.5394C43.5522 35.7113 44.4398 35.6231 45.2464 35.286C46.0531 34.949 46.7426 34.3782 47.2276 33.6459C47.7127 32.9136 47.9716 32.0526 47.9716 31.1719C47.9705 29.9912 47.505 28.8592 46.6773 28.0243C45.8497 27.1895 44.7275 26.7199 43.5571 26.7187Z" fill="#FFEF3B"/>
<path d="M43.5571 56.4062L31.1434 41.6382C30.9709 41.4165 30.8002 41.1933 30.6313 40.9688C28.5108 38.1511 27.3652 34.7095 27.3704 31.1719C27.3704 26.8414 29.0758 22.6883 32.1114 19.6261C35.147 16.564 39.2641 14.8438 43.5571 14.8438C47.8501 14.8438 51.9672 16.564 55.0028 19.6261C58.0384 22.6883 59.7438 26.8414 59.7438 31.1719C59.7489 34.7079 58.6039 38.1479 56.4844 40.9643L56.4829 40.9688C56.4829 40.9688 56.0415 41.5536 55.9752 41.6323L43.5571 56.4062ZM32.9798 39.1801C32.9828 39.1801 33.3241 39.6373 33.4021 39.7352L43.5571 51.8166L53.7253 39.7189C53.79 39.6373 54.1344 39.1771 54.1358 39.1756C55.868 36.8735 56.8042 34.062 56.8008 31.1719C56.8008 27.6287 55.4054 24.2307 52.9218 21.7254C50.4381 19.22 47.0695 17.8125 43.5571 17.8125C40.0446 17.8125 36.6761 19.22 34.1924 21.7254C31.7087 24.2307 30.3134 27.6287 30.3134 31.1719C30.3103 34.0638 31.246 36.8769 32.9798 39.1801Z" fill="#FFEF3B"/>
</svg>
