<svg width="93" height="76" viewBox="0 0 93 76" fill="none" xmlns="http://www.w3.org/2000/svg">
<path d="M20.2332 9.796C20.7632 7.53564 22.7794 5.9375 25.1011 5.9375H86.6918C89.9145 5.9375 92.2955 8.94143 91.5597 12.079L77.4754 72.1415C76.9454 74.4019 74.9292 76 72.6075 76H11.0168C7.79416 76 5.41314 72.9961 6.14889 69.8585L20.2332 9.796Z" fill="#FFEF3B"/>
<path d="M15.5244 3.8585C16.0545 1.59814 18.0707 0 20.3924 0H81.983C85.2057 0 87.5867 3.00393 86.851 6.14151L72.7667 66.204C72.2367 68.4644 70.2204 70.0625 67.8988 70.0625H6.30811C3.08542 70.0625 0.704402 67.0586 1.44014 63.921L15.5244 3.8585Z" fill="#FFFBE5"/>
<g clip-path="url(#clip0_22_768)">
<path d="M58.1524 19.729H28.9617C25.3849 19.729 22.4749 22.6645 22.4749 26.2725V42.6025C22.4749 46.2105 25.3849 49.146 28.9617 49.146H58.1524C61.7292 49.146 64.6392 46.2105 64.6392 42.6025V26.2725C64.6392 22.6645 61.7292 19.729 58.1524 19.729ZM28.9617 23.0008H58.1524C59.9408 23.0008 61.3958 24.4685 61.3958 26.2725V29.178H25.7183V26.2725C25.7183 24.4685 27.1733 23.0008 28.9617 23.0008ZM58.1524 45.8742H28.9617C27.1733 45.8742 25.7183 44.4065 25.7183 42.6025V32.4498H61.3958V42.6025C61.3958 44.4065 59.9408 45.8742 58.1524 45.8742Z" fill="#FFEF3B"/>
<path d="M44.6905 37.8259H43.0118C42.1162 37.8259 41.3901 38.5583 41.3901 39.4617C41.3901 40.3651 42.1162 41.0976 43.0118 41.0976H44.6905C45.5861 41.0976 46.3122 40.3651 46.3122 39.4617C46.3123 38.5584 45.5861 37.8259 44.6905 37.8259ZM57.2046 37.8259H51.0238C50.1282 37.8259 49.4021 38.5583 49.4021 39.4617C49.4021 40.3651 50.1282 41.0976 51.0238 41.0976H57.2046C58.1002 41.0976 58.8263 40.3651 58.8263 39.4617C58.8263 38.5584 58.1001 37.8259 57.2046 37.8259Z" fill="#FFEF3B"/>
</g>
<defs>
<clipPath id="clip0_22_768">
<rect width="42.3797" height="42.75" fill="white" transform="translate(22.3672 13.0625)"/>
</clipPath>
</defs>
</svg>
