<svg width="93" height="76" viewBox="0 0 93 76" fill="none" xmlns="http://www.w3.org/2000/svg">
<path d="M20.2332 9.796C20.7632 7.53564 22.7794 5.9375 25.1011 5.9375H86.6918C89.9145 5.9375 92.2955 8.94143 91.5597 12.079L77.4754 72.1415C76.9454 74.4019 74.9292 76 72.6075 76H11.0168C7.79416 76 5.41314 72.9961 6.14889 69.8585L20.2332 9.796Z" fill="#FFEF3B"/>
<path d="M15.5244 3.8585C16.0545 1.59814 18.0707 0 20.3924 0H81.983C85.2057 0 87.5867 3.00393 86.851 6.14151L72.7667 66.204C72.2367 68.4644 70.2204 70.0625 67.8988 70.0625H6.30811C3.08542 70.0625 0.704402 67.0586 1.44014 63.921L15.5244 3.8585Z" fill="#FFFBE5"/>
<g clip-path="url(#clip0_22_775)">
<path d="M60.036 47.5367L50.585 28.9119V14.519H51.8699C52.5937 14.519 53.1805 13.9271 53.1805 13.197C53.1805 12.4669 52.5937 11.875 51.8699 11.875H35.244C34.5202 11.875 33.9334 12.4669 33.9334 13.197C33.9334 13.9271 34.5202 14.519 35.244 14.519H36.529V28.9119L27.0779 47.5368C26.047 49.5683 26.1363 51.9435 27.3166 53.8906C28.4969 55.8376 30.5523 57 32.8147 57H54.2992C56.5617 57 58.617 55.8376 59.7973 53.8906C60.9777 51.9435 61.0669 49.5683 60.036 47.5367ZM39.0062 29.833C39.1008 29.6465 39.1502 29.4401 39.1501 29.2306V14.519H47.9637V29.2306C47.9637 29.44 48.013 29.6465 48.1076 29.833L51.7543 37.0194H35.3595L39.0062 29.833ZM54.2992 54.356H32.8147C31.4725 54.356 30.2531 53.6663 29.5528 52.5112C29.1589 51.8614 28.9698 51.1313 28.9886 50.4022C28.9994 49.9927 29.0751 49.5876 29.2129 49.2022C29.2687 49.046 34.0178 39.6635 34.0178 39.6635H53.0962C53.0962 39.6635 57.7767 48.8929 57.8097 48.9698C58.0051 49.4224 58.1123 49.9087 58.1254 50.4022C58.1442 51.1313 57.9551 51.8614 57.5611 52.5112C56.8609 53.6663 55.6415 54.356 54.2992 54.356Z" fill="#FFEF3B"/>
</g>
<defs>
<clipPath id="clip0_22_775">
<rect width="44.7342" height="45.125" fill="white" transform="translate(21.1899 11.875)"/>
</clipPath>
</defs>
</svg>
