<svg width="93" height="76" viewBox="0 0 93 76" fill="none" xmlns="http://www.w3.org/2000/svg">
<path d="M20.2332 9.796C20.7632 7.53564 22.7794 5.9375 25.1011 5.9375H86.6918C89.9145 5.9375 92.2955 8.94143 91.5597 12.079L77.4754 72.1415C76.9454 74.4019 74.9292 76 72.6075 76H11.0168C7.79416 76 5.41314 72.9961 6.14889 69.8585L20.2332 9.796Z" fill="#FFEF3B"/>
<path d="M15.5244 3.8585C16.0545 1.59814 18.0707 0 20.3924 0H81.983C85.2057 0 87.5867 3.00393 86.851 6.14151L72.7667 66.204C72.2367 68.4644 70.2204 70.0625 67.8988 70.0625H6.30811C3.08542 70.0625 0.704402 67.0586 1.44014 63.921L15.5244 3.8585Z" fill="#FFFBE5"/>
<path fill-rule="evenodd" clip-rule="evenodd" d="M35.9051 46.0156C35.9051 45.6219 36.0602 45.2444 36.3361 44.966C36.6121 44.6876 36.9864 44.5312 37.3766 44.5312H63.864C64.2542 44.5312 64.6285 44.6876 64.9045 44.966C65.1805 45.2444 65.3355 45.6219 65.3355 46.0156C65.3355 46.4093 65.1805 46.7869 64.9045 47.0652C64.6285 47.3436 64.2542 47.5 63.864 47.5H37.3766C36.9864 47.5 36.6121 47.3436 36.3361 47.0652C36.0602 46.7869 35.9051 46.4093 35.9051 46.0156ZM35.9051 34.1406C35.9051 33.7469 36.0602 33.3694 36.3361 33.091C36.6121 32.8126 36.9864 32.6562 37.3766 32.6562H63.864C64.2542 32.6562 64.6285 32.8126 64.9045 33.091C65.1805 33.3694 65.3355 33.7469 65.3355 34.1406C65.3355 34.5343 65.1805 34.9119 64.9045 35.1902C64.6285 35.4686 64.2542 35.625 63.864 35.625H37.3766C36.9864 35.625 36.6121 35.4686 36.3361 35.1902C36.0602 34.9119 35.9051 34.5343 35.9051 34.1406ZM35.9051 22.2656C35.9051 21.8719 36.0602 21.4944 36.3361 21.216C36.6121 20.9376 36.9864 20.7812 37.3766 20.7812H63.864C64.2542 20.7812 64.6285 20.9376 64.9045 21.216C65.1805 21.4944 65.3355 21.8719 65.3355 22.2656C65.3355 22.6593 65.1805 23.0369 64.9045 23.3152C64.6285 23.5936 64.2542 23.75 63.864 23.75H37.3766C36.9864 23.75 36.6121 23.5936 36.3361 23.3152C36.0602 23.0369 35.9051 22.6593 35.9051 22.2656ZM32.5324 18.2459C32.6694 18.3838 32.7782 18.5476 32.8523 18.728C32.9265 18.9083 32.9647 19.1016 32.9647 19.2969C32.9647 19.4921 32.9265 19.6854 32.8523 19.8658C32.7782 20.0461 32.6694 20.2099 32.5324 20.3478L28.1178 24.8009C27.9811 24.9392 27.8188 25.0488 27.64 25.1237C27.4612 25.1985 27.2696 25.237 27.076 25.237C26.8824 25.237 26.6908 25.1985 26.512 25.1237C26.3332 25.0488 26.1709 24.9392 26.0342 24.8009L24.5626 23.3166C24.4258 23.1785 24.3173 23.0147 24.2433 22.8344C24.1692 22.6541 24.1311 22.4608 24.1311 22.2656C24.1311 22.0704 24.1692 21.8772 24.2433 21.6969C24.3173 21.5165 24.4258 21.3527 24.5626 21.2147C24.6995 21.0767 24.8619 20.9672 25.0406 20.8925C25.2194 20.8178 25.411 20.7794 25.6045 20.7794C25.798 20.7794 25.9896 20.8178 26.1683 20.8925C26.3471 20.9672 26.5095 21.0767 26.6463 21.2147L27.076 21.6511L30.4487 18.2459C30.5854 18.1077 30.7478 17.998 30.9266 17.9232C31.1053 17.8484 31.297 17.8098 31.4906 17.8098C31.6841 17.8098 31.8758 17.8484 32.0545 17.9232C32.2333 17.998 32.3957 18.1077 32.5324 18.2459ZM32.5324 30.1209C32.6694 30.2588 32.7782 30.4226 32.8523 30.603C32.9265 30.7833 32.9647 30.9766 32.9647 31.1719C32.9647 31.3671 32.9265 31.5604 32.8523 31.7408C32.7782 31.9211 32.6694 32.0849 32.5324 32.2228L28.1178 36.6759C27.9811 36.8142 27.8188 36.9238 27.64 36.9987C27.4612 37.0735 27.2696 37.112 27.076 37.112C26.8824 37.112 26.6908 37.0735 26.512 36.9987C26.3332 36.9238 26.1709 36.8142 26.0342 36.6759L24.5626 35.1916C24.2863 34.9128 24.1311 34.5348 24.1311 34.1406C24.1311 33.7464 24.2863 33.3684 24.5626 33.0897C24.839 32.811 25.2137 32.6544 25.6045 32.6544C25.9952 32.6544 26.37 32.811 26.6463 33.0897L27.076 33.5261L30.4487 30.1209C30.5854 29.9827 30.7478 29.873 30.9266 29.7982C31.1053 29.7234 31.297 29.6848 31.4906 29.6848C31.6841 29.6848 31.8758 29.7234 32.0545 29.7982C32.2333 29.873 32.3957 29.9827 32.5324 30.1209ZM32.5324 41.9959C32.6694 42.1338 32.7782 42.2976 32.8523 42.478C32.9265 42.6583 32.9647 42.8516 32.9647 43.0469C32.9647 43.2421 32.9265 43.4354 32.8523 43.6158C32.7782 43.7961 32.6694 43.9599 32.5324 44.0978L28.1178 48.5509C27.9811 48.6892 27.8188 48.7988 27.64 48.8737C27.4612 48.9485 27.2696 48.987 27.076 48.987C26.8824 48.987 26.6908 48.9485 26.512 48.8737C26.3332 48.7988 26.1709 48.6892 26.0342 48.5509L24.5626 47.0666C24.2863 46.7878 24.1311 46.4098 24.1311 46.0156C24.1311 45.6214 24.2863 45.2434 24.5626 44.9647C24.839 44.686 25.2137 44.5294 25.6045 44.5294C25.9952 44.5294 26.37 44.686 26.6463 44.9647L27.076 45.4011L30.4487 41.9959C30.5854 41.8577 30.7478 41.748 30.9266 41.6732C31.1053 41.5984 31.297 41.5598 31.4906 41.5598C31.6841 41.5598 31.8758 41.5984 32.0545 41.6732C32.2333 41.748 32.3957 41.8577 32.5324 41.9959Z" fill="#FFEF3B"/>
</svg>
