<svg width="48" height="48" viewBox="0 0 48 48" fill="none" xmlns="http://www.w3.org/2000/svg">
<path d="M24 24C25.1 24 26.042 23.608 26.826 22.824C27.61 22.04 28.0013 21.0987 28 20C28 18.9 27.608 17.958 26.824 17.174C26.04 16.39 25.0987 15.9987 24 16C22.9 16 21.958 16.392 21.174 17.176C20.39 17.96 19.9987 18.9013 20 20C20 21.1 20.392 22.042 21.176 22.826C21.96 23.61 22.9013 24.0013 24 24ZM24 43.25C23.7333 43.25 23.4667 43.2 23.2 43.1C22.9333 43 22.7 42.8667 22.5 42.7C17.6333 38.4 14 34.408 11.6 30.724C9.2 27.04 8 23.5987 8 20.4C8 15.4 9.60867 11.4167 12.826 8.45C16.0433 5.48333 19.768 4 24 4C28.2333 4 31.9587 5.48333 35.176 8.45C38.3933 11.4167 40.0013 15.4 40 20.4C40 23.6 38.8 27.042 36.4 30.726C34 34.41 30.3667 38.4013 25.5 42.7C25.3 42.8667 25.0667 43 24.8 43.1C24.5333 43.2 24.2667 43.25 24 43.25Z" fill="#121212"/>
</svg>
