<svg width="71" height="71" viewBox="0 0 71 71" fill="none" xmlns="http://www.w3.org/2000/svg">
<path d="M26.646 51.4372L51.4377 35.4997L26.646 19.5622V51.4372ZM35.5002 70.9164C30.6009 70.9164 25.9967 69.9861 21.6877 68.1255C17.3786 66.265 13.6304 63.7421 10.4429 60.557C7.25537 57.3695 4.73252 53.6212 2.87433 49.3122C1.01614 45.0032 0.0858572 40.399 0.0834961 35.4997C0.0834961 30.6004 1.01377 25.9962 2.87433 21.6872C4.73489 17.3781 7.25773 13.6299 10.4429 10.4424C13.6304 7.25488 17.3786 4.73204 21.6877 2.87384C25.9967 1.01565 30.6009 0.0853689 35.5002 0.0830078C40.3995 0.0830078 45.0036 1.01329 49.3127 2.87384C53.6217 4.7344 57.37 7.25725 60.5575 10.4424C63.745 13.6299 66.269 17.3781 68.1295 21.6872C69.9901 25.9962 70.9192 30.6004 70.9168 35.4997C70.9168 40.399 69.9866 45.0032 68.126 49.3122C66.2654 53.6212 63.7426 57.3695 60.5575 60.557C57.37 63.7445 53.6217 66.2685 49.3127 68.1291C45.0036 69.9896 40.3995 70.9187 35.5002 70.9164Z" fill="#FFEF3B"/>
</svg>
