<svg width="40" height="40" viewBox="0 0 40 40" fill="none" xmlns="http://www.w3.org/2000/svg">
<path d="M28.3335 21.6663H21.6668V28.333H18.3335V21.6663H11.6668V18.333H18.3335V11.6663H21.6668V18.333H28.3335M20.0002 3.33301C17.8115 3.33301 15.6442 3.7641 13.6221 4.60168C11.6 5.43926 9.76269 6.66692 8.21505 8.21456C5.08944 11.3402 3.3335 15.5794 3.3335 19.9997C3.3335 24.42 5.08944 28.6592 8.21505 31.7848C9.76269 33.3324 11.6 34.5601 13.6221 35.3977C15.6442 36.2352 17.8115 36.6663 20.0002 36.6663C24.4204 36.6663 28.6597 34.9104 31.7853 31.7848C34.9109 28.6592 36.6668 24.42 36.6668 19.9997C36.6668 17.811 36.2357 15.6437 35.3982 13.6216C34.5606 11.5995 33.3329 9.7622 31.7853 8.21456C30.2376 6.66692 28.4003 5.43926 26.3782 4.60168C24.3561 3.7641 22.1889 3.33301 20.0002 3.33301Z" fill="#121212"/>
</svg>
