<svg width="25" height="25" viewBox="0 0 25 25" fill="none" xmlns="http://www.w3.org/2000/svg">
<path fill-rule="evenodd" clip-rule="evenodd" d="M12.5 25C19.4036 25 25 19.4036 25 12.5C25 5.59644 19.4036 0 12.5 0C5.59644 0 0 5.59644 0 12.5C0 19.4036 5.59644 25 12.5 25ZM10.2083 18.2292C10.5123 18.2292 10.6513 18.0939 10.8192 17.9304L10.8333 17.9167L12.3347 16.4567L15.4583 18.7645C16.0332 19.0817 16.4481 18.9174 16.5912 18.2308L18.6418 8.56797C18.8517 7.72628 18.3209 7.34453 17.771 7.5942L5.73038 12.237C4.90849 12.5667 4.91328 13.0252 5.58056 13.2295L8.67046 14.1939L15.8239 9.6809C16.1616 9.47611 16.4715 9.58621 16.2171 9.81198L10.4211 15.0424L10.421 15.0424L10.421 15.0425L10.4208 15.0427L10.421 15.0428L10.2083 18.2292Z" fill="#121212"/>
</svg>
