<svg width="28" height="29" viewBox="0 0 28 29" fill="none" xmlns="http://www.w3.org/2000/svg">
<path fill-rule="evenodd" clip-rule="evenodd" d="M13.7914 27.7962H13.7858C11.4968 27.7954 9.24773 27.2211 7.25013 26.1315L0 28.0333L1.94026 20.9463C0.743411 18.8722 0.113638 16.5194 0.114664 14.109C0.117665 6.56829 6.25295 0.433334 13.7913 0.433334C17.4499 0.434913 20.8838 1.85921 23.4659 4.44435C26.0481 7.02937 27.4693 10.4655 27.4679 14.1198C27.4649 21.6588 21.332 27.7931 13.7914 27.7962ZM7.58604 23.6556L8.00113 23.9019C9.74643 24.9376 11.7471 25.4856 13.7868 25.4864H13.7914C20.0568 25.4864 25.1562 20.3869 25.1587 14.119C25.1599 11.0816 23.9786 8.22562 21.8324 6.07695C19.6863 3.92827 16.8321 2.74439 13.7959 2.74333C7.52572 2.74333 2.42628 7.84231 2.4238 14.1098C2.42291 16.2577 3.0239 18.3495 4.16179 20.1593L4.43207 20.5894L3.28371 24.7842L7.58604 23.6556ZM20.6816 17.372C20.5962 17.2295 20.3684 17.1439 20.0267 16.9728C19.6849 16.8018 18.0048 15.9752 17.6915 15.861C17.3784 15.747 17.1505 15.6901 16.9227 16.0321C16.6949 16.3741 16.04 17.1439 15.8406 17.372C15.6413 17.6 15.4419 17.6286 15.1003 17.4575C14.7586 17.2865 13.6575 16.9257 12.3522 15.7614C11.3363 14.8552 10.6505 13.7362 10.4511 13.3941C10.2518 13.052 10.4299 12.8671 10.6009 12.6967C10.7547 12.5435 10.9427 12.2974 11.1136 12.0979C11.2844 11.8985 11.3414 11.7558 11.4553 11.5279C11.5692 11.2997 11.5122 11.1003 11.4268 10.9292C11.3414 10.7581 10.6579 9.07607 10.3732 8.39182C10.0958 7.72546 9.81405 7.81573 9.6043 7.8052C9.4052 7.7952 9.17713 7.7931 8.94934 7.7931C8.72154 7.7931 8.35129 7.87863 8.03806 8.22075C7.72484 8.56288 6.84204 9.38964 6.84204 11.0716C6.84204 12.7536 8.06653 14.3786 8.23741 14.6066C8.40826 14.8348 10.6471 18.2864 14.0751 19.7666C14.8905 20.1187 15.5269 20.329 16.0233 20.4865C16.8419 20.7466 17.5869 20.7099 18.1756 20.6219C18.8323 20.5238 20.1975 19.7953 20.4824 18.9971C20.767 18.1987 20.767 17.5145 20.6816 17.372Z" fill="#FDFDFD"/>
</svg>
