<svg width="25" height="25" viewBox="0 0 25 25" fill="none" xmlns="http://www.w3.org/2000/svg">
<path fill-rule="evenodd" clip-rule="evenodd" d="M12.5 25C19.4036 25 25 19.4036 25 12.5C25 5.59644 19.4036 0 12.5 0C5.59644 0 0 5.59644 0 12.5C0 19.4036 5.59644 25 12.5 25Z" fill="#121212"/>
<path fill-rule="evenodd" clip-rule="evenodd" d="M12.912 19.4544H12.9089C11.6649 19.454 10.4426 19.1419 9.35691 18.5497L5.41663 19.5833L6.47111 15.7317C5.82065 14.6044 5.47839 13.3258 5.47894 12.0158C5.48057 7.91756 8.81497 4.58334 12.9119 4.58334C14.9003 4.5842 16.7665 5.35827 18.1699 6.76325C19.5732 8.16815 20.3456 10.0356 20.3448 12.0216C20.3432 16.1189 17.0101 19.4528 12.912 19.4544ZM9.53947 17.2041L9.76507 17.338C10.7136 17.9009 11.8009 18.1987 12.9095 18.1991H12.912C16.3171 18.1991 19.0885 15.4277 19.0898 12.0212C19.0905 10.3704 18.4485 8.81828 17.2821 7.65052C16.1157 6.48277 14.5645 5.83935 12.9144 5.83878C9.50669 5.83878 6.73526 8.60996 6.73391 12.0162C6.73343 13.1835 7.06005 14.3204 7.67847 15.304L7.82536 15.5377L7.20125 17.8175L9.53947 17.2041ZM16.6566 13.7891C16.6102 13.7117 16.4864 13.6652 16.3007 13.5722C16.115 13.4792 15.2019 13.03 15.0316 12.968C14.8614 12.906 14.7375 12.875 14.6137 13.0609C14.4899 13.2468 14.134 13.6652 14.0257 13.7891C13.9173 13.9131 13.809 13.9286 13.6233 13.8356C13.4376 13.7427 12.8392 13.5466 12.1298 12.9138C11.5777 12.4213 11.2049 11.8132 11.0966 11.6272C10.9882 11.4413 11.085 11.3408 11.178 11.2482C11.2616 11.165 11.3637 11.0312 11.4566 10.9228C11.5495 10.8144 11.5804 10.7369 11.6423 10.613C11.7042 10.489 11.6733 10.3806 11.6268 10.2876C11.5804 10.1946 11.209 9.28048 11.0542 8.9086C10.9035 8.54646 10.7503 8.59551 10.6364 8.58979C10.5281 8.58436 10.4042 8.58321 10.2804 8.58321C10.1566 8.58321 9.95537 8.6297 9.78514 8.81564C9.61491 9.00157 9.13512 9.4509 9.13512 10.365C9.13512 11.2792 9.80061 12.1623 9.89348 12.2862C9.98633 12.4102 11.2031 14.2861 13.0662 15.0906C13.5093 15.2819 13.8552 15.3962 14.1249 15.4818C14.5698 15.6232 14.9747 15.6032 15.2947 15.5554C15.6516 15.5021 16.3935 15.1061 16.5483 14.6723C16.703 14.2384 16.703 13.8666 16.6566 13.7891Z" fill="#FDFDFD"/>
</svg>
