<svg width="25" height="25" viewBox="0 0 25 25" fill="none" xmlns="http://www.w3.org/2000/svg">
<path fill-rule="evenodd" clip-rule="evenodd" d="M12.5 25C19.4036 25 25 19.4036 25 12.5C25 5.59644 19.4036 0 12.5 0C5.59644 0 0 5.59644 0 12.5C0 19.4036 5.59644 25 12.5 25Z" fill="#25D366"/>
<path fill-rule="evenodd" clip-rule="evenodd" d="M12.912 19.4544H12.909C11.665 19.454 10.4426 19.1419 9.35697 18.5497L5.41669 19.5833L6.47117 15.7317C5.82071 14.6044 5.47845 13.3258 5.479 12.0157C5.48064 7.91753 8.81503 4.58331 12.912 4.58331C14.9004 4.58417 16.7666 5.35824 18.1699 6.76321C19.5732 8.16811 20.3457 10.0356 20.3449 12.0216C20.3432 16.1189 17.0102 19.4527 12.912 19.4544ZM9.53953 17.2041L9.76513 17.338C10.7137 17.9009 11.801 18.1987 12.9095 18.1991H12.912C16.3171 18.1991 19.0885 15.4277 19.0899 12.0212C19.0905 10.3704 18.4485 8.81825 17.2821 7.65049C16.1157 6.48274 14.5646 5.83932 12.9145 5.83875C9.50675 5.83875 6.73532 8.60993 6.73397 12.0162C6.73349 13.1835 7.06011 14.3204 7.67853 15.304L7.82542 15.5377L7.20131 17.8175L9.53953 17.2041ZM16.6567 13.7891C16.6103 13.7116 16.4865 13.6652 16.3007 13.5722C16.115 13.4792 15.2019 13.03 15.0317 12.9679C14.8614 12.906 14.7376 12.875 14.6138 13.0609C14.49 13.2468 14.1341 13.6652 14.0257 13.7891C13.9174 13.913 13.809 13.9286 13.6234 13.8356C13.4377 13.7426 12.8392 13.5465 12.1298 12.9138C11.5777 12.4213 11.205 11.8131 11.0966 11.6272C10.9883 11.4413 11.0851 11.3408 11.1781 11.2482C11.2616 11.1649 11.3638 11.0312 11.4567 10.9228C11.5495 10.8144 11.5805 10.7368 11.6424 10.613C11.7043 10.489 11.6733 10.3806 11.6269 10.2876C11.5805 10.1946 11.209 9.28045 11.0543 8.90857C10.9035 8.54643 10.7504 8.59548 10.6364 8.58976C10.5282 8.58433 10.4043 8.58318 10.2805 8.58318C10.1567 8.58318 9.95543 8.62967 9.7852 8.81561C9.61497 9.00154 9.13518 9.45087 9.13518 10.365C9.13518 11.2791 9.80067 12.1623 9.89354 12.2862C9.98639 12.4102 11.2031 14.2861 13.0662 15.0905C13.5093 15.2819 13.8552 15.3962 14.125 15.4818C14.5699 15.6232 14.9748 15.6032 15.2948 15.5554C15.6516 15.5021 16.3936 15.1061 16.5484 14.6723C16.7031 14.2384 16.7031 13.8665 16.6567 13.7891Z" fill="#FDFDFD"/>
</svg>
