<?xml version="1.0" encoding="utf-8"?>
<!-- Generator: Adobe Illustrator 21.1.0, SVG Export Plug-In . SVG Version: 6.00 Build 0)  -->
<svg version="1.1" id="Layer_1" xmlns="http://www.w3.org/2000/svg" xmlns:xlink="http://www.w3.org/1999/xlink" x="0px" y="0px"
	 viewBox="0 0 576 512" style="enable-background:new 0 0 576 512;" xml:space="preserve">
<style type="text/css">
	.st0{fill:#DF2623;enable-background:new    ;}
	.st1{fill:#7E1818;}
</style>
<path class="st0" d="M510.6,92.6l-95.3,76.3c0.4,2.3,0.6,4.7,0.7,7.1c0,26.5-21.5,48-48,48s-48-21.5-48-48c0.1-2.4,0.3-4.8,0.7-7.1
	l-95.3-76.3c-9.4,3.9-19.9,4.4-29.7,1.6L94.2,195.7c6.7,25.6-8.6,51.8-34.1,58.5c-25.6,6.7-51.8-8.6-58.5-34.1s8.6-51.8,34.1-58.5
	c4-1.1,8.1-1.6,12.3-1.6c4.2,0.1,8.3,0.7,12.3,1.8L161.8,60.3c-1.1-4-1.7-8.1-1.8-12.3c0-26.5,21.5-48,48-48s48,21.5,48,48
	c-0.1,2.4-0.3,4.8-0.7,7.1l95.3,76.3c11.2-4.5,23.6-4.5,34.8,0l95.3-76.3c-0.4-2.3-0.6-4.7-0.7-7.1c-0.2-26.7,21.3-48.5,48-48.7
	c26.7-0.2,48.5,21.3,48.7,48c0.2,26.7-21.3,48.5-48,48.7C522.5,96,516.4,94.9,510.6,92.6z"/>
<path class="st1" d="M400,280h-64c-8.8,0-16,7.2-16,16v200c0,8.8,7.2,16,16,16h64c8.8,0,16-7.2,16-16V296
	C416,287.2,408.8,280,400,280z"/>
<path class="st1" d="M560,192h-64c-8.8,0-16,7.2-16,16v288c0,8.8,7.2,16,16,16h64c8.8,0,16-7.2,16-16V208
	C576,199.2,568.8,192,560,192z"/>
<path class="st1" d="M240,192h-64c-8.8,0-16,7.2-16,16v288c0,8.8,7.2,16,16,16h64c8.8,0,16-7.2,16-16V208
	C256,199.2,248.8,192,240,192z"/>
<path class="st1" d="M80,352H16c-8.8,0-16,7.2-16,16v128c0,8.8,7.2,16,16,16h64c8.8,0,16-7.2,16-16V368C96,359.2,88.8,352,80,352z"
	/>
</svg>
