<?xml version="1.0" encoding="utf-8"?>
<!-- Generator: Adobe Illustrator 21.1.0, SVG Export Plug-In . SVG Version: 6.00 Build 0)  -->
<svg version="1.1" id="Layer_1" xmlns="http://www.w3.org/2000/svg" xmlns:xlink="http://www.w3.org/1999/xlink" x="0px" y="0px"
	 viewBox="0 0 640 640" style="enable-background:new 0 0 640 640;" xml:space="preserve">
<style type="text/css">
	.st0{opacity:0.75;fill:#FFFFFF;enable-background:new    ;}
	.st1{fill:#FFFFFF;}
</style>
<path class="st0" d="M544,592v32c0,8.8-7.2,16-16,16H112c-8.8,0-16-7.2-16-16v-32c0-8.8,7.2-16,16-16h176V153.3
	c-23.8-10.4-41.1-31.8-46.4-57.3H112c-8.8,0-16-7.2-16-16V48c0-8.8,7.2-16,16-16h144.4c26.1-35.1,75.8-42.5,110.9-16.4
	c6.2,4.6,11.7,10.1,16.4,16.4H528c8.8,0,16,7.2,16,16v32c0,8.8-7.2,16-16,16H398.4c-5.2,25.5-22.5,46.8-46.4,57.3V576h176
	C536.8,576,544,583.2,544,592z"/>
<path class="st1" d="M256,358c0-16.2,1.3-8.7-85-181.5c-17.6-35.3-68.2-35.4-85.9,0C-2.1,350.8,0,342.3,0,358c0,44.2,57.3,80,128,80
	S256,402.2,256,358z M128,198l72,144H56L128,198z M640,358c0-16.2,1.3-8.7-85-181.5c-17.7-35.3-68.2-35.4-85.9,0
	C381.9,350.8,384,342.3,384,358c0,44.2,57.3,80,128,80S640,402.2,640,358z M440,342l72-144l72,144H440z"/>
</svg>
