<?xml version="1.0" encoding="utf-8"?>
<!-- Generator: Adobe Illustrator 21.1.0, SVG Export Plug-In . SVG Version: 6.00 Build 0)  -->
<svg version="1.1" id="Layer_1" xmlns="http://www.w3.org/2000/svg" xmlns:xlink="http://www.w3.org/1999/xlink" x="0px" y="0px"
	 viewBox="0 0 496 496" style="enable-background:new 0 0 496 496;" xml:space="preserve">
<style type="text/css">
	.st0{fill:#DF2623;enable-background:new    ;}
	.st1{fill:#7E1818;}
</style>
<path class="st0" d="M398.8,353.5c-12.4,17.6-27.7,32.9-45.3,45.3L97.2,142.5c12.4-17.6,27.7-32.9,45.3-45.3L398.8,353.5z"/>
<path class="st1" d="M248,0C111,0,0,111,0,248s111,248,248,248s248-111,248-248S385,0,248,0z M378.1,378.1
	c-71.9,71.9-188.4,71.9-260.2,0s-71.9-188.4,0-260.2s188.4-71.9,260.2,0C412.6,152.4,432,199.2,432,248
	C432.1,296.8,412.7,343.7,378.1,378.1z"/>
</svg>
