<?xml version="1.0" encoding="utf-8"?>
<!-- Generator: Adobe Illustrator 21.1.0, SVG Export Plug-In . SVG Version: 6.00 Build 0)  -->
<svg version="1.1" id="Layer_1" xmlns="http://www.w3.org/2000/svg" xmlns:xlink="http://www.w3.org/1999/xlink" x="0px" y="0px"
	 viewBox="0 0 512 383.9" style="enable-background:new 0 0 512 383.9;" xml:space="preserve">
<style type="text/css">
	.st0{opacity:0.75;fill:#FFFFFF;enable-background:new    ;}
	.st1{fill:#FFFFFF;}
</style>
<path class="st0" d="M504.5,80.4L264.8,321.5L192,248.5l240.1-241c9.9-10,26.1-10.1,36-0.2c0,0,0,0,0,0l0.1,0.1L504.5,44
	C514.5,54,514.5,70.3,504.5,80.4z"/>
<path class="st1" d="M264.7,321.5l-54.6,54.9c-9.9,10-26.1,10.1-36.1,0.1l-0.1-0.1L7.5,209.1c-10-10.1-10-26.3,0-36.4l36.2-36.4
	c9.9-10,26-10,36-0.2l0.2,0.2L264.7,321.5z"/>
</svg>
