<?xml version="1.0" encoding="utf-8"?>
<!-- Generator: Adobe Illustrator 21.1.0, SVG Export Plug-In . SVG Version: 6.00 Build 0)  -->
<svg version="1.1" id="Layer_1" xmlns="http://www.w3.org/2000/svg" xmlns:xlink="http://www.w3.org/1999/xlink" x="0px" y="0px"
	 viewBox="0 0 512 512" style="enable-background:new 0 0 512 512;" xml:space="preserve">
<style type="text/css">
	.st0{fill:#7E1818;}
</style>
<path class="st0" d="M497.9,98L414,14.1C405,5.1,392.8,0,380.1,0H176c-26.5,0.1-48,21.6-48,48.1v117.6c-6,0-11.9-1.7-24.1-5
	c-1.7-0.5-3.4-0.7-5-0.7c-5.6,0-10.4,2.5-13.7,5.8c-17.9,18.3-17.1,17.8-41.7,24.5c-6.7,1.8-12,7.2-13.8,14.1
	c-6.5,24.7-6.1,24.2-24,42.3c-4.9,5-6.9,12.5-5.1,19.4c6.6,24.4,6.5,24.4,0,48.8c-1.8,7,0.1,14.4,5.1,19.5
	c18,18.1,17.6,17.8,24,42.3c1.8,6.9,7.1,12.3,13.8,14.1c1.8,0.5,2.9,0.8,4.5,1.2V496c0,5.5,2.9,10.7,7.6,13.6
	c4.7,2.9,10.6,3.2,15.6,0.7l56.8-28.4l56.8,28.4c2.3,1.1,4.7,1.7,7.2,1.7h272c26.5,0,48-21.5,48-48V132
	C512,119.3,506.9,107,497.9,98z M384,32.6c2.8,0.7,5.3,2.1,7.4,4.2l83.9,83.9c2.1,2.1,3.5,4.6,4.2,7.4H384V32.6z M33.3,316.7
	c5.7-22.3,5.7-30.2,0-52.4c15.6-16.2,19.6-23,25.6-45.1c21.6-6.1,28.1-9.9,43.9-25.7c9.8,2.6,16.8,4.1,25.2,4.1
	c8.3,0,15.3-1.5,25.2-4.2c15.6,15.5,22.5,19.6,43.9,25.7c6,21.9,9.7,28.6,25.6,45.1c-5.8,22.5-5.8,30,0,52.4
	c-15.6,16.2-19.6,23-25.6,45c-14.6,3.9-24,7.4-37.3,19.4c-9.9-4.5-20.8-6.9-31.9-6.9s-21.9,2.4-31.8,6.9
	c-13.2-11.9-22.6-15.3-37.2-19.3C53,339.8,49.2,333.1,33.3,316.7L33.3,316.7z M135.2,449.7c-4.5-2.3-9.8-2.3-14.3,0L80,470.1v-60.2
	c0.1,0.1,0.2,0.2,0.3,0.3C84.1,414,89,416,94,416c3.5,0,7-1,10.2-3c7.3-4.6,15.6-6.9,23.9-6.9s16.6,2.3,23.9,6.9c3.2,2,6.7,3,10.2,3
	c5,0,9.9-2,13.6-5.8c0.1-0.1,0.2-0.2,0.3-0.3v60.2L135.2,449.7L135.2,449.7z M480,464c0,8.8-7.2,16-16,16H208v-88.1
	c1.5-0.4,2.6-0.7,4.4-1.2c6.7-1.8,12-7.2,13.8-14.1c6.5-24.7,6.1-24.2,24-42.3c4.9-5,6.9-12.5,5.1-19.4c-6.5-24.3-6.6-24.3,0-48.8
	c1.8-7-0.1-14.4-5.1-19.4c-18-18.1-17.6-17.8-24-42.3c-1.8-6.9-7.1-12.3-13.8-14.1c-24.2-6.6-23.9-6.2-41.7-24.5
	c-2.9-3-6.8-4.5-10.7-5.2V48.1c0-8.8,7.2-16.1,16-16.1h176v104.1c0,13.3,10.7,23.9,24,23.9h104L480,464L480,464z"/>
</svg>
