<?xml version="1.0" encoding="utf-8"?>
<!-- Generator: Adobe Illustrator 21.1.0, SVG Export Plug-In . SVG Version: 6.00 Build 0)  -->
<svg version="1.1" id="Layer_1" xmlns="http://www.w3.org/2000/svg" xmlns:xlink="http://www.w3.org/1999/xlink" x="0px" y="0px"
	 viewBox="0 0 448 448" style="enable-background:new 0 0 448 448;" xml:space="preserve">
<style type="text/css">
	.st0{opacity:0.75;fill:#FFFFFF;}
	.st1{fill:#FFFFFF;}
</style>
<path class="st0" d="M400,0H48C21.5,0,0,21.5,0,48v352c0,26.5,21.5,48,48,48h352c26.5,0,48-21.5,48-48V48C448,21.5,426.5,0,400,0z
	 M416,400c0,8.8-7.2,16-16,16H48c-8.8,0-16-7.2-16-16V48c0-8.8,7.2-16,16-16h352c8.8,0,16,7.2,16,16V400z"/>
<path class="st1" d="M188,320h12V200h-12c-6.6,0-12-5.4-12-12v-8c0-6.6,5.4-12,12-12h48c6.6,0,12,5.4,12,12v140h12
	c6.6,0,12,5.4,12,12v8c0,6.6-5.4,12-12,12h-72c-6.6,0-12-5.4-12-12v-8C176,325.4,181.4,320,188,320z"/>
<circle class="st1" cx="224" cy="112" r="32"/>
</svg>
