<?xml version="1.0" encoding="utf-8"?>
<!-- Generator: Adobe Illustrator 21.1.0, SVG Export Plug-In . SVG Version: 6.00 Build 0)  -->
<svg version="1.1" id="Layer_1" xmlns="http://www.w3.org/2000/svg" xmlns:xlink="http://www.w3.org/1999/xlink" x="0px" y="0px"
	 viewBox="0 0 448 512" style="enable-background:new 0 0 448 512;" xml:space="preserve">
<style type="text/css">
	.st0{fill:#FFFFFF;}
</style>
<path class="st0" d="M169.4,394l-2.4-6.6c-9.5-26.5-56.2-64.1-79.1-78.4c-7.2-4.5-15.7-8.1-23.9-11.7C44.3,288.8,22,279.2,22,256
	c0-14.2,4.8-27.1,13.4-36.6c8.9-9.7,21.3-15,35-15c25.4,0,43.7,11.4,57.1,19.7c3.5,2.1,6.7,4.2,9.7,5.8V70.4
	c0-25.8,22.6-48.4,48.4-48.4c26.2,0,48.4,22.2,48.4,48.4v82.2c6.2-2.2,13-3.4,19.9-3.4c14.3,0,27.8,4.9,38.6,14
	c5.9-2.3,12.3-3.4,18.9-3.4c16.6,0,33,7.4,42.4,18.7c4.2-0.5,8.3-0.7,12.2-0.7c19.1,0,34.1,5.9,44.5,17.4
	c10.3,11.4,15.5,28,15.5,49.3v23.2c0,28.8-11.8,52.3-23.1,75c-7.4,14.8-14.4,28.8-18,43.7L383,394H169.4z"/>
<rect x="150" y="404.5" class="st0" width="244" height="86.9"/>
<path d="M115.2,70.4v121.8c-12.2-5.4-27-9.8-44.8-9.8C29.9,182.4,0,214.7,0,256c0,48.5,53.9,57.8,76.3,71.7
	c17.8,11.1,57.1,42.9,67.1,60.9c-9.3,5.6-15.5,15.8-15.5,27.4v64c0,17.7,14.3,32,32,32h224c17.7,0,32-14.3,32-32v-64
	c0-9.2-3.9-17.4-10-23.3c7.8-34.6,42-71,42-125.1v-23.2c0-59.6-36.1-90.3-85.9-88.6c-17.1-14.3-42.2-21.3-65.5-16.6
	c-11.9-7.2-25.4-11.3-39.6-11.9c-0.4,0-0.7,0-1.1,0V70.4C256,32.1,224.1,0,185.6,0C147.4,0,115.2,32.8,115.2,70.4z M160,480v-64h224
	v64H160z M224,70.4v99.3c16-14,46.7-15.7,66.6,5.4c21.4-12.2,49.8-1.8,58.5,14.1c42.7-7.1,66.9,11,66.9,55.2v23.2
	c0,44.3-31.3,76.7-40.9,116.4H176.5c-10.7-29.8-59.8-68.9-83.3-83.5C67.7,284.7,32,280,32,256s16-41.6,38.4-41.6
	c38.4,0,57.9,28.8,76.8,28.8V70.4c0-20.1,18-38.4,38.4-38.4C206.3,32,224,49.7,224,70.4z M352,428c11,0,20,9,20,20s-9,20-20,20
	s-20-9-20-20S341,428,352,428z"/>
</svg>
