<?xml version="1.0" encoding="utf-8"?>
<!-- Generator: Adobe Illustrator 21.1.0, SVG Export Plug-In . SVG Version: 6.00 Build 0)  -->
<svg version="1.1" id="Layer_1" xmlns="http://www.w3.org/2000/svg" xmlns:xlink="http://www.w3.org/1999/xlink" x="0px" y="0px"
	 viewBox="0 0 512 512" style="enable-background:new 0 0 512 512;" xml:space="preserve">
<style type="text/css">
	.st0{fill:#DF2623;enable-background:new    ;}
	.st1{fill:#7E1818;}
</style>
<path class="st0" d="M175.8,167.1L106,4.4l16.6-3.8c11.3-2.6,22.9,3.3,27.5,13.9l48,112c4.2,9.8,1.4,21.3-6.9,28L175.8,167.1z
	 M357.4,320.7c6.8-8.3,18.2-11.1,28-6.9l112,48c10.7,4.7,16.6,16.2,14,27.6l-3.8,16.5l-162.8-69.8L357.4,320.7z M18.6,24.6
	l55.8-12.9L150,188.2l-19.4,15.9c36.7,77.8,99.3,140.5,177.2,177.2l15.9-19.4l176.6,75.7l-12.9,55.8c-2.5,10.9-12.2,18.6-23.4,18.6
	C207.9,512,0,304.5,0,48C0,36.8,7.7,27.1,18.6,24.6L18.6,24.6z"/>
<path class="st1" d="M106,4.4l69.8,162.7L150,188.2L74.3,11.7L106,4.4z M507.6,405.9l-7.3,31.7l-176.6-75.7l21.1-25.8L507.6,405.9z"
	/>
</svg>
