<?xml version="1.0" encoding="utf-8"?>
<!-- Generator: Adobe Illustrator 21.1.0, SVG Export Plug-In . SVG Version: 6.00 Build 0)  -->
<svg version="1.1" id="Layer_1" xmlns="http://www.w3.org/2000/svg" xmlns:xlink="http://www.w3.org/1999/xlink" x="0px" y="0px"
	 viewBox="0 0 267.4 670.3" style="enable-background:new 0 0 267.4 670.3;" xml:space="preserve">
<style type="text/css">
	.st0{fill:#DF2623;enable-background:new    ;}
	.st1{fill:#7E1818;}
</style>
<g>
	<path class="st0" d="M176,215.6l65.7-164.4l14.4,9c9.8,6.2,13.9,18.5,9.6,29.3l-45.3,113.1c-4,9.9-14,16-24.7,14.9L176,215.6z
		 M195.8,452.6c10.6-1.1,20.7,5,24.7,14.9l45.3,113.1c4.3,10.8,0.2,23.2-9.6,29.4l-14.3,9L176,454.6L195.8,452.6z M165.6,3.6
		L214.1,34l-71.3,178.3l-24.9-2.5c-29.1,81-29.1,169.6,0,250.6l24.9-2.5l71.4,178.4l-48.6,30.4c-9.5,5.9-21.8,4.5-29.7-3.4
		C-45.2,482.1-45.5,188.4,135.9,7C143.8-0.9,156.1-2.3,165.6,3.6L165.6,3.6z"/>
	<path class="st1" d="M241.7,51.2L176,215.6l-33.1-3.3L214.1,34L241.7,51.2z M241.8,619l-27.6,17.2l-71.4-178.4l33.1-3.3L241.8,619z
		"/>
</g>
</svg>
