<?xml version="1.0" encoding="utf-8"?>
<!-- Generator: Adobe Illustrator 21.1.0, SVG Export Plug-In . SVG Version: 6.00 Build 0)  -->
<svg version="1.1" id="Layer_1" xmlns="http://www.w3.org/2000/svg" xmlns:xlink="http://www.w3.org/1999/xlink" x="0px" y="0px"
	 viewBox="0 0 448 448" style="enable-background:new 0 0 448 448;" xml:space="preserve">
<style type="text/css">
	.st0{fill:#7E1818;}
	.st1{fill:#DF2623;}
</style>
<path class="st0" d="M400,0H48C21.5,0,0,21.5,0,48v352c0,26.5,21.5,48,48,48h352c26.5,0,48-21.5,48-48V48C448,21.5,426.5,0,400,0z
	 M416,400c0,8.8-7.2,16-16,16H48c-8.8,0-16-7.2-16-16V48c0-8.8,7.2-16,16-16h352c8.8,0,16,7.2,16,16V400z"/>
<circle class="st1" cx="224" cy="336" r="28"/>
<path class="st1" d="M231.7,284h-16c-6.6,0-12-5.4-12-12v-0.4c0-70.3,77.4-63.6,77.4-107.4c0-20-17.8-40.2-57.4-40.2
	c-29.1,0-44.3,9.6-59.2,28.7c-3.9,5-11.1,6-16.2,2.4l-13.1-9.1c-5.6-3.9-6.9-11.8-2.6-17.2c21.2-27.2,46.4-44.7,91.2-44.7
	c52.3,0,97.4,29.8,97.4,80.2c0,67.4-77.4,63.8-77.4,107.4v0.4C243.7,278.6,238.3,284,231.7,284L231.7,284z"/>
</svg>
