<?xml version="1.0" encoding="utf-8"?>
<!-- Generator: Adobe Illustrator 21.1.0, SVG Export Plug-In . SVG Version: 6.00 Build 0)  -->
<svg version="1.1" id="Layer_1" xmlns="http://www.w3.org/2000/svg" xmlns:xlink="http://www.w3.org/1999/xlink" x="0px" y="0px"
	 viewBox="0 0 448 448" style="enable-background:new 0 0 448 448;" xml:space="preserve">
<style type="text/css">
	.st0{fill:#FFFFFF;}
	.st1{opacity:0.75;fill:#FFFFFF;}
</style>
<g>
	<circle class="st0" cx="224.3" cy="316.1" r="22.5"/>
	<path class="st0" d="M230.5,274.3h-12.9c-5.3,0-9.7-4.3-9.7-9.7v-0.3c0-56.5,62.3-51.2,62.3-86.4c0-16.1-14.3-32.3-46.2-32.3
		c-23.4,0-35.6,7.7-47.6,23.1c-3.1,4-8.9,4.8-13,1.9l-10.5-7.3c-4.5-3.1-5.5-9.5-2.1-13.8c17.1-21.9,37.3-36,73.4-36
		c42.1,0,78.3,24,78.3,64.5c0,54.2-62.3,51.3-62.3,86.4v0.3C240.2,269.9,235.8,274.3,230.5,274.3L230.5,274.3z"/>
</g>
<path class="st1" d="M222.9,47.3l47.4,41.8l0.7,0.7l1,0.9l100.2,88l0.4,0.4l0.4,0.3l28.3,23.6c7.4,6.3,11.6,14.2,11.6,22.4
	c0.1,8.1-3.7,15.8-11,22.2L260.2,371.2l-34.9,29.5L63.5,259.7l-0.3-0.3l-0.3-0.3l-15.9-13.3c-7.7-6.7-11.9-15-11.9-23.3
	c0-7.9,3.7-15.2,10.7-21.2l0.1-0.1l0.1-0.1l142-123.8L222.9,47.3 M223.3-1.1L162.7,51L24.3,171.6c-33,28.3-32.3,75.1,1.3,104.1
	l15.8,13.2l169.4,147.6l13.8,12.5l60.6-51.4l138.4-120.6c33-29,32.3-75.8-1.3-104.1l-27.7-23.1l-97.5-85.7c0,0,0,0-0.7-0.7
	L223.3-1.1L223.3-1.1z"/>
</svg>
