<?xml version="1.0" encoding="utf-8"?>
<!-- Generator: Adobe Illustrator 21.1.0, SVG Export Plug-In . SVG Version: 6.00 Build 0)  -->
<svg version="1.1" id="Layer_1" xmlns="http://www.w3.org/2000/svg" xmlns:xlink="http://www.w3.org/1999/xlink" x="0px" y="0px"
	 viewBox="0 0 351.9 512" style="enable-background:new 0 0 351.9 512;" xml:space="preserve">
<style type="text/css">
	.st0{opacity:0.75;fill:#FFFFFF;enable-background:new    ;}
	.st1{fill:#FFFFFF;}
</style>
<path class="st0" d="M166.4,373.5c-38.3,0-69.3,31-69.3,69.3s31,69.3,69.3,69.3c38.3,0,69.3-31,69.3-69.3
	C235.7,404.5,204.7,373.5,166.4,373.5z"/>
<path class="st1" d="M351.9,153.6c0,116-125.3,117.8-125.3,160.6v5.8c0,13.3-10.7,24-24,24h-72.5c-13.3,0-24-10.7-24-24v-9.8
	c0-61.8,46.9-86.5,82.3-106.4c30.4-17,49-28.6,49-51.2c0-29.8-38-49.6-68.8-49.6c-39.1,0-57.8,18.1-82.8,49.4
	c-8.1,10.2-22.9,12-33.3,4.1L9.5,123.9C-0.8,116.1-3.1,101.6,4.3,91C44.9,32.7,96.6,0,176.4,0C261.3,0,351.9,66.3,351.9,153.6
	L351.9,153.6z"/>
</svg>
