<?xml version="1.0" encoding="utf-8"?>
<!-- Generator: Adobe Illustrator 21.1.0, SVG Export Plug-In . SVG Version: 6.00 Build 0)  -->
<svg version="1.1" id="Layer_1" xmlns="http://www.w3.org/2000/svg" xmlns:xlink="http://www.w3.org/1999/xlink" x="0px" y="0px"
	 viewBox="0 0 512 512" style="enable-background:new 0 0 512 512;" xml:space="preserve">
<style type="text/css">
	.st0{fill:#DF2623;enable-background:new    ;}
	.st1{fill:#7E1818;}
</style>
<path class="st0" d="M336,208c0,70.7-57.3,128-128,128S80,278.7,80,208S137.3,80,208,80c33.9,0,66.5,13.5,90.5,37.5
	C322.6,141.4,336.1,174,336,208 M416,208C416,93.1,322.9,0,208,0S0,93.1,0,208s93.1,208,208,208S416,322.9,416,208z"/>
<path class="st1" d="M504.9,476.7L476.6,505c-9.3,9.4-24.4,9.4-33.8,0.1c0,0-0.1-0.1-0.1-0.1L343,405.3c-4.5-4.5-7-10.6-7-17V372
	l36-36h16.3c6.4,0,12.5,2.5,17,7l99.7,99.7C514.3,452.1,514.3,467.3,504.9,476.7z"/>
</svg>
