<?xml version="1.0" encoding="utf-8"?>
<!-- Generator: Adobe Illustrator 21.1.0, SVG Export Plug-In . SVG Version: 6.00 Build 0)  -->
<svg version="1.1" id="Layer_1" xmlns="http://www.w3.org/2000/svg" xmlns:xlink="http://www.w3.org/1999/xlink" x="0px" y="0px"
	 viewBox="0 0 576 512" style="enable-background:new 0 0 576 512;" xml:space="preserve">
<style type="text/css">
	.st0{fill:#DF2623;enable-background:new    ;}
	.st1{fill:#7E1818;}
</style>
<path class="st0" d="M242.8,38.1c-14.3-10.4-34.3-7.2-44.7,7.1L91.3,192h79.1l79.4-109.2C260.3,68.5,257.1,48.5,242.8,38.1z
	 M377.9,45.2c-10.3-14.4-30.3-17.6-44.7-7.3c-14.4,10.3-17.6,30.3-7.3,44.7c0.1,0.1,0.1,0.2,0.2,0.3L405.5,192h79.1L377.9,45.2z"/>
<path class="st1" d="M552,192H24c-13.3,0-24,10.7-24,24v16c0,13.3,10.7,24,24,24l0,0h8l26.1,182.8c3.4,23.6,23.6,41.2,47.5,41.2
	h364.7c23.9,0,44.1-17.6,47.5-41.2L544,256h8c13.3,0,24-10.7,24-24l0,0v-16C576,202.7,565.3,192,552,192z M200,392
	c0,13.3-10.7,24-24,24s-24-10.7-24-24V280c0-13.3,10.7-24,24-24s24,10.7,24,24V392z M312,392c0,13.3-10.7,24-24,24s-24-10.7-24-24
	V280c0-13.3,10.7-24,24-24s24,10.7,24,24V392z M424,392c0,13.3-10.7,24-24,24s-24-10.7-24-24V280c0-13.3,10.7-24,24-24
	s24,10.7,24,24V392z"/>
</svg>
