<?xml version="1.0" encoding="utf-8"?>
<!-- Generator: Adobe Illustrator 21.1.0, SVG Export Plug-In . SVG Version: 6.00 Build 0)  -->
<svg version="1.1" id="Layer_1" xmlns="http://www.w3.org/2000/svg" xmlns:xlink="http://www.w3.org/1999/xlink" x="0px" y="0px"
	 viewBox="0 0 576 512" style="enable-background:new 0 0 576 512;" xml:space="preserve">
<style type="text/css">
	.st0{fill:#DDDDDD;enable-background:new    ;}
	.st1{fill:#7C7C7C;}
</style>
<path class="st0" d="M242.8,6.3c-14.3-10.4-34.3-7.2-44.7,7.1L91.3,224h79.1l79.4-173C260.3,36.7,257.1,16.7,242.8,6.3z M377.9,13.3
	C367.6-1,347.6-4.3,333.2,6c-14.4,10.3-17.6,30.3-7.3,44.7c0.1,0.1,0.1,0.2,0.2,0.3l79.4,173h79.1L377.9,13.3z"/>
<path class="st1" d="M552,224H24c-13.3,0-24,10.7-24,24v16c0,13.3,10.7,24,24,24l0,0h8l26.1,182.8c3.4,23.6,23.6,41.2,47.5,41.2
	h364.7c23.9,0,44.1-17.6,47.5-41.2L544,288h8c13.3,0,24-10.7,24-24l0,0v-16C576,234.7,565.3,224,552,224z M200,424
	c0,13.3-10.7,24-24,24s-24-10.7-24-24V312c0-13.3,10.7-24,24-24s24,10.7,24,24V424z M312,424c0,13.3-10.7,24-24,24s-24-10.7-24-24
	V312c0-13.3,10.7-24,24-24s24,10.7,24,24V424z M424,424c0,13.3-10.7,24-24,24s-24-10.7-24-24V312c0-13.3,10.7-24,24-24
	s24,10.7,24,24V424z"/>
</svg>
