<?xml version="1.0" encoding="utf-8"?>
<!-- Generator: Adobe Illustrator 21.1.0, SVG Export Plug-In . SVG Version: 6.00 Build 0)  -->
<svg version="1.1" id="Layer_1" xmlns="http://www.w3.org/2000/svg" xmlns:xlink="http://www.w3.org/1999/xlink" x="0px" y="0px"
	 viewBox="0 0 535 512.1" style="enable-background:new 0 0 535 512.1;" xml:space="preserve">
<style type="text/css">
	.st0{fill:#7E1818;}
</style>
<path class="st0" d="M507.6,171.5l-146.1-21.3L296.2,17.8c-11.7-23.6-45.6-23.9-57.4,0l-65.3,132.4L27.4,171.5
	c-26.2,3.8-36.7,36.1-17.7,54.6l105.7,103l-25,145.5c-4.5,26.3,23.2,46,46.4,33.7l130.7-68.7l130.7,68.7
	c23.2,12.2,50.9-7.4,46.4-33.7l-25-145.5l105.7-103C544.3,207.6,533.8,175.3,507.6,171.5L507.6,171.5z M385.3,317.9l27.8,162
	l-145.6-76.4V32l72.8,147.5L503,203.1L385.3,317.9L385.3,317.9z"/>
</svg>
