<?xml version="1.0" encoding="utf-8"?>
<!-- Generator: Adobe Illustrator 21.1.0, SVG Export Plug-In . SVG Version: 6.00 Build 0)  -->
<svg version="1.1" id="Layer_1" xmlns="http://www.w3.org/2000/svg" xmlns:xlink="http://www.w3.org/1999/xlink" x="0px" y="0px"
	 viewBox="0 0 512 512" style="enable-background:new 0 0 512 512;" xml:space="preserve">
<style type="text/css">
	.st0{fill:#7E1818;}
	.st1{fill:#DF2623;}
</style>
<g>
	<g>
		<path class="st0" d="M496.7,285.7c9.9-12.9,15.3-29.7,15.3-50.2c0-37.7-32.1-72.6-72.7-72.6h-70.1c8.7-17.4,20.7-38.9,20.7-69.8
			c0-58.4-23.3-93.1-82.9-93.1c-30,0-41.1,37.9-46.8,67.2c-3.4,17.5-6.6,34.1-16.5,44C220,134.7,184,192,162.4,203.6
			c-2.2,0.9-5,1.6-8,2.2c-5.8-8.4-15.4-13.8-26.4-13.8H32c-17.7,0-32,14.3-32,32v256c0,17.7,14.3,32,32,32h96c17.7,0,32-14.3,32-32
			v-8.7c32.5,0,100.7,40.7,177.5,40.7c5.5,0,37.7,0,41,0c59.3,0,92.3-35.9,90.3-89.8c15.1-17.7,22.5-43.3,18.2-67.1
			C499.5,335.6,502.2,308,496.7,285.7z M128,480H32V224h96V480z M456,276.4c16,11.6,16,59.6-5.6,70.7c13.5,22.8,1.4,53.2-15,62
			c8.3,52.5-19,70.6-57.2,71c-3.3,0-37.2,0-40.7,0c-72.9,0-134.7-40.7-177.5-40.7V235.6c37.7,0,72.3-67.9,106.2-101.8
			c30.5-30.5,20.4-81.5,40.7-101.8c50.9,0,50.9,35.5,50.9,61.1c0,42.2-30.5,61.1-30.5,101.8h112c22.7,0,40.6,20.4,40.7,40.7
			C480.1,256,472,272,456,276.4z"/>
	</g>
</g>
<circle class="st1" cx="80" cy="432" r="24"/>
</svg>
