<?xml version="1.0" encoding="utf-8"?>
<!-- Generator: Adobe Illustrator 21.1.0, SVG Export Plug-In . SVG Version: 6.00 Build 0)  -->
<svg version="1.1" id="Layer_1" xmlns="http://www.w3.org/2000/svg" xmlns:xlink="http://www.w3.org/1999/xlink" x="0px" y="0px"
	 viewBox="0 0 640 512" style="enable-background:new 0 0 640 512;" xml:space="preserve">
<style type="text/css">
	.st0{fill:#7E1818;}
	.st1{fill:#DF2623;}
</style>
<g>
	<g>
		<path class="st0" d="M621.3,205.3l-58.5-58.5c-12-12-28.3-18.7-45.3-18.7H448c-8.8,0-16,7.2-16,16v208H228.7
			c-12.3-9.9-27.7-16-44.7-16c-22.8,0-42.8,10.8-56,27.3C114.8,346.8,94.8,336,72,336c-39.8,0-72,32.2-72,72s32.2,72,72,72
			c22.8,0,42.8-10.8,56-27.3c13.2,16.5,33.2,27.3,56,27.3c39.8,0,72-32.2,72-72c0-8.5-1.7-16.5-4.4-24h198
			c-2.7,13.2-2.2,27.6,2.8,42.4c8.4,25.1,29.9,44.9,55.6,51.1c52.8,12.8,100-26.9,100-77.6c0-5.5-0.6-10.8-1.6-16H624
			c8.8,0,16-7.2,16-16V250.5C640,233.5,633.3,217.3,621.3,205.3z M72,448c-22.1,0-40-17.9-40-40c0-22.1,17.9-40,40-40s40,17.9,40,40
			C112,430.1,94.1,448,72,448z M184,448c-22.1,0-40-17.9-40-40c0-22.1,17.9-40,40-40c22.1,0,40,17.9,40,40
			C224,430.1,206.1,448,184,448z M464,160h53.5c8.5,0,16.6,3.3,22.6,9.4l54.6,54.6H464V160z M528,448c-26.5,0-48-21.5-48-48
			s21.5-48,48-48s48,21.5,48,48S554.5,448,528,448z M608,352h-16.4c-14.6-19.3-37.5-32-63.6-32s-49,12.7-63.6,32H464v-96h144V352z"
			/>
	</g>
</g>
<g>
	<g>
		<g>
			<path class="st1" d="M368,32H32C14.3,32,0,46.3,0,64v224c0,17.7,14.3,32,32,32h336c17.7,0,32-14.3,32-32V64
				C400,46.3,385.7,32,368,32z M368,288H32V64h336V288z"/>
		</g>
	</g>
	<path class="st1" d="M104,256h16c4.4,0,8-3.6,8-8V104c0-4.4-3.6-8-8-8h-16c-4.4,0-8,3.6-8,8v144C96,252.4,99.6,256,104,256z"/>
	<path class="st1" d="M200,256h16c4.4,0,8-3.6,8-8V104c0-4.4-3.6-8-8-8h-16c-4.4,0-8,3.6-8,8v144C192,252.4,195.6,256,200,256z"/>
	<path class="st1" d="M296,256h16c4.4,0,8-3.6,8-8V104c0-4.4-3.6-8-8-8h-16c-4.4,0-8,3.6-8,8v144C288,252.4,291.6,256,296,256z"/>
</g>
</svg>
