<?xml version="1.0" encoding="utf-8"?>
<!-- Generator: Adobe Illustrator 21.1.0, SVG Export Plug-In . SVG Version: 6.00 Build 0)  -->
<svg version="1.1" id="Layer_1" xmlns="http://www.w3.org/2000/svg" xmlns:xlink="http://www.w3.org/1999/xlink" x="0px" y="0px"
	 viewBox="0 0 448 512" style="enable-background:new 0 0 448 512;" xml:space="preserve">
<style type="text/css">
	.st0{fill:#DF2623;enable-background:new    ;}
	.st1{fill:#7E1818;}
</style>
<path class="st0" d="M191.4,414.8L208,344l-32-56h96l-32,56l16.6,70.8L224,480L191.4,414.8z M224,256c70.7,0,128-57.3,128-128
	S294.7,0,224,0S96,57.3,96,128S153.3,256,224,256z"/>
<path class="st1" d="M319.8,288.6L224,480l-95.8-191.4C56.9,292,0,350.3,0,422.4V464c0,26.5,21.5,48,48,48l0,0h352
	c26.5,0,48-21.5,48-48l0,0v-41.6C448,350.3,391.1,292,319.8,288.6L319.8,288.6z"/>
</svg>
