<svg width="12" height="12" viewBox="0 0 12 12" fill="none" xmlns="http://www.w3.org/2000/svg">
<path d="M9.7485 3.99439L6 7.64839L2.2515 3.99439C2.18452 3.92897 2.09462 3.89235 2.001 3.89235C1.90738 3.89235 1.81747 3.92897 1.7505 3.99439C1.71807 4.02616 1.69231 4.06409 1.67472 4.10594C1.65713 4.1478 1.64807 4.19274 1.64807 4.23814C1.64807 4.28354 1.65713 4.32848 1.67472 4.37034C1.69231 4.41219 1.71807 4.45012 1.7505 4.48189L5.73825 8.36989C5.80828 8.43815 5.9022 8.47635 6 8.47635C6.09779 8.47635 6.19172 8.43815 6.26175 8.36989L10.2495 4.48264C10.2822 4.45084 10.3081 4.41283 10.3258 4.37083C10.3436 4.32884 10.3527 4.28372 10.3527 4.23814C10.3527 4.19256 10.3436 4.14744 10.3258 4.10545C10.3081 4.06346 10.2822 4.02544 10.2495 3.99364C10.1825 3.92822 10.0926 3.8916 9.999 3.8916C9.90538 3.8916 9.81547 3.92822 9.7485 3.99364V3.99439Z" fill="white"/>
</svg>
