<svg width="12" height="12" viewBox="0 0 12 12" fill="none" xmlns="http://www.w3.org/2000/svg">
<path d="M9.7485 8.00561L6 4.35161L2.2515 8.00561C2.18452 8.07103 2.09462 8.10765 2.001 8.10765C1.90738 8.10765 1.81747 8.07103 1.7505 8.00561C1.71807 7.97384 1.69231 7.93591 1.67472 7.89406C1.65713 7.8522 1.64807 7.80726 1.64807 7.76186C1.64807 7.71646 1.65713 7.67152 1.67472 7.62966C1.69231 7.58781 1.71807 7.54988 1.7505 7.51811L5.73825 3.63011C5.80828 3.56185 5.9022 3.52365 6 3.52365C6.09779 3.52365 6.19172 3.56185 6.26175 3.63011L10.2495 7.51736C10.2822 7.54916 10.3081 7.58717 10.3258 7.62917C10.3436 7.67116 10.3527 7.71628 10.3527 7.76186C10.3527 7.80744 10.3436 7.85256 10.3258 7.89455C10.3081 7.93654 10.2822 7.97456 10.2495 8.00636C10.1825 8.07178 10.0926 8.1084 9.999 8.1084C9.90538 8.1084 9.81547 8.07178 9.7485 8.00636V8.00561Z" fill="white"/>
</svg>
