<svg width="12" height="12" viewBox="0 0 12 12" fill="none" xmlns="http://www.w3.org/2000/svg">
<path d="M8.00561 2.25162L4.35161 6.00012L8.00561 9.74863C8.07103 9.8156 8.10765 9.90551 8.10765 9.99913C8.10765 10.0927 8.07103 10.1827 8.00561 10.2496C7.97384 10.2821 7.93591 10.3078 7.89406 10.3254C7.8522 10.343 7.80726 10.3521 7.76186 10.3521C7.71646 10.3521 7.67152 10.343 7.62966 10.3254C7.58781 10.3078 7.54988 10.2821 7.51811 10.2496L3.63011 6.26187C3.56185 6.19184 3.52365 6.09792 3.52365 6.00012C3.52365 5.90233 3.56185 5.8084 3.63011 5.73837L7.51736 1.75062C7.54916 1.71797 7.58717 1.69201 7.62917 1.67428C7.67116 1.65656 7.71628 1.64743 7.76186 1.64743C7.80744 1.64743 7.85256 1.65656 7.89455 1.67428C7.93654 1.69201 7.97456 1.71797 8.00636 1.75062C8.07178 1.8176 8.1084 1.9075 8.1084 2.00112C8.1084 2.09474 8.07178 2.18465 8.00636 2.25162H8.00561Z" fill="#00A0E3"/>
</svg>
