<svg width="12" height="12" viewBox="0 0 12 12" fill="none" xmlns="http://www.w3.org/2000/svg">
<path d="M3.99439 2.25162L7.64839 6.00012L3.99439 9.74863C3.92897 9.8156 3.89235 9.90551 3.89235 9.99913C3.89235 10.0927 3.92897 10.1827 3.99439 10.2496C4.02616 10.2821 4.06409 10.3078 4.10594 10.3254C4.1478 10.343 4.19274 10.3521 4.23814 10.3521C4.28354 10.3521 4.32848 10.343 4.37034 10.3254C4.41219 10.3078 4.45012 10.2821 4.48189 10.2496L8.36989 6.26187C8.43815 6.19184 8.47635 6.09792 8.47635 6.00012C8.47635 5.90233 8.43815 5.8084 8.36989 5.73837L4.48264 1.75062C4.45084 1.71797 4.41283 1.69201 4.37083 1.67428C4.32884 1.65656 4.28372 1.64743 4.23814 1.64743C4.19256 1.64743 4.14744 1.65656 4.10545 1.67428C4.06346 1.69201 4.02544 1.71797 3.99364 1.75062C3.92822 1.8176 3.8916 1.9075 3.8916 2.00112C3.8916 2.09474 3.92822 2.18465 3.99364 2.25162H3.99439Z" fill="#222222"/>
</svg>
