<svg width="54" height="54" viewBox="0 0 54 54" fill="none" xmlns="http://www.w3.org/2000/svg">
<path d="M48.2383 10.3293H49.9068C50.4888 10.3293 50.9608 9.85728 50.9608 9.27527C50.9608 8.69325 50.4888 8.22127 49.9068 8.22127H45.9016C45.3196 8.22127 44.8476 8.69325 44.8476 9.27527V13.2805C44.8476 13.8625 45.3196 14.3344 45.9016 14.3344C46.4836 14.3344 46.9556 13.8625 46.9556 13.2805V12.1207C50.1537 16.4022 51.892 21.597 51.892 27C51.892 40.7256 40.7256 51.892 27 51.892C13.2744 51.892 2.10799 40.7256 2.10799 27C2.10799 13.2744 13.2744 2.10799 27 2.10799C28.0151 2.10799 29.0367 2.16965 30.0368 2.29118C30.6138 2.36095 31.1401 1.95 31.2103 1.37209C31.2806 0.794291 30.8691 0.268769 30.2912 0.198573C29.2071 0.0668233 28.0998 0 27 0C19.788 0 13.0077 2.80848 7.90813 7.90813C2.80848 13.0077 0 19.788 0 27C0 34.212 2.80848 40.9923 7.90813 46.0919C13.0077 51.1915 19.788 54 27 54C34.212 54 40.9923 51.1915 46.0919 46.0919C51.1915 40.9923 54 34.212 54 27C54 20.9141 51.9668 15.0716 48.2383 10.3293Z" fill="#00A0E3"/>
<path d="M11.4327 15.9167C10.9408 15.6053 10.2898 15.7518 9.97833 16.2434C7.57216 20.0437 6.507 24.614 6.97908 29.1126C7.45812 33.6779 9.51289 37.983 12.7649 41.2351C16.6894 45.1597 21.8446 47.122 26.9999 47.122C32.1552 47.122 37.3103 45.1598 41.235 41.2351C49.0842 33.3859 49.0842 20.6142 41.235 12.7651C37.988 9.51818 33.6899 7.46416 29.1322 6.98143C24.6419 6.50555 20.0766 7.56239 16.2779 9.95675C15.7853 10.2672 15.6379 10.918 15.9482 11.4104C16.2586 11.903 16.9094 12.0504 17.4018 11.7401C24.5625 7.2269 33.7498 8.26119 39.7443 14.2557C46.7716 21.283 46.7716 32.7172 39.7443 39.7445C32.7171 46.7719 21.2828 46.7719 14.2556 39.7445C8.3439 33.8328 7.29412 24.4235 11.7595 17.3712C12.0707 16.8793 11.9245 16.2281 11.4327 15.9167Z" fill="#00A0E3"/>
<path d="M40.7024 28.0709H42.0022C42.5842 28.0709 43.0562 27.5989 43.0562 27.0169C43.0562 26.4349 42.5842 25.9629 42.0022 25.9629H40.7024C40.1204 25.9629 39.6484 26.4349 39.6484 27.0169C39.6484 27.5989 40.1203 28.0709 40.7024 28.0709Z" fill="#00A0E3"/>
<path d="M10.9443 26.983C10.9443 27.565 11.4163 28.0369 11.9983 28.0369H13.2981C13.8801 28.0369 14.3521 27.565 14.3521 26.983C14.3521 26.4009 13.8801 25.929 13.2981 25.929H11.9983C11.4163 25.929 10.9443 26.4008 10.9443 26.983Z" fill="#00A0E3"/>
<path d="M28.0709 13.2981V11.9983C28.0709 11.4163 27.5989 10.9443 27.0169 10.9443C26.4349 10.9443 25.9629 11.4163 25.9629 11.9983V13.2981C25.9629 13.8801 26.4349 14.3521 27.0169 14.3521C27.5989 14.3521 28.0709 13.8801 28.0709 13.2981Z" fill="#00A0E3"/>
<path d="M25.9287 40.7019V42.0017C25.9287 42.5838 26.4007 43.0557 26.9827 43.0557C27.5647 43.0557 28.0367 42.5838 28.0367 42.0017V40.7019C28.0367 40.1199 27.5647 39.6479 26.9827 39.6479C26.4007 39.6479 25.9287 40.1198 25.9287 40.7019Z" fill="#00A0E3"/>
<path d="M21.7168 20.2263C21.3051 19.8148 20.638 19.8148 20.2262 20.2263C19.8146 20.6379 19.8146 21.3053 20.2262 21.7169L23.7983 25.289C23.5245 25.7992 23.3689 26.3817 23.3689 27C23.3689 29.0022 24.9977 30.631 26.9999 30.631C29.0021 30.631 30.6309 29.0022 30.6309 27C30.6309 26.3817 30.4751 25.7992 30.2015 25.289L37.409 18.0815C37.8206 17.6699 37.8206 17.0025 37.409 16.5908C36.9973 16.1794 36.3302 16.1794 35.9184 16.5908L28.7108 23.7984C28.2007 23.5247 27.6182 23.369 26.9999 23.369C26.3816 23.369 25.7991 23.5248 25.2889 23.7984L21.7168 20.2263ZM28.5229 27C28.5229 27.8398 27.8397 28.523 26.9999 28.523C26.1601 28.523 25.4769 27.8398 25.4769 27C25.4769 26.1602 26.1601 25.477 26.9999 25.477C27.8397 25.477 28.5229 26.1602 28.5229 27Z" fill="#00A0E3"/>
<path d="M14.2552 14.255C14.4523 14.0589 14.565 13.787 14.565 13.5098C14.565 13.2326 14.4523 12.9617 14.2552 12.7646C14.0592 12.5687 13.7882 12.4558 13.51 12.4558C13.2328 12.4558 12.9609 12.5686 12.7649 12.7646C12.5689 12.9607 12.4561 13.2326 12.4561 13.5098C12.4561 13.7881 12.5688 14.0589 12.7649 14.255C12.9609 14.4509 13.2328 14.5638 13.51 14.5638C13.7882 14.5638 14.0592 14.4509 14.2552 14.255Z" fill="#00A0E3"/>
<path d="M34.3011 3.14901C34.5794 3.14901 34.8514 3.03718 35.0473 2.84019C35.2433 2.64414 35.3562 2.37316 35.3562 2.09501C35.3562 1.81781 35.2434 1.54588 35.0473 1.34984C34.8514 1.1539 34.5794 1.04102 34.3011 1.04102C34.0239 1.04102 33.7519 1.15379 33.556 1.34984C33.36 1.54588 33.2471 1.81781 33.2471 2.09501C33.2471 2.37327 33.3598 2.64414 33.556 2.84019C33.7519 3.03718 34.0239 3.14901 34.3011 3.14901Z" fill="#00A0E3"/>
</svg>
