<svg width="59" height="59" viewBox="0 0 59 59" fill="none" xmlns="http://www.w3.org/2000/svg">
<path d="M29.5001 1.84375C24.6127 1.84477 19.8128 3.14066 15.589 5.59952C11.3652 8.05837 7.86824 11.5924 5.45408 15.8419C3.03993 20.0915 1.79475 24.9047 1.8453 29.7919C1.89585 34.679 3.24031 39.4655 5.74185 43.6641C5.6159 43.8168 5.54247 44.0059 5.53245 44.2036C5.52242 44.4012 5.57633 44.5968 5.68619 44.7614L6.73021 46.3274L2.29139 48.9907C2.13182 49.0865 2.00495 49.2282 1.92747 49.3974C1.84999 49.5666 1.82552 49.7553 1.85728 49.9386C1.88903 50.122 1.97553 50.2914 2.1054 50.4247C2.23526 50.5579 2.40242 50.6488 2.58489 50.6853L6.41147 51.4505L6.15531 56.1845C6.14625 56.3516 6.18289 56.5181 6.26127 56.666C6.33966 56.8139 6.45684 56.9377 6.60025 57.0241C6.74365 57.1104 6.90787 57.1561 7.07527 57.1562C7.24267 57.1563 7.40694 57.1108 7.55045 57.0247L14.5913 52.7956C19.0427 55.6427 24.2163 57.1558 29.5005 57.1558C34.7846 57.1558 39.9582 55.6427 44.4097 52.7956L51.4505 57.0247C51.594 57.1108 51.7583 57.1563 51.9257 57.1562C52.0931 57.1561 52.2573 57.1104 52.4007 57.0241C52.5441 56.9377 52.6613 56.8139 52.7397 56.666C52.818 56.5181 52.8547 56.3516 52.8456 56.1845L52.5894 51.4505L56.416 50.6853C56.5985 50.6488 56.7657 50.5579 56.8955 50.4247C57.0254 50.2914 57.1119 50.122 57.1437 49.9386C57.1754 49.7553 57.1509 49.5666 57.0735 49.3974C56.996 49.2282 56.8691 49.0865 56.7095 48.9907L52.2704 46.3274L53.3144 44.7614C53.4243 44.5967 53.4782 44.4011 53.4681 44.2034C53.458 44.0056 53.3845 43.8164 53.2585 43.6638C55.7609 39.4653 57.106 34.6786 57.1569 29.7912C57.2078 24.9038 55.9628 20.0901 53.5484 15.8403C51.1341 11.5906 47.6367 8.05648 43.4124 5.59786C39.1881 3.13923 34.3878 1.8439 29.5001 1.84375ZM10.4137 43.3716C16.3702 40.5125 22.8929 39.0281 29.5001 39.0281C36.1072 39.0281 42.6299 40.5125 48.5864 43.3716L51.1907 44.6219L48.5308 48.6119C42.5548 45.8925 36.0654 44.4854 29.4998 44.4854C22.9342 44.4854 16.4448 45.8925 10.4689 48.6119L7.80904 44.6219L10.4137 43.3716ZM29.5001 37.1844C24.2923 37.1917 19.1232 38.0785 14.2108 39.8075C12.1499 36.7658 11.0529 33.174 11.0626 29.5C11.0626 19.3334 19.3335 11.0625 29.5001 11.0625C39.6666 11.0625 47.9376 19.3334 47.9376 29.5C47.9464 33.1739 46.8492 36.7654 44.7888 39.8073C39.8765 38.0784 34.7076 37.1917 29.5001 37.1844ZM35.8806 46.7994C31.7621 48.3168 27.2377 48.3168 23.1192 46.7994C27.3499 46.1723 31.6499 46.1723 35.8806 46.7994ZM8.09021 54.5498L8.29556 50.753C8.30757 50.5317 8.2394 50.3134 8.10355 50.1382C7.96769 49.963 7.77326 49.8426 7.55587 49.7991L5.28471 49.345L7.75419 47.8633L9.37369 50.2927C9.49663 50.477 9.68189 50.611 9.89553 50.6699C10.1092 50.7288 10.3369 50.7089 10.537 50.6136C11.154 50.3197 11.7783 50.0408 12.4099 49.7766L13.447 51.3323L8.09021 54.5498ZM15.5892 51.246C15.5688 51.2 15.5447 51.1557 15.5171 51.1136L14.1647 49.0855C16.0478 48.3896 17.9758 47.8219 19.9356 47.3863C22.8784 48.9587 26.1635 49.7813 29.5001 49.7813C32.8366 49.7813 36.1217 48.9587 39.0645 47.3863C41.0243 47.8216 42.9524 48.3891 44.8356 49.0849L43.4832 51.113C43.4556 51.1551 43.4315 51.1993 43.4111 51.2453C39.2574 53.9008 34.4303 55.3119 29.5002 55.3119C24.5702 55.3119 19.7431 53.9008 15.5893 51.2453L15.5892 51.246ZM53.7154 49.3446L51.4443 49.7988C51.2269 49.8423 51.0324 49.9626 50.8966 50.1378C50.7607 50.313 50.6926 50.5313 50.7046 50.7527L50.9099 54.5494L45.5532 51.3323L46.5903 49.7766C47.2213 50.0414 47.8456 50.3204 48.4633 50.6136C48.6634 50.709 48.8913 50.7291 49.105 50.6702C49.3188 50.6112 49.5042 50.4772 49.6271 50.2927L51.2466 47.8633L53.7154 49.3446ZM51.6335 42.7887L49.3843 41.7091C48.458 41.2645 47.5164 40.8518 46.5597 40.4709C48.6714 37.2022 49.7904 33.3915 49.7813 29.5C49.7813 18.3169 40.6832 9.21875 29.5001 9.21875C18.3169 9.21875 9.21881 18.3169 9.21881 29.5C9.20869 33.3917 10.3274 37.2028 12.4395 40.4716C11.4841 40.8525 10.543 41.2652 9.61626 41.7094L7.36769 42.7887C5.0172 38.8718 3.74825 34.4014 3.69038 29.8337C3.63252 25.2661 4.78783 20.7649 7.03834 16.7898C9.28885 12.8146 12.554 9.50787 16.5003 7.20718C20.4466 4.9065 24.9328 3.69427 29.5008 3.69427C34.0688 3.69427 38.555 4.9065 42.5013 7.20718C46.4477 9.50787 49.7128 12.8146 51.9633 16.7898C54.2138 20.7649 55.3691 25.2661 55.3112 29.8337C55.2534 34.4014 53.9844 38.8718 51.6339 42.7887H51.6335Z" fill="#00A0E3"/>
<path d="M38.2578 22.125H33.1875C32.9431 22.1247 32.7088 22.0275 32.5359 21.8547C32.3631 21.6819 32.2659 21.4475 32.2656 21.2031V18.4375C32.2648 17.7043 31.9731 17.0013 31.4546 16.4829C30.9362 15.9644 30.2332 15.6727 29.5 15.6719H27.6562C27.4118 15.6719 27.1773 15.769 27.0044 15.9419C26.8315 16.1148 26.7344 16.3493 26.7344 16.5938V18.6257C26.7363 19.3221 26.6 20.0119 26.3335 20.6553C26.067 21.2987 25.6755 21.8828 25.1817 22.3738L24.5087 23.0469H19.3594C19.1149 23.0469 18.8804 23.144 18.7075 23.3169C18.5346 23.4898 18.4375 23.7243 18.4375 23.9688V34.1094C18.4375 34.3539 18.5346 34.5884 18.7075 34.7612C18.8804 34.9341 19.1149 35.0312 19.3594 35.0312H35.4922C35.8655 35.0313 36.2332 34.9407 36.5638 34.7673C36.8943 34.5938 37.1778 34.3426 37.3898 34.0353C37.6018 33.728 37.736 33.3738 37.7808 33.0032C37.8256 32.6326 37.7797 32.2567 37.6471 31.9077C38.0961 31.6237 38.4331 31.1933 38.6011 30.6893C38.7691 30.1853 38.7578 29.6387 38.5689 29.1421C39.0179 28.8581 39.355 28.4276 39.523 27.9236C39.691 27.4196 39.6796 26.873 39.4908 26.3765C39.9125 26.1093 40.236 25.7124 40.4127 25.2456C40.5894 24.7787 40.6098 24.2671 40.4707 23.7877C40.3317 23.3083 40.0408 22.887 39.6417 22.5872C39.2426 22.2873 38.757 22.1251 38.2578 22.125ZM20.2812 24.8906H23.9687V33.1875H20.2812V24.8906ZM38.2578 24.8906H37.3359C37.0914 24.8906 36.857 24.9878 36.6841 25.1606C36.5112 25.3335 36.4141 25.568 36.4141 25.8125C36.4141 26.057 36.5112 26.2915 36.6841 26.4644C36.857 26.6372 37.0914 26.7344 37.3359 26.7344C37.4582 26.7344 37.5754 26.7829 37.6619 26.8694C37.7483 26.9558 37.7969 27.0731 37.7969 27.1953C37.7969 27.3176 37.7483 27.4348 37.6619 27.5212C37.5754 27.6077 37.4582 27.6562 37.3359 27.6562H36.4141C36.1696 27.6562 35.9351 27.7534 35.7622 27.9263C35.5893 28.0991 35.4922 28.3336 35.4922 28.5781C35.4922 28.8226 35.5893 29.0571 35.7622 29.23C35.9351 29.4029 36.1696 29.5 36.4141 29.5C36.5363 29.5 36.6535 29.5486 36.74 29.635C36.8264 29.7214 36.875 29.8387 36.875 29.9609C36.875 30.0832 36.8264 30.2004 36.74 30.2869C36.6535 30.3733 36.5363 30.4219 36.4141 30.4219H35.4922C35.2477 30.4219 35.0132 30.519 34.8403 30.6919C34.6674 30.8648 34.5703 31.0993 34.5703 31.3438C34.5703 31.5882 34.6674 31.8227 34.8403 31.9956C35.0132 32.1685 35.2477 32.2656 35.4922 32.2656C35.6144 32.2656 35.7317 32.3142 35.8181 32.4006C35.9046 32.4871 35.9531 32.6043 35.9531 32.7266C35.9531 32.8488 35.9046 32.9661 35.8181 33.0525C35.7317 33.1389 35.6144 33.1875 35.4922 33.1875H25.8125V24.3505L26.4856 23.6777C27.1511 23.0157 27.6787 22.2284 28.0378 21.3613C28.397 20.4941 28.5807 19.5643 28.5781 18.6257V17.5156H29.5C29.7444 17.5159 29.9787 17.6131 30.1516 17.7859C30.3244 17.9588 30.4216 18.1931 30.4219 18.4375V21.2031C30.4227 21.9364 30.7144 22.6393 31.2328 23.1578C31.7513 23.6762 32.4543 23.9679 33.1875 23.9688H38.2578C38.3801 23.9688 38.4973 24.0173 38.5837 24.1038C38.6702 24.1902 38.7187 24.3074 38.7187 24.4297C38.7187 24.5519 38.6702 24.6692 38.5837 24.7556C38.4973 24.8421 38.3801 24.8906 38.2578 24.8906Z" fill="#00A0E3"/>
<path d="M27.5878 41.5074L28.4405 42.127L28.1148 43.1295C28.0922 43.199 28.0921 43.2738 28.1147 43.3432C28.1372 43.4127 28.1812 43.4733 28.2403 43.5162C28.2994 43.5591 28.3705 43.5822 28.4436 43.5822C28.5166 43.5822 28.5877 43.5591 28.6468 43.5161L29.4995 42.8965L30.3523 43.5161C30.4114 43.5591 30.4825 43.5822 30.5555 43.5822C30.6286 43.5822 30.6997 43.5591 30.7588 43.5162C30.8179 43.4733 30.8619 43.4127 30.8844 43.3432C30.907 43.2738 30.9069 43.199 30.8843 43.1295L30.5586 42.127L31.4113 41.5074C31.4703 41.4644 31.5143 41.4039 31.5369 41.3345C31.5594 41.2651 31.5594 41.1903 31.5369 41.1209C31.5143 41.0514 31.4704 40.9909 31.4113 40.948C31.3523 40.9051 31.2811 40.882 31.2081 40.882H30.1541L29.8283 39.8794C29.8057 39.81 29.7618 39.7495 29.7027 39.7066C29.6437 39.6637 29.5725 39.6406 29.4995 39.6406C29.4266 39.6406 29.3554 39.6637 29.2964 39.7066C29.2373 39.7495 29.1934 39.81 29.1708 39.8794L28.845 40.882H27.791C27.718 40.882 27.6468 40.9051 27.5878 40.948C27.5287 40.9909 27.4848 41.0514 27.4622 41.1209C27.4397 41.1903 27.4397 41.2651 27.4622 41.3345C27.4848 41.4039 27.5288 41.4644 27.5878 41.5074Z" fill="#00A0E3"/>
<path d="M22.2685 42.1738L23.1212 42.7934L22.7954 43.7959C22.7728 43.8654 22.7728 43.9402 22.7953 44.0097C22.8179 44.0791 22.8619 44.1397 22.9209 44.1826C22.98 44.2256 23.0512 44.2487 23.1242 44.2487C23.1973 44.2486 23.2684 44.2255 23.3275 44.1826L24.1802 43.5629L25.0329 44.1826C25.092 44.2255 25.1632 44.2486 25.2362 44.2487C25.3092 44.2487 25.3804 44.2256 25.4395 44.1826C25.4986 44.1397 25.5425 44.0791 25.5651 44.0097C25.5876 43.9402 25.5876 43.8654 25.565 43.7959L25.2392 42.7934L26.0919 42.1738C26.151 42.1309 26.195 42.0704 26.2175 42.0009C26.2401 41.9315 26.2401 41.8567 26.2175 41.7873C26.195 41.7179 26.151 41.6574 26.092 41.6145C26.0329 41.5715 25.9618 41.5484 25.8888 41.5484H24.8346L24.509 40.5459C24.4864 40.4764 24.4425 40.4159 24.3834 40.3729C24.3243 40.33 24.2532 40.3069 24.1802 40.3069C24.1071 40.3069 24.036 40.33 23.9769 40.3729C23.9178 40.4159 23.8739 40.4764 23.8513 40.5459L23.5257 41.5484H22.4716C22.3986 41.5484 22.3275 41.5715 22.2685 41.6145C22.2094 41.6574 22.1654 41.7179 22.1429 41.7873C22.1203 41.8567 22.1203 41.9315 22.1429 42.0009C22.1655 42.0704 22.2094 42.1309 22.2685 42.1738Z" fill="#00A0E3"/>
<path d="M32.9081 42.1738L33.7609 42.7934L33.4351 43.7959C33.4125 43.8654 33.4124 43.9402 33.435 44.0097C33.4575 44.0791 33.5015 44.1397 33.5606 44.1826C33.6197 44.2256 33.6908 44.2487 33.7639 44.2487C33.8369 44.2486 33.9081 44.2255 33.9671 44.1826L34.8199 43.5629L35.6726 44.1826C35.7317 44.2255 35.8028 44.2486 35.8759 44.2487C35.9489 44.2487 36.02 44.2256 36.0791 44.1826C36.1382 44.1397 36.1822 44.0791 36.2047 44.0097C36.2273 43.9402 36.2272 43.8654 36.2046 43.7959L35.8789 42.7934L36.7316 42.1738C36.7907 42.1309 36.8346 42.0704 36.8572 42.0009C36.8797 41.9315 36.8797 41.8567 36.8572 41.7873C36.8346 41.7178 36.7906 41.6573 36.7315 41.6144C36.6725 41.5715 36.6013 41.5484 36.5283 41.5484H35.4743L35.1486 40.5459C35.1261 40.4764 35.0821 40.4159 35.0231 40.3729C34.964 40.33 34.8928 40.3069 34.8198 40.3069C34.7468 40.3069 34.6756 40.33 34.6166 40.3729C34.5575 40.4159 34.5135 40.4764 34.491 40.5459L34.1653 41.5484H33.1113C33.0383 41.5484 32.9672 41.5715 32.9081 41.6145C32.849 41.6574 32.8051 41.7179 32.7825 41.7873C32.76 41.8567 32.76 41.9315 32.7825 42.0009C32.8051 42.0704 32.8491 42.1309 32.9081 42.1738Z" fill="#00A0E3"/>
</svg>
