<svg width="57" height="57" viewBox="0 0 57 57" fill="none" xmlns="http://www.w3.org/2000/svg">
<g clip-path="url(#clip0_28_514)">
<path d="M19.2324 28.3447C19.8473 28.3447 20.3457 27.8463 20.3457 27.2314C20.3457 26.6166 19.8473 26.1182 19.2324 26.1182C18.6176 26.1182 18.1191 26.6166 18.1191 27.2314C18.1191 27.8463 18.6176 28.3447 19.2324 28.3447Z" fill="#00A0E3"/>
<path d="M27.6549 17.4231C24.2663 17.4231 21.1493 19.1276 19.3169 21.9828C18.9842 22.5012 19.1348 23.1912 19.6532 23.524C20.1717 23.8566 20.8617 23.7061 21.1945 23.1877C22.6146 20.9749 25.0297 19.6539 27.6551 19.6539C31.8845 19.6539 35.3253 23.0948 35.3253 27.3242C35.3253 31.5535 31.8844 34.9945 27.6551 34.9945C24.9584 34.9945 22.5086 33.6182 21.1021 31.3129C20.7811 30.787 20.0947 30.6207 19.5688 30.9417C19.0429 31.2626 18.8767 31.949 19.1976 32.4749C21.0126 35.4495 24.1743 37.2254 27.6551 37.2254C33.1146 37.2254 37.5564 32.7837 37.5564 27.3241C37.5564 21.8644 33.1145 17.4231 27.6549 17.4231Z" fill="#00A0E3"/>
<path d="M53.255 38.0389L54.7254 34.6096C54.9681 34.0435 54.7061 33.3878 54.1401 33.1449L48.9065 30.8996C49.2799 28.7032 49.3082 26.4845 48.9907 24.2815L54.276 22.1684C54.8479 21.9398 55.1262 21.2909 54.8978 20.7189L51.9485 13.3346C51.8387 13.0599 51.6243 12.8399 51.3523 12.7232C51.0804 12.6066 50.7733 12.6027 50.4985 12.7125L45.2124 14.8256C43.9235 13.0093 42.3731 11.4204 40.5883 10.0869L42.8335 4.85397C43.0764 4.28786 42.8143 3.63203 42.2483 3.38911L34.9421 0.253555C34.6701 0.136884 34.3631 0.132987 34.0883 0.242757C33.8136 0.352526 33.5937 0.566944 33.477 0.838807L31.2316 6.07256C29.0336 5.69939 26.814 5.67123 24.6115 5.98829L22.4982 0.701651C22.2696 0.129647 21.6202 -0.148562 21.0485 0.0798835L13.6642 3.03141C13.3894 3.14118 13.1696 3.3556 13.053 3.62758C12.9364 3.89944 12.9325 4.20659 13.0424 4.48124L15.1555 9.76754C13.3432 11.0542 11.7547 12.6039 10.4177 14.3897L5.18374 12.1442C4.91188 12.0276 4.60484 12.0237 4.32997 12.1335C4.05521 12.2433 3.83534 12.4577 3.71878 12.7297L0.584332 20.0393C0.341525 20.6056 0.603703 21.2613 1.16981 21.5041L6.40312 23.7482C6.02961 25.9453 6.00178 28.1643 6.31985 30.3675L1.03376 32.4806C0.461871 32.7093 0.183439 33.3582 0.411885 33.9302L3.36119 41.3134C3.47096 41.5881 3.68538 41.8081 3.95735 41.9247C4.22922 42.0415 4.53637 42.0452 4.81113 41.9354L10.0972 39.8222C11.3863 41.6387 12.9365 43.2278 14.7214 44.5618L12.4763 49.795C12.2335 50.3612 12.4954 51.0171 13.0615 51.2599L20.3689 54.3954C20.6408 54.5119 20.9479 54.5159 21.2227 54.4061C21.4974 54.2963 21.7173 54.0818 21.8339 53.8099L24.0784 48.5761C26.2783 48.9489 28.4974 48.9773 30.6983 48.6606L32.8115 53.9472C32.9859 54.3835 33.4048 54.6489 33.8476 54.6489C33.9855 54.6489 34.1256 54.6232 34.2613 54.569L37.441 53.2981C39.458 55.5675 42.3971 57.0001 45.665 57.0001C51.7319 57.0001 56.6677 52.0642 56.6677 45.9973C56.6677 42.8704 55.3564 40.0439 53.255 38.0389ZM34.4691 52.0835L32.4369 46.9998C32.2392 46.5052 31.7195 46.2192 31.1955 46.3175C28.6885 46.7877 26.1461 46.7554 23.6391 46.2213C23.1178 46.1104 22.5915 46.3831 22.3815 46.8726L20.2233 51.9053L14.9663 49.6496L17.1255 44.6166C17.3357 44.1266 17.1698 43.5565 16.7297 43.2558C14.6177 41.8127 12.8422 39.9928 11.4526 37.8471C11.1631 37.3996 10.5973 37.2198 10.1023 37.4176L5.01898 39.4496L2.89729 34.1382L7.9812 32.1059C8.47605 31.908 8.76194 31.3877 8.66342 30.8639C8.19127 28.3534 8.22322 25.8119 8.75838 23.3099C8.86982 22.7888 8.59706 22.2616 8.10722 22.0515L3.0743 19.8932L5.32947 14.6341L10.3623 16.7932C10.8513 17.0031 11.4212 16.8379 11.7223 16.3986C13.1709 14.284 14.9905 12.509 17.1307 11.1226C17.578 10.8328 17.7579 10.2673 17.5601 9.77233L15.5279 4.68898L20.8406 2.56551L22.8728 7.64919C23.0705 8.14394 23.5904 8.42994 24.1142 8.33152C26.624 7.86072 29.1661 7.89311 31.6702 8.4276C32.1914 8.53904 32.7181 8.26606 32.9281 7.77655L35.0873 2.74374L40.3434 4.99947L38.1841 10.0325C37.9739 10.5225 38.1398 11.0927 38.5801 11.3935C40.692 12.8359 42.4673 14.6553 43.8569 16.801C44.1466 17.2485 44.7122 17.4284 45.2072 17.2305L50.2905 15.1985L52.4123 20.511L47.3295 22.5432C46.8347 22.7409 46.5489 23.2611 46.6472 23.7848C47.1185 26.2953 47.0862 28.8365 46.5512 31.3378C46.4397 31.8589 46.7125 32.3861 47.2021 32.5963L52.2352 34.7556L51.4312 36.6308C49.7533 35.594 47.7778 34.9947 45.6648 34.9947C39.5978 34.9947 34.662 39.9305 34.662 45.9974C34.662 47.9725 35.1855 49.8274 36.1003 51.4314L34.4691 52.0835ZM45.665 54.7691C40.8281 54.7691 36.8931 50.8341 36.8931 45.9973C36.8931 41.1605 40.8281 37.2255 45.665 37.2255C50.5018 37.2255 54.4368 41.1605 54.4368 45.9973C54.4368 50.8341 50.5018 54.7691 45.665 54.7691Z" fill="#00A0E3"/>
<path d="M51.281 42.0552C50.8161 41.6507 50.1116 41.6999 49.7074 42.1647L44.8844 47.7094L42.1568 45.2654C41.6979 44.8543 40.9927 44.893 40.5816 45.3518C40.1705 45.8106 40.2092 46.5158 40.668 46.927L44.2387 50.1263C44.4439 50.3101 44.7092 50.411 44.9831 50.411C45.0061 50.411 45.0293 50.4103 45.0524 50.4088C45.3506 50.3903 45.6288 50.2529 45.8247 50.0276L51.3906 43.6289C51.7949 43.1641 51.7458 42.4595 51.281 42.0552Z" fill="#00A0E3"/>
</g>
<defs>
<clipPath id="clip0_28_514">
<rect width="57" height="57" fill="white"/>
</clipPath>
</defs>
</svg>
