<svg width="19" height="19" viewBox="0 0 19 19" fill="none" xmlns="http://www.w3.org/2000/svg">
<path fill-rule="evenodd" clip-rule="evenodd" d="M9.49984 0.791672C4.69046 0.791672 0.791504 4.69063 0.791504 9.5C0.791504 14.3094 4.69046 18.2083 9.49984 18.2083C14.3092 18.2083 18.2082 14.3094 18.2082 9.5C18.2082 4.69063 14.3092 0.791672 9.49984 0.791672ZM13.2745 8.0275C13.344 7.94806 13.3969 7.85551 13.4301 7.7553C13.4633 7.6551 13.4762 7.54927 13.4679 7.44403C13.4596 7.3388 13.4303 7.23628 13.3818 7.14252C13.3333 7.04876 13.2666 6.96565 13.1855 6.89807C13.1044 6.83049 13.0106 6.77981 12.9096 6.74901C12.8087 6.71822 12.7025 6.70793 12.5975 6.71874C12.4925 6.72956 12.3907 6.76127 12.2982 6.81201C12.2056 6.86274 12.1241 6.93148 12.0585 7.01417L8.65434 11.0984L6.89288 9.33613C6.74357 9.19192 6.54359 9.11213 6.33602 9.11393C6.12845 9.11573 5.92989 9.19899 5.78311 9.34577C5.63632 9.49255 5.55307 9.69111 5.55126 9.89869C5.54946 10.1063 5.62925 10.3062 5.77346 10.4555L8.14846 12.8305C8.22625 12.9083 8.31938 12.969 8.42192 13.0087C8.52445 13.0485 8.63415 13.0664 8.74401 13.0614C8.85387 13.0564 8.96148 13.0286 9.06 12.9797C9.15851 12.9308 9.24575 12.862 9.31617 12.7775L13.2745 8.0275Z" fill="#00A0E3"/>
</svg>
