<svg width="117" height="27" viewBox="0 0 117 27" fill="none" xmlns="http://www.w3.org/2000/svg">
<g clip-path="url(#clip0_28_25)">
<path d="M62.7659 0.00012207C61.1977 0.00012207 59.9263 1.27501 59.9263 2.84757V24.1529C59.9263 25.7255 61.1977 27.0004 62.7659 27.0004H84.0128C85.5811 27.0004 86.8525 25.7255 86.8525 24.1529V2.84757C86.8525 1.27501 85.5811 0.00012207 84.0128 0.00012207H62.7659V0.00012207Z" fill="#00A0E3"/>
<path d="M32.5964 0.00012207C31.0245 0.00012207 29.7505 1.27763 29.7505 2.85385V24.1383C29.7505 25.7145 31.0245 26.992 32.5964 26.992H53.8224C55.3943 26.992 56.6683 25.7145 56.6683 24.1383V2.85385C56.6683 1.27763 55.3943 0.00012207 53.8224 0.00012207H32.5964V0.00012207Z" fill="#00A0E3"/>
<path d="M92.9739 0.00012207C91.4057 0.00012207 90.1343 1.27501 90.1343 2.84757V24.0923C90.1343 25.6648 91.4057 26.9397 92.9739 26.9397H114.16C115.729 26.9397 117 25.6648 117 24.0923V2.84757C117 1.27501 115.729 0.00012207 114.16 0.00012207H92.9739V0.00012207Z" fill="#00A0E3"/>
<path d="M2.83964 0.0304565C1.27139 0.0304565 0 1.30535 0 2.8779V24.1231C0 25.6957 1.27139 26.9706 2.83964 26.9706H24.026C25.5943 26.9706 26.8657 25.6957 26.8657 24.1231V2.8779C26.8657 1.30535 25.5943 0.0304565 24.026 0.0304565H2.83964Z" fill="#CB2F23"/>
<path d="M13.4326 18.8447C14.6513 18.8447 15.7542 18.3492 16.5529 17.5488C17.3511 16.7484 17.8452 15.642 17.8452 14.4199C17.8452 13.1979 17.3511 12.092 16.5529 11.291C15.7547 10.4906 14.6513 9.99523 13.4326 9.99523C12.2144 9.99523 11.111 10.4906 10.3128 11.291C9.51462 12.0914 9.02057 13.1979 9.02057 14.4199C9.02057 15.642 9.51462 16.7479 10.3128 17.5488C11.111 18.3492 12.2144 18.8447 13.4326 18.8447ZM18.633 19.6351C17.3021 20.9696 15.4636 21.7957 13.4326 21.7957C11.4022 21.7957 9.56314 20.9702 8.23228 19.6351C6.90141 18.3006 6.07764 16.4565 6.07764 14.4205C6.07764 12.3844 6.90089 10.5403 8.23228 9.20581C9.56314 7.87128 11.4022 7.04524 13.4326 7.04524C15.4631 7.04524 17.3021 7.87076 18.633 9.20581C19.9638 10.5403 20.7876 12.3844 20.7876 14.4205C20.7876 16.4565 19.9644 18.3006 18.633 19.6351Z" fill="#FEFEFE"/>
<path d="M14.9038 6.0314V14.4199H11.9614V6.0314H14.9038Z" fill="#FEFEFE"/>
<path d="M16.1361 6.0314V14.4199H14.9038V6.0314H16.1361Z" fill="#C7271C"/>
<path d="M11.9622 6.0314V14.4199H10.73V6.0314H11.9622Z" fill="#C7271C"/>
<path d="M98.8374 6.38974C98.046 6.38974 97.4043 7.0332 97.4043 7.8268V20.3576C97.4043 21.1512 98.046 21.7951 98.8374 21.7951H108.296C109.088 21.7951 109.73 21.1517 109.73 20.3576V7.8268C109.73 7.0332 109.088 6.38974 108.296 6.38974H98.8374Z" fill="#FEFEFE"/>
<path d="M37.2974 6.65393C36.3077 6.65393 35.5059 7.458 35.5059 8.45039V19.0162C35.5059 20.0086 36.3077 20.8127 37.2974 20.8127H49.1218C50.111 20.8127 50.9133 20.0086 50.9133 19.0162V8.45039C50.9133 7.458 50.111 6.65393 49.1218 6.65393H37.2974Z" fill="#FEFEFE"/>
<path d="M39.5359 11.8178C39.0413 11.8178 38.6401 12.2196 38.6401 12.7161V17.4437C38.6401 17.9396 39.0408 18.3419 39.5359 18.3419H46.8825C47.3771 18.3419 47.7783 17.9396 47.7783 17.4437V12.7161C47.7783 12.2201 47.3771 11.8178 46.8825 11.8178H39.5359Z" fill="#FEFEFE"/>
<path d="M39.5359 12.2929C39.4191 12.2929 39.3137 12.3399 39.2375 12.4168C39.1614 12.4932 39.1139 12.5989 39.1139 12.7161V17.4437C39.1139 17.5614 39.1608 17.6676 39.2365 17.744L39.2375 17.7429C39.3137 17.8193 39.4191 17.8669 39.5359 17.8669H46.8826C47.0005 17.8669 47.1054 17.8204 47.1805 17.745C47.2566 17.6686 47.3041 17.5619 47.3041 17.4437V12.7161C47.3041 12.5984 47.2572 12.4922 47.1815 12.4158C47.1054 12.3399 46.9994 12.2929 46.8826 12.2929H39.5359ZM38.5671 11.7446C38.8149 11.4961 39.1577 11.3423 39.5359 11.3423H46.8826C47.2593 11.3423 47.6015 11.4961 47.8493 11.7446L47.8514 11.7462C48.0992 11.9947 48.2526 12.3373 48.2526 12.7156V17.4432C48.2526 17.8214 48.0992 18.1641 47.8514 18.4125C47.6025 18.6626 47.2598 18.8169 46.8831 18.8169H39.5365C39.1582 18.8169 38.816 18.6631 38.5682 18.4146V18.4125C38.3204 18.1641 38.167 17.8209 38.167 17.4432V12.7156C38.167 12.3363 38.3204 11.9931 38.5682 11.7446H38.5671Z" fill="#00A0E3"/>
<path d="M98.4243 17.9726H99.2596V13.5003H98.4243V17.9726Z" fill="#00A0E3"/>
<path d="M98.4243 10.8751H99.2596V7.85872H98.4243V10.8751Z" fill="#00A0E3"/>
<path d="M96.355 11.7436H110.446V12.5042H96.355V11.7436Z" fill="#00A0E3"/>
<path d="M39.3272 9.98005C39.6934 9.98005 39.9908 9.68238 39.9908 9.31514C39.9908 8.94789 39.6934 8.6497 39.3272 8.6497C38.9609 8.6497 38.6636 8.94737 38.6636 9.31514C38.6636 9.68238 38.9604 9.98005 39.3272 9.98005Z" fill="#00A0E3"/>
<path d="M41.9151 9.98005C42.2813 9.98005 42.5787 9.68238 42.5787 9.31514C42.5787 8.94789 42.2818 8.6497 41.9151 8.6497C41.5488 8.6497 41.2515 8.94737 41.2515 9.31514C41.2515 9.68238 41.5488 9.98005 41.9151 9.98005Z" fill="#00A0E3"/>
<path d="M44.5035 9.98005C44.8697 9.98005 45.1665 9.68238 45.1665 9.31514C45.1665 8.94789 44.8697 8.6497 44.5035 8.6497C44.1372 8.6497 43.8398 8.94737 43.8398 9.31514C43.8398 9.68238 44.1367 9.98005 44.5035 9.98005Z" fill="#00A0E3"/>
<path d="M47.0918 9.98005C47.4581 9.98005 47.7554 9.68238 47.7554 9.31514C47.7554 8.94789 47.4586 8.6497 47.0918 8.6497C46.7256 8.6497 46.4282 8.94737 46.4282 9.31514C46.4282 9.68238 46.7251 9.98005 47.0918 9.98005Z" fill="#00A0E3"/>
<path d="M79.751 7.59349C78.466 6.305 76.0041 6.68584 74.2507 8.44359C72.4977 10.2013 72.1185 12.6706 73.4029 13.9585C74.6873 15.2465 77.1498 14.8662 78.9027 13.1084C80.6556 11.3507 81.0349 8.88146 79.7505 7.59349H79.751Z" fill="#FEFEFE"/>
<path d="M79.4411 7.90476C78.9037 7.36592 78.1029 7.17864 77.2436 7.31151C76.3359 7.45172 75.3702 7.94399 74.5616 8.75486L74.561 8.75538C73.7524 9.56625 73.2615 10.5346 73.1217 11.4448C72.9897 12.307 73.1764 13.1095 73.7133 13.6478C74.2506 14.1866 75.0514 14.3739 75.9107 14.241C76.8185 14.1008 77.7841 13.608 78.5928 12.7972C79.4019 11.9863 79.8929 11.0174 80.0327 10.1077C80.1652 9.24608 79.9784 8.44359 79.4411 7.90423V7.90476ZM80.0614 7.28222C80.8084 8.03135 81.074 9.10798 80.8997 10.2421C80.7328 11.3277 80.1574 12.4728 79.2136 13.4197C78.2693 14.3666 77.1273 14.9436 76.0442 15.111C74.9132 15.2857 73.84 15.0195 73.093 14.2703C72.3459 13.5212 72.0803 12.4456 72.2546 11.3125V11.3109C72.4215 10.2254 72.997 9.08025 73.9407 8.13337L73.9413 8.13284C74.885 7.18649 76.027 6.60946 77.1101 6.44206C78.2411 6.26733 79.3143 6.53361 80.0614 7.28274V7.28222Z" fill="#00A0E3"/>
<path d="M79.7505 20.5035C81.0354 19.215 80.6556 16.7463 78.9027 14.9881C77.1498 13.2303 74.6873 12.85 73.4029 14.138C72.1185 15.4259 72.4977 17.8952 74.2507 19.6529C76.0036 21.4107 78.466 21.791 79.7505 20.503V20.5035Z" fill="#FEFEFE"/>
<path d="M79.4405 20.1923C79.9779 19.6534 80.1647 18.8509 80.0327 17.9888C79.8929 17.0791 79.4014 16.1102 78.5933 15.2993L78.5928 15.2988C77.7841 14.4879 76.819 13.9957 75.9128 13.8555H75.9112C75.052 13.7226 74.2517 13.9099 73.7143 14.4487C73.177 14.9875 72.9902 15.79 73.1227 16.6522C73.2625 17.5619 73.754 18.5308 74.5621 19.3416C75.3707 20.1525 76.3369 20.6448 77.2442 20.785C78.1039 20.9173 78.9042 20.73 79.4411 20.1917L79.4405 20.1923ZM80.0614 20.8143C79.3143 21.5634 78.2417 21.8297 77.1116 21.655H77.1101C76.0276 21.4876 74.8855 20.9105 73.9413 19.9642C72.997 19.0173 72.4215 17.8721 72.2546 16.7866C72.0803 15.6525 72.3459 14.5764 73.093 13.8272C73.84 13.0781 74.9137 12.8113 76.0442 12.9865C77.1278 13.1545 78.2698 13.7315 79.2131 14.6773L79.2136 14.6778C80.1574 15.6247 80.7328 16.7699 80.8997 17.8554V17.857C81.074 18.9901 80.8079 20.0657 80.0614 20.8148V20.8143Z" fill="#00A0E3"/>
<path d="M73.375 13.9873C72.0901 12.6988 69.6281 13.0797 67.8747 14.8374C66.1218 16.5952 65.7425 19.0644 67.0269 20.3523C68.3114 21.6403 70.7738 21.26 72.5267 19.5022C74.2797 17.7445 74.6589 15.2753 73.3745 13.9873H73.375Z" fill="#FEFEFE"/>
<path d="M73.0648 14.2986C72.5274 13.7597 71.7271 13.5725 70.8674 13.7053C69.9596 13.8455 68.9939 14.3383 68.1853 15.1492L68.1848 15.1497C67.3761 15.9606 66.8857 16.9284 66.7459 17.8371V17.8387C66.6134 18.7003 66.8002 19.5028 67.3375 20.0416C67.8754 20.581 68.6757 20.7677 69.5349 20.6348C70.4427 20.4946 71.4084 20.0024 72.217 19.1915C73.0257 18.3806 73.5166 17.4123 73.6564 16.502C73.7884 15.6394 73.6022 14.8369 73.0658 14.2981L73.0648 14.2986ZM70.7338 12.8354C71.8649 12.6606 72.938 12.9269 73.6851 13.676V13.6776C74.4317 14.4262 74.6972 15.5013 74.5235 16.6339V16.6354C74.3565 17.721 73.7811 18.8661 72.8373 19.813C71.893 20.7599 70.751 21.3369 69.668 21.5043C68.5369 21.679 67.4638 21.4127 66.7167 20.6636C65.9696 19.9145 65.7035 18.8384 65.8783 17.7042C66.0458 16.6177 66.6212 15.473 67.5639 14.5272L67.5645 14.5267C68.5087 13.5798 69.6508 13.0028 70.7338 12.8354Z" fill="#00A0E3"/>
<path d="M73.3745 14.1097C74.6589 12.8212 74.2797 10.3525 72.5267 8.59426C70.7738 6.83651 68.3114 6.45619 67.0269 7.74416C65.7425 9.03213 66.1218 11.5013 67.8747 13.2591C69.6276 15.0168 72.0901 15.3972 73.3745 14.1092V14.1097Z" fill="#FEFEFE"/>
<path d="M73.0648 13.7985C73.6022 13.2596 73.7889 12.4571 73.6564 11.595V11.5934C73.5166 10.6847 73.0257 9.71639 72.217 8.90553L72.2165 8.905C71.4079 8.09414 70.4427 7.60239 69.5365 7.46219H69.535C68.6757 7.32931 67.8754 7.51659 67.3381 8.05543C66.8002 8.59426 66.6139 9.39728 66.7459 10.2589V10.2605C66.8857 11.1692 67.3767 12.137 68.1853 12.9483C68.9939 13.7592 69.9596 14.252 70.8674 14.3922C71.7266 14.5251 72.5269 14.3378 73.0648 13.799V13.7985ZM74.5235 11.4611C74.6983 12.5952 74.4322 13.6713 73.6851 14.4205C72.938 15.1696 71.8644 15.4359 70.7338 15.2611C69.6508 15.0937 68.5088 14.5167 67.565 13.5704C66.6218 12.6245 66.0463 11.4794 65.8789 10.3923C65.7041 9.25812 65.9696 8.18203 66.7172 7.43289C67.4643 6.68375 68.5375 6.41695 69.6685 6.5922C70.7521 6.76013 71.8936 7.33716 72.8368 8.28247L72.8373 8.28299C73.7806 9.22883 74.356 10.374 74.5235 11.4611Z" fill="#00A0E3"/>
<path d="M73.4958 15.7791C74.4364 15.7791 75.1987 15.0142 75.1987 14.0715C75.1987 13.1283 74.4359 12.364 73.4958 12.364C72.5552 12.364 71.793 13.1288 71.793 14.0715C71.793 15.0147 72.5557 15.7791 73.4958 15.7791Z" fill="#FEFEFE"/>
<path d="M73.4956 15.7785C73.9651 15.7785 74.3908 15.5871 74.6991 15.2779C75.0075 14.9687 75.1984 14.5418 75.1984 14.071C75.1984 13.6002 75.0075 13.1733 74.6991 12.8641C74.3908 12.5549 73.9651 12.3635 73.4956 12.3635C73.026 12.3635 72.6003 12.5549 72.292 12.8641C71.9837 13.1733 71.7927 13.6002 71.7927 14.071C71.7927 14.5418 71.9837 14.9687 72.292 15.2779C72.6003 15.5871 73.026 15.7785 73.4956 15.7785ZM75.0784 15.6587C74.6731 16.0652 74.1128 16.3174 73.4956 16.3174C72.8779 16.3174 72.3176 16.0652 71.9122 15.6587C71.5068 15.2522 71.2554 14.6904 71.2554 14.0715C71.2554 13.4521 71.5068 12.8908 71.9122 12.4843C72.3176 12.0778 72.8779 11.8257 73.4956 11.8257C74.1133 11.8257 74.6731 12.0778 75.0784 12.4843C75.4838 12.8908 75.7353 13.4526 75.7353 14.0715C75.7353 14.6909 75.4838 15.2522 75.0784 15.6587Z" fill="#00A0E3"/>
<path d="M73.4954 15.2407C73.8167 15.2407 74.1084 15.1094 74.3197 14.8981C74.531 14.6867 74.6614 14.3943 74.6614 14.0715C74.6614 13.7493 74.5304 13.4563 74.3197 13.245C74.1089 13.0331 73.8173 12.9023 73.4954 12.9023C73.174 12.9023 72.8824 13.0336 72.6711 13.245C72.4603 13.4563 72.3294 13.7493 72.3294 14.0715C72.3294 14.3938 72.4598 14.6867 72.6711 14.8981C72.8824 15.1094 73.174 15.2407 73.4959 15.2407H73.4954ZM74.4459 15.0247C74.2023 15.269 73.8663 15.4202 73.4954 15.4202C73.1244 15.4202 72.7879 15.269 72.5443 15.0247C72.3007 14.7804 72.1499 14.443 72.1499 14.0715C72.1499 13.6996 72.3007 13.3622 72.5443 13.1178C72.7879 12.8735 73.1244 12.7224 73.4954 12.7224C73.8658 12.7224 74.2023 12.8735 74.4459 13.1178C74.6896 13.3622 74.8403 13.6996 74.8403 14.0715C74.8403 14.443 74.6896 14.7804 74.4459 15.0247Z" fill="#00A0E3"/>
</g>
<defs>
<clipPath id="clip0_28_25">
<rect width="117" height="27" fill="white"/>
</clipPath>
</defs>
</svg>
