<svg width="65" height="65" viewBox="0 0 65 65" fill="none" xmlns="http://www.w3.org/2000/svg">
<path d="M32.5 6.09375C17.875 6.09375 6.09375 17.875 6.09375 32.5C6.09375 47.125 17.875 58.9062 32.5 58.9062C47.125 58.9062 58.9062 47.125 58.9062 32.5C58.9062 29.6603 58.5244 26.8267 57.5088 24.1841L54.21 27.4219C54.6162 29.0469 54.8458 30.6759 54.8458 32.5C54.8458 44.8947 44.8967 54.8438 32.502 54.8438C20.1073 54.8438 10.1562 44.8947 10.1562 32.5C10.1562 20.1053 20.1053 10.1562 32.5 10.1562C38.5938 10.1562 44.068 12.5836 47.9253 16.4409L50.7812 13.585C46.1094 8.90906 39.6094 6.09375 32.5 6.09375ZM55.4145 14.7895L32.5 37.7061L23.8042 29.0083L20.8833 31.9292L31.0395 42.0855L32.5 43.4809L33.9605 42.0855L58.3355 17.7105L55.4145 14.7895Z" fill="#00A0E3"/>
</svg>
