<svg width="36" height="36" viewBox="0 0 36 36" fill="none" xmlns="http://www.w3.org/2000/svg">
<path d="M4.0797 0H31.9202C33.0421 0 34.0623 0.459116 34.8016 1.19861C35.5409 1.93811 35.9999 2.95867 35.9999 4.08088V31.9191C35.9999 33.042 35.5409 34.0619 34.8016 34.8014C34.0623 35.5409 33.0421 36 31.9202 36H4.0797C2.95782 36 1.93755 35.5409 1.19827 34.8014C0.458984 34.0619 0 33.0413 0 31.9191V4.08088C0 2.95799 0.458984 1.93811 1.19827 1.19861C1.93755 0.459116 2.95782 0 4.0797 0V0ZM31.9202 0.721078H4.0797C3.15628 0.721078 2.31674 1.09901 1.70772 1.70821C1.0987 2.31741 0.72087 3.15719 0.72087 4.08088V31.9191C0.72087 32.8428 1.0987 33.6826 1.70772 34.2918C2.31674 34.901 3.15628 35.2789 4.0797 35.2789H31.9202C32.8436 35.2789 33.6831 34.901 34.2922 34.2918C34.9012 33.6826 35.279 32.8428 35.279 31.9191V4.08088C35.279 3.15719 34.9012 2.31741 34.2922 1.70821C33.6831 1.09901 32.8436 0.721078 31.9202 0.721078Z" fill="#222"/>
<path fill-rule="evenodd" clip-rule="evenodd" d="M13.8612 23.3943L12.7529 24.5022C12.4269 24.829 11.8957 24.829 11.569 24.5022L10.0393 22.972C9.7126 22.6459 9.7126 22.1138 10.0393 21.7877L11.1496 20.6771C10.9893 20.366 10.8536 20.04 10.7465 19.7016H9.17587C8.71416 19.7016 8.33838 19.3257 8.33838 18.8639V16.6999C8.33838 16.2381 8.71416 15.8622 9.17587 15.8622H10.7506C10.8584 15.5252 10.9941 15.2005 11.1543 14.8914L10.0393 13.7761C9.71328 13.45 9.71328 12.9179 10.0393 12.5918L11.569 11.0616C11.8957 10.7348 12.4269 10.7348 12.7529 11.0616L13.8701 12.1791C14.179 12.0194 14.5023 11.885 14.8385 11.7779V10.198C14.8385 9.73612 15.2143 9.36023 15.676 9.36023H17.8393C18.301 9.36023 18.6761 9.73612 18.6761 10.198V11.7779C19.0123 11.885 19.3356 12.0201 19.6445 12.1791L20.7616 11.0616C21.0876 10.7348 21.6196 10.7348 21.9456 11.0616L23.4753 12.5918C23.8013 12.9179 23.8013 13.45 23.4753 13.7761L22.3602 14.8914C22.5205 15.2012 22.6562 15.5259 22.764 15.8622H24.3387C24.8004 15.8622 25.1762 16.2381 25.1762 16.6999V18.8639C25.1762 19.3257 24.8004 19.7016 24.3387 19.7016H22.7681C22.6603 20.04 22.5253 20.366 22.365 20.6771L23.4753 21.7877C23.8013 22.1138 23.8013 22.6459 23.4753 22.972L21.9456 24.5022C21.6196 24.829 21.0876 24.829 20.7616 24.5022L19.6541 23.3943C19.3424 23.556 19.0157 23.6917 18.6761 23.8002V25.3665C18.6761 25.8284 18.3003 26.2036 17.8393 26.2036H15.676C15.2143 26.2036 14.8385 25.8277 14.8385 25.3665V23.8002C14.4995 23.6917 14.1722 23.556 13.8612 23.3943Z" fill="white"/>
<path d="M13.9341 23.8315L13.0079 24.758C12.7747 24.9913 12.4678 25.1086 12.1609 25.1086C11.854 25.1086 11.5478 24.9919 11.3139 24.758L9.78415 23.2278C9.55091 22.9945 9.4336 22.6875 9.4336 22.3805C9.4336 22.0742 9.55022 21.7672 9.78415 21.5332L10.713 20.6041C10.6721 20.5161 10.6326 20.426 10.5944 20.3346C10.5575 20.2459 10.5228 20.1552 10.4893 20.0624H9.17513C8.84504 20.0624 8.54564 19.928 8.32877 19.7111C8.11189 19.4942 7.97754 19.1947 7.97754 18.8645V16.7006C7.97754 16.3704 8.11189 16.0709 8.32877 15.854C8.54564 15.637 8.84504 15.5026 9.17513 15.5026H10.4934C10.5268 15.4105 10.5623 15.3198 10.5991 15.2318C10.6366 15.1424 10.6755 15.0531 10.7171 14.9651L9.78415 14.0318V14.0305C9.55091 13.7972 9.43428 13.4909 9.43428 13.1852C9.43428 12.8796 9.55091 12.5733 9.78415 12.34V12.3386L11.3139 10.8085H11.3152C11.5485 10.5752 11.8547 10.4578 12.1609 10.4578C12.4664 10.4578 12.7727 10.5745 13.0066 10.8085H13.0079L13.9436 11.7444C14.0303 11.7042 14.1189 11.6653 14.2096 11.6278C14.2976 11.5916 14.3869 11.5568 14.4783 11.5234V10.1993C14.4783 9.86909 14.6127 9.56961 14.8296 9.35267C15.0464 9.13573 15.3458 9.00134 15.6759 9.00134H17.8392C18.1693 9.00134 18.4687 9.13573 18.6856 9.35267C18.9024 9.56961 19.0368 9.86909 19.0368 10.1993V11.5234C19.1282 11.5568 19.2182 11.5916 19.3055 11.6278C19.3955 11.6653 19.4842 11.7042 19.5715 11.7444L20.5072 10.8085H20.5085C20.7418 10.5752 21.0487 10.4578 21.3542 10.4578C21.6598 10.4578 21.966 10.5745 22.1999 10.8085H22.2013L23.731 12.3386V12.34C23.9642 12.5733 24.0808 12.8796 24.0808 13.1852C24.0808 13.4909 23.9642 13.7972 23.731 14.0305V14.0318L22.798 14.9651C22.8396 15.0531 22.8785 15.1418 22.916 15.2318C22.9528 15.3205 22.9883 15.4105 23.0217 15.5033H24.34C24.6701 15.5033 24.9695 15.6377 25.1864 15.8547C25.4032 16.0716 25.5376 16.3711 25.5376 16.7013V18.8652C25.5376 19.1954 25.4032 19.4948 25.1864 19.7118C24.9695 19.9287 24.6701 20.0631 24.34 20.0631H23.0258C22.9924 20.1559 22.9576 20.2466 22.9208 20.3353C22.8826 20.4267 22.8437 20.5168 22.8021 20.6048L23.731 21.5339V21.5353C23.9642 21.7686 24.0808 22.0749 24.0808 22.3805C24.0808 22.6861 23.9642 22.9924 23.731 23.2257V23.2271L22.2013 24.7573C21.968 24.9906 21.6611 25.1079 21.3542 25.1079C21.0473 25.1079 20.7411 24.9913 20.5072 24.7573L19.581 23.8309C19.4917 23.8725 19.4023 23.9127 19.3116 23.9496C19.223 23.9864 19.1309 24.0219 19.0361 24.056V25.3658C19.0361 25.696 18.9018 25.9955 18.6849 26.2124C18.468 26.4293 18.1686 26.5637 17.8385 26.5637H15.6752C15.3451 26.5637 15.0458 26.4293 14.8289 26.2124C14.612 25.9955 14.4776 25.696 14.4776 25.3658V24.056C14.3829 24.0219 14.2915 23.9864 14.2021 23.9496C14.1121 23.912 14.0221 23.8725 13.9327 23.8309L13.9341 23.8315ZM12.4985 24.2484L13.7922 22.9542L14.0255 23.0757C14.1714 23.1514 14.3228 23.2217 14.479 23.2865C14.6386 23.3526 14.7948 23.4106 14.9469 23.4591L15.1985 23.5396V25.3678C15.1985 25.4988 15.2517 25.6182 15.3383 25.7048C15.4249 25.7915 15.5436 25.8447 15.6752 25.8447H17.8385C17.9695 25.8447 18.0888 25.7915 18.1754 25.7048C18.262 25.6182 18.3152 25.4988 18.3152 25.3678V23.5396L18.5676 23.4591C18.7197 23.4106 18.8758 23.3526 19.0354 23.2865C19.1916 23.2217 19.3423 23.1514 19.489 23.0757L19.7229 22.9542L21.0166 24.2484C21.1094 24.3411 21.2315 24.3875 21.3542 24.3875C21.4763 24.3875 21.5984 24.3411 21.6911 24.2484L23.2208 22.7182L23.2215 22.7189C23.3136 22.6261 23.36 22.504 23.36 22.3812C23.36 22.2584 23.3136 22.1363 23.2215 22.0435L23.2208 22.0442L21.9251 20.748L22.0458 20.514C22.1228 20.3646 22.1931 20.2139 22.2558 20.0624C22.3199 19.9069 22.3772 19.7507 22.427 19.5944L22.5068 19.342H24.3393C24.4703 19.342 24.5896 19.2888 24.6762 19.2022C24.7628 19.1155 24.816 18.9968 24.816 18.8652V16.7013C24.816 16.5696 24.7628 16.4509 24.6762 16.3643C24.5896 16.2776 24.4703 16.2244 24.3393 16.2244H22.5027L22.4222 15.974C22.3724 15.8192 22.3152 15.6636 22.2504 15.5081C22.1863 15.3532 22.116 15.2032 22.041 15.0579L21.9196 14.8239L23.2202 13.5229L23.2208 13.5236C23.3129 13.4308 23.3593 13.3087 23.3593 13.1859C23.3593 13.0631 23.3129 12.941 23.2208 12.8482L23.2202 12.8489L21.6904 11.3188L21.6911 11.3181C21.5984 11.226 21.4763 11.1796 21.3535 11.1796C21.2308 11.1796 21.108 11.226 21.0153 11.3181L21.016 11.3188L19.7133 12.6217L19.4794 12.501C19.3307 12.4246 19.1814 12.355 19.032 12.2929C18.8772 12.2288 18.7224 12.1715 18.5676 12.1224L18.3152 12.0419V10.2C18.3152 10.0683 18.262 9.94959 18.1754 9.86295C18.0888 9.77631 17.9695 9.7231 17.8385 9.7231H15.6752C15.5436 9.7231 15.4249 9.77631 15.3383 9.86295C15.2517 9.94959 15.1985 10.069 15.1985 10.2V12.0419L14.9469 12.1224C14.792 12.1715 14.6372 12.2288 14.4824 12.2929C14.3324 12.355 14.183 12.4246 14.035 12.501L13.8011 12.6217L12.4985 11.3188L12.4992 11.3181C12.4064 11.226 12.2843 11.1796 12.1616 11.1796C12.0388 11.1796 11.9161 11.226 11.8233 11.3181L11.824 11.3188L10.2943 12.8489L10.2936 12.8482C10.2015 12.941 10.1552 13.0631 10.1552 13.1859C10.1552 13.3087 10.2008 13.4308 10.2936 13.5236L10.2943 13.5229L11.5948 14.8239L11.4741 15.0579C11.3991 15.2032 11.3289 15.3539 11.2641 15.5088C11.1993 15.6643 11.142 15.8199 11.0929 15.974L11.0124 16.2244H9.17581C9.04418 16.2244 8.92551 16.2783 8.8389 16.3643C8.75229 16.4509 8.69909 16.5703 8.69909 16.7013V18.8652C8.69909 18.9968 8.75229 19.1155 8.8389 19.2022C8.92551 19.2888 9.04486 19.342 9.17581 19.342H11.0083L11.0881 19.5944C11.1379 19.7507 11.1945 19.9069 11.2593 20.0624C11.3221 20.2139 11.3916 20.3646 11.4687 20.514L11.5894 20.748L10.2936 22.0442C10.2008 22.137 10.1545 22.2591 10.1545 22.3812C10.1545 22.5033 10.2008 22.6254 10.2936 22.7182L11.8233 24.2484C11.9161 24.3411 12.0381 24.3875 12.1609 24.3875C12.283 24.3875 12.4051 24.3411 12.4978 24.2484H12.4985Z" fill="white"/>
<path d="M14.989 12.1585V10.1986C14.989 10.0089 15.066 9.83769 15.1902 9.71284H15.1915C15.3156 9.58868 15.4875 9.5116 15.6757 9.5116H17.839C18.0273 9.5116 18.1984 9.58868 18.3232 9.71284H18.3246C18.4487 9.837 18.5258 10.0089 18.5258 10.1986V12.1585H17.8049V10.2327H15.7092V12.1585H14.9883H14.989Z" fill="#222"/>
<path d="M11.1352 19.5515H9.17652C8.98829 19.5515 8.8171 19.4744 8.6923 19.3502C8.56681 19.2247 8.48975 19.0535 8.48975 18.8645V16.7006C8.48975 16.5123 8.56749 16.3404 8.6923 16.2149C8.81642 16.0907 8.98829 16.0129 9.17652 16.0129H11.1352V16.734H9.20993V18.8304H11.1352V19.5515Z" fill="#222"/>
<path d="M11.5314 15.0566L10.1463 13.671C10.0133 13.538 9.94717 13.362 9.94717 13.1853H9.9458C9.9458 13.0107 10.0126 12.8347 10.1463 12.701V12.6996L11.676 11.1694C11.8097 11.0357 11.9857 10.9689 12.1616 10.9689C12.3376 10.9689 12.5135 11.0357 12.6472 11.1694L14.0323 12.555L13.5229 13.0646L12.1616 11.7029L10.6796 13.1853L12.0409 14.547L11.5314 15.0566Z" fill="#222"/>
<path d="M16.7578 11.6318C18.4573 11.6318 19.9966 12.3209 21.1103 13.4356C22.224 14.5496 22.9135 16.0893 22.9135 17.7893C22.9135 19.4893 22.2246 21.029 21.1103 22.1431C19.9959 23.2571 18.4573 23.9468 16.7578 23.9468C15.0575 23.9468 13.519 23.2578 12.4053 22.1431C11.2915 21.0284 10.6021 19.4893 10.6021 17.7893C10.6021 16.0886 11.2909 14.5496 12.4053 13.4356C13.519 12.3215 15.0582 11.6318 16.7578 11.6318ZM20.6008 13.9452C19.6174 12.9614 18.2581 12.3529 16.7578 12.3529C15.2567 12.3529 13.8981 12.9614 12.9147 13.9452C11.9313 14.9289 11.3229 16.2878 11.3229 17.7893C11.3229 19.2908 11.9313 20.6497 12.9147 21.6335C13.8981 22.6172 15.2567 23.2257 16.7578 23.2257C18.2588 23.2257 19.6174 22.6172 20.6008 21.6335C21.5842 20.6497 22.1926 19.2901 22.1926 17.7893C22.1926 16.2878 21.5842 14.9289 20.6008 13.9452Z" fill="#222"/>
<path d="M15.7099 23.4072V25.3331H17.8057V23.4072H18.5266V25.3672C18.5266 25.5561 18.4495 25.728 18.3254 25.8529H18.324C18.1999 25.977 18.028 26.0541 17.8398 26.0541H15.6765C15.4883 26.0541 15.3171 25.977 15.1923 25.8529H15.1909C15.0668 25.7287 14.9897 25.5568 14.9897 25.3672V23.4072H15.7106H15.7099Z" fill="#222"/>
<path d="M22.3804 18.8311H24.3056V16.7348H22.3804V16.0137H24.3397C24.528 16.0137 24.6992 16.0908 24.824 16.2156C24.9495 16.3404 25.0272 16.5124 25.0272 16.7013V18.8652C25.0272 19.0535 24.9495 19.2254 24.824 19.351C24.6998 19.4751 24.528 19.5522 24.3397 19.5522H22.3804V18.8311Z" fill="#222"/>
<path d="M19.9924 22.5007L21.3536 23.8623L22.8356 22.3799L21.4743 21.0183L21.9838 20.5087C22.1031 20.6281 23.3689 21.8915 23.3689 21.8956C23.5026 22.0293 23.5694 22.2053 23.5694 22.3799C23.5694 22.5559 23.5026 22.7313 23.3689 22.8656L21.8392 24.3958H21.8378C21.7042 24.5295 21.5282 24.5964 21.3536 24.5964C21.1777 24.5964 21.0017 24.5295 20.868 24.3958L19.4829 23.0103L19.9924 22.5007Z" fill="#222"/>
<path d="M19.4829 12.555L20.868 11.1694H20.8694C21.0031 11.0357 21.179 10.9689 21.3536 10.9689C21.5296 10.9689 21.7055 11.0357 21.8392 11.1694C21.9708 11.3011 23.3689 12.6969 23.3689 12.701C23.5026 12.8347 23.5694 13.0107 23.5694 13.1853C23.5694 13.3613 23.5026 13.5373 23.3689 13.671L21.9838 15.0566L21.4743 14.547L22.8356 13.1853L21.3536 11.7029L19.9924 13.0646L19.4829 12.555Z" fill="#222"/>
<path d="M12.0409 21.0188L10.6796 22.3804L12.1616 23.8628L13.5229 22.5012L14.0323 23.0108L12.6472 24.3963C12.5135 24.53 12.3376 24.5969 12.1616 24.5969C11.987 24.5969 11.8111 24.53 11.6774 24.3963H11.676L10.1463 22.8661C10.0126 22.7324 9.9458 22.5564 9.9458 22.3804H9.94717C9.94717 22.2044 10.0133 22.0291 10.1463 21.8961V21.8947L11.5314 20.5092L12.0409 21.0188Z" fill="#222"/>
<path d="M16.7576 13.5686C17.9225 13.5686 18.9775 14.0414 19.7413 14.8047C20.5052 15.5688 20.9771 16.6235 20.9771 17.7893C20.9771 18.9545 20.5052 20.0099 19.7413 20.7739C18.9775 21.538 17.9225 22.0101 16.7576 22.0101C15.5928 22.0101 14.5377 21.538 13.7739 20.7739C13.01 20.0099 12.5381 18.9552 12.5381 17.7893C12.5381 16.6241 13.0107 15.5688 13.7739 14.8047C14.5377 14.0407 15.5928 13.5686 16.7576 13.5686ZM19.2319 15.3143C18.599 14.6813 17.724 14.289 16.7576 14.289C15.7912 14.289 14.9162 14.6806 14.2833 15.3143C13.6504 15.9474 13.2583 16.8227 13.2583 17.7893C13.2583 18.756 13.6497 19.6306 14.2833 20.2643C14.9162 20.8974 15.7912 21.2897 16.7576 21.2897C17.724 21.2897 18.5983 20.8981 19.2319 20.2643C19.8648 19.6313 20.2569 18.756 20.2569 17.7893C20.2569 16.8227 19.8655 15.9474 19.2319 15.3143Z" fill="#222"/>
<path fill-rule="evenodd" clip-rule="evenodd" d="M21.8775 25.0342C21.7582 25.168 21.6183 25.2901 21.4976 25.4142C21.3919 25.5234 21.2842 25.6298 21.1744 25.7355C21.1669 25.7424 21.1594 25.7499 21.1512 25.7574C21.158 25.7969 21.1648 25.8372 21.1689 25.8802C21.2242 26.3891 21.1553 26.9 20.9827 27.3817C20.7072 28.1498 20.1207 28.8259 19.3944 29.1997C18.5303 29.6438 17.5502 29.7223 16.6391 29.375C15.8657 29.0803 15.1885 28.493 14.8182 27.7494C13.7331 25.5718 15.2117 22.9774 17.6546 22.8587C17.8653 22.8485 18.0447 22.8744 18.2391 22.8935C18.2963 22.8355 18.3577 22.7598 18.4048 22.7121C18.5835 22.532 18.7581 22.3478 18.9381 22.1683C19.1066 22.0005 19.4353 21.6512 19.6753 21.5489C19.4046 21.2808 19.1352 21.012 18.8665 20.7426L16.8771 18.7499C16.5948 18.7976 16.2838 18.8611 16.0232 18.7219C15.8173 18.6121 15.7184 18.4327 15.6072 18.2396C15.5083 18.067 15.4108 17.8937 15.3106 17.7225C15.1073 17.3746 14.902 17.0273 14.7063 16.6746C14.6606 16.5921 14.6054 16.5157 14.5604 16.4304C14.4267 16.1753 14.3796 15.8901 14.516 15.6248C14.5931 15.4754 14.883 15.2004 15.0078 15.0763C15.1407 14.9432 15.419 14.6513 15.5847 14.5783C15.8575 14.4582 16.1017 14.5039 16.3492 14.6444C16.9555 14.9883 17.5516 15.3526 18.162 15.6889C18.3168 15.7742 18.4471 15.8356 18.5623 15.9802C18.7294 16.1896 18.7478 16.4379 18.709 16.6931C18.6967 16.7715 18.6776 16.8629 18.6633 16.9496C19.2614 17.5376 19.8506 18.1386 20.4426 18.7328C20.7761 19.0671 21.1096 19.4007 21.4438 19.7343C21.5024 19.5822 21.6061 19.4382 21.7404 19.3202C21.8291 19.2424 21.913 19.1517 21.9975 19.0623C21.9962 19.0596 21.9948 19.0569 21.9934 19.0541C21.8073 18.636 21.69 18.1987 21.6927 17.7382C21.6947 17.4169 21.7561 17.099 21.8707 16.7988C22.3024 15.6698 23.7864 14.8969 24.896 14.6056C25.1593 14.5367 25.4928 14.5087 25.7642 14.5019C26.1529 14.4916 26.6972 14.5135 26.9713 14.8293C27.1214 15.0019 27.193 15.2188 27.1555 15.4467C27.1064 15.7469 26.9366 15.886 26.7408 16.0818L25.8242 16.9987C25.7772 17.0458 25.6817 17.129 25.6033 17.2047L26.6563 18.2539C26.6856 18.2833 26.7306 18.3344 26.7756 18.3822C26.8527 18.3044 26.9311 18.2157 26.9945 18.1523L27.9132 17.2368C27.9909 17.1597 28.0496 17.0874 28.1376 17.0164C28.4513 16.7647 28.8462 16.7388 29.1606 17.0157C29.4422 17.2641 29.4947 17.7668 29.5015 18.1229C29.5234 19.2479 28.7739 20.9445 27.9098 21.6676C27.429 22.0694 26.882 22.2884 26.2498 22.2823C25.9313 22.2795 25.6121 22.2216 25.31 22.1206C25.2343 22.0954 25.1593 22.0694 25.0856 22.0408C25.3809 22.2243 25.6046 22.4781 25.8856 22.7605C26.6747 23.5552 27.4774 24.337 28.2617 25.1373C28.3858 25.2635 28.514 25.3863 28.6388 25.5118C28.7855 25.6591 28.9621 25.8317 29.0808 26.0009C29.7164 26.9028 29.6291 28.1621 28.8427 28.9432C28.4676 29.3157 27.9541 29.5872 27.4167 29.5865C27.0941 29.5858 26.8588 29.6008 26.5437 29.491C26.3057 29.4078 26.1025 29.3014 25.8999 29.1526C25.7294 29.0271 25.5808 28.8661 25.4307 28.7167C25.2991 28.5857 25.1681 28.4548 25.0365 28.3238C24.7739 28.0618 24.5127 27.7999 24.2509 27.5379C23.723 27.0112 23.1951 26.4846 22.6693 25.9566C22.3638 25.6496 22.0821 25.4224 21.8755 25.0329L21.8775 25.0342Z" fill="white"/>
<path fill-rule="evenodd" clip-rule="evenodd" d="M23.0795 21.6908C23.059 21.7284 23.0133 21.7468 22.9929 21.8259C22.939 22.0313 23.0924 22.1302 23.2322 22.2714C23.3857 22.4256 23.5385 22.5954 23.6967 22.7394C23.9313 22.9529 24.0329 22.7162 24.4516 22.884C24.6337 22.957 24.8458 23.204 24.9638 23.322L27.7866 26.1469C28.0608 26.4191 28.4713 26.72 28.4495 27.3681C28.4311 27.9261 28.086 28.3245 27.6754 28.478C27.0446 28.714 26.5938 28.3961 26.3033 28.1055L23.488 25.2894C23.3298 25.1291 23.1825 24.9811 23.0222 24.8214C22.8837 24.6836 22.701 24.4797 22.7303 24.1583C22.7617 23.8227 22.791 23.9093 22.437 23.5566C22.345 23.4652 22.0483 23.1439 21.9514 23.0921C21.6582 22.9345 21.5838 23.3895 21.2701 23.0702C21.2101 23.0088 21.0792 22.9065 21.0621 22.7987C21.0348 22.6302 21.1501 22.5511 21.221 22.4801C21.5402 22.1636 21.8437 21.8559 22.1629 21.5387C22.3463 21.3566 22.512 21.1205 22.703 21.1396C22.8135 21.1506 23.207 21.4507 23.0788 21.6895L23.0795 21.6908ZM15.5564 16.0368C15.5802 15.9939 15.9042 15.6671 15.9587 15.6357C16.2663 15.7906 16.8808 16.176 17.2327 16.367C17.3534 16.4325 17.541 16.5321 17.648 16.6099C17.6528 16.7259 17.603 16.9783 17.5833 17.1031C17.5457 17.3405 17.5969 17.3651 17.7183 17.4858L20.4688 20.2364C20.5554 20.3224 21.5232 21.2672 21.5627 21.345L21.2626 21.6383C21.1787 21.5926 20.8077 21.1963 20.7061 21.096C20.5186 20.9111 20.3453 20.7337 20.1578 20.5475C19.7882 20.1798 19.4274 19.8216 19.0611 19.4498L17.4162 17.8037C17.2968 17.6836 17.262 17.6243 17.0083 17.6632C16.8924 17.6809 16.6401 17.7314 16.5316 17.7253L16.0372 16.8753C15.9519 16.7245 15.8762 16.5935 15.7923 16.4482C15.7098 16.3049 15.6327 16.1862 15.5564 16.0362V16.0368ZM20.8548 22.0463C20.7852 22.167 20.584 22.2496 20.5152 22.5613C20.4592 22.8144 20.5315 23.0764 20.6502 23.2319C20.7429 23.3527 20.9516 23.5628 21.088 23.6453C21.3479 23.8016 21.5047 23.7395 21.7891 23.7006C21.8485 23.7674 21.9153 23.8309 21.9821 23.8971C22.0306 23.9448 22.156 24.0492 22.167 24.1099C22.1956 24.2716 22.1369 24.4592 22.2911 24.7682C22.4704 25.1271 22.7787 25.372 23.0181 25.6121C23.5466 26.1442 24.0663 26.662 24.5983 27.1921C24.8649 27.4581 25.118 27.7119 25.3846 27.9779C25.5197 28.113 25.6424 28.2358 25.7781 28.3702C25.8968 28.4882 26.0598 28.6615 26.1921 28.7584C26.3455 28.8709 26.4949 28.9555 26.707 29.0292C26.9525 29.1152 27.1408 29.0967 27.419 29.0967C27.8794 29.0974 28.2776 28.8157 28.4986 28.596C29.0735 28.025 29.2133 27.0386 28.6814 26.2841C28.5498 26.0978 28.099 25.6708 27.9128 25.4811C27.1373 24.6898 26.323 23.8964 25.5394 23.1064C25.1909 22.7551 24.9195 22.401 24.3971 22.285C24.2702 22.2571 24.1318 22.2734 24.0322 22.253C23.964 22.2387 23.6939 21.9269 23.6182 21.8689C23.6612 21.5728 23.7199 21.4384 23.563 21.169C23.4934 21.0496 23.2554 20.8095 23.1518 20.7283C22.9028 20.5345 22.4629 20.5161 22.1895 20.7296C22.0981 20.8006 22.0537 20.8804 21.9664 20.9329C21.8832 20.8804 18.6465 17.6182 18.2673 17.2464C18.1091 17.0915 18.1418 17.1502 18.2243 16.616C18.2775 16.2708 18.15 16.2401 17.9256 16.116C17.3418 15.7933 16.7055 15.4072 16.1074 15.0688C16.0133 15.0156 15.9158 14.9665 15.7828 15.0251C15.7044 15.0593 14.9842 15.7851 14.9521 15.8472C14.8498 16.0457 15.0517 16.2858 15.1342 16.4346C15.3279 16.7832 15.5304 17.1256 15.733 17.4735C15.836 17.6502 15.9287 17.8146 16.0317 17.9934C16.2534 18.3788 16.2343 18.3515 16.8774 18.2512C17.0765 18.2199 17.0506 18.2267 17.1604 18.3379L19.2132 20.3947C19.4922 20.6689 19.7547 20.9363 20.033 21.212C20.1517 21.33 20.8057 21.9712 20.8541 22.0456L20.8548 22.0463Z" fill="#222"/>
<path fill-rule="evenodd" clip-rule="evenodd" d="M22.5914 19.1707C22.4864 19.2519 22.1952 19.5732 22.0642 19.6885C21.6755 20.0303 21.9954 20.2861 22.1945 20.2663C22.3425 20.2513 22.5212 20.0337 22.6023 19.9491C22.721 19.8263 22.8342 19.7185 22.9549 19.5971C23.3675 19.1823 23.2789 19.2348 22.9931 18.6966C22.9113 18.5431 22.8397 18.3487 22.7988 18.172C22.5696 17.1821 23.1411 16.648 23.6642 16.2946C24.1341 15.9774 25.05 15.5408 25.7757 15.538L24.9559 16.3751C24.7875 16.5443 24.602 16.6896 24.5174 16.9345C24.4574 17.1091 24.4574 17.3261 24.5167 17.4987C24.5801 17.6828 24.6858 17.7722 24.7922 17.878L26.1092 19.1966C26.371 19.4579 26.6779 19.61 27.079 19.4647C27.3968 19.3501 28.2554 18.3173 28.4457 18.2027C28.4675 18.818 28.0808 19.6653 27.8346 20.0896C27.555 20.5712 27.1287 21.1361 26.4481 21.22C25.9175 21.2855 25.421 21.0706 24.9907 20.8237C24.78 20.7029 24.6954 20.7336 24.5447 20.8769C24.4294 20.986 24.3435 21.0733 24.233 21.1866C24.1539 21.2678 23.965 21.4158 24.0905 21.6252C24.1634 21.746 24.3598 21.8156 24.5058 21.7064C24.6081 21.63 24.7254 21.484 24.8304 21.3906C24.9048 21.4097 25.048 21.4922 25.1332 21.5304C25.2451 21.5809 25.3453 21.6157 25.466 21.6559C25.7047 21.7358 25.9748 21.7896 26.2544 21.7924C26.8423 21.7978 27.272 21.5625 27.5952 21.2916C28.3297 20.677 29.0302 19.127 29.0111 18.1331C29.007 17.9073 28.9701 17.5021 28.8365 17.384C28.5889 17.1657 28.3659 17.4795 28.2595 17.5839L27.3409 18.4994C27.2549 18.5847 26.9623 18.9067 26.8621 18.9381C26.6459 19.007 26.4904 18.7819 26.3104 18.6004L25.1701 17.4645C24.8454 17.1535 25.1475 16.9809 25.477 16.6507L26.3936 15.7331C26.4999 15.6267 26.8164 15.3975 26.6002 15.1492C26.3854 14.9022 25.3433 14.9936 25.0193 15.0782C24.083 15.3238 22.6965 16.0074 22.3275 16.972C22.2402 17.2012 22.1829 17.4604 22.1815 17.7388C22.1795 18.1351 22.2859 18.5063 22.44 18.8528C22.485 18.9531 22.5737 19.0827 22.5894 19.1693L22.5914 19.1707Z" fill="#222"/>
<path fill-rule="evenodd" clip-rule="evenodd" d="M20.2042 22.3581C20.2737 22.1554 20.0766 21.9426 19.8604 22.0026C19.7302 22.0388 18.8784 22.9311 18.7536 23.0573C18.6731 23.1392 18.463 23.4025 18.3498 23.395C18.1125 23.3793 17.9393 23.3356 17.6781 23.3486C15.5925 23.4502 14.3254 25.6612 15.257 27.5304C15.8537 28.7277 17.5076 29.6186 19.1703 28.7632C19.7452 28.4671 20.2724 27.9091 20.5213 27.2159C20.6584 26.8339 20.732 26.396 20.6816 25.9334C20.6297 25.4566 20.4927 25.7465 21.1453 25.0732C21.4072 24.8037 21.8642 24.4824 21.5559 24.2273C21.3779 24.0799 21.2176 24.1979 21.0833 24.3391C20.9626 24.4653 20.8473 24.5779 20.7232 24.7007C19.694 25.7192 20.0835 25.2662 20.1285 26.0583C20.1407 26.2779 20.1264 26.5181 20.0794 26.7248C19.6845 28.4644 17.6746 28.9862 16.5002 28.1212C16.1633 27.8729 16.016 27.703 15.806 27.3578C15.6307 27.07 15.5066 26.6095 15.5107 26.2063C15.5236 24.9531 16.4914 24.0137 17.586 23.9203C18.4767 23.8445 18.4276 24.1775 18.7754 23.8323L19.3224 23.2824C19.3585 23.2422 19.3715 23.2306 19.4131 23.1931L19.8611 22.7408C19.9443 22.648 20.1605 22.4815 20.2035 22.3574L20.2042 22.3581Z" fill="#222"/>
<path fill-rule="evenodd" clip-rule="evenodd" d="M16.7943 26.4846C16.7943 26.3891 16.9607 25.8454 17.005 25.6789C17.0439 25.5336 17.0357 25.4797 17.1032 25.4504L17.8875 25.2355C17.9837 25.2082 18.0594 25.1591 18.131 25.2287L18.6377 25.7376C18.8723 25.9716 18.8478 25.8938 18.7755 26.1735C18.7162 26.402 18.6391 26.752 18.5729 26.9532C18.3861 27.003 17.6611 27.2254 17.5315 27.2213L16.7936 26.4853L16.7943 26.4846ZM19.4186 25.9279C19.4507 25.7806 19.4029 25.7116 19.3272 25.6373L18.7216 25.0315C18.219 24.5233 18.339 24.5178 17.6707 24.7095C17.4531 24.7716 17.2471 24.8268 17.0296 24.8889C16.7656 24.964 16.6286 24.9449 16.5508 25.2089L16.2003 26.4778C16.1669 26.6217 16.2241 26.7124 16.2882 26.7786L16.8939 27.3844C17.0009 27.4915 17.1967 27.7125 17.3106 27.7869C17.4517 27.879 17.7927 27.748 17.9475 27.7043C18.1665 27.6429 18.3745 27.587 18.5913 27.529C18.8423 27.4622 19.0196 27.4649 19.0892 27.2248L19.42 25.9272L19.4186 25.9279Z" fill="#222"/>
<path fill-rule="evenodd" clip-rule="evenodd" d="M23.4702 23.946C23.595 24.0927 23.7567 24.2353 23.8951 24.3751L26.8447 27.3133L27.2321 26.9259L24.7108 24.3942C24.4884 24.1739 24.0636 23.7257 23.8658 23.5497C23.8085 23.5729 23.492 23.9024 23.4702 23.9454V23.946Z" fill="#222"/>
</svg>
