<svg width="36" height="36" viewBox="0 0 36 36" fill="none" xmlns="http://www.w3.org/2000/svg">
<path d="M4.0797 0H31.9202C33.0421 0 34.0623 0.459116 34.8016 1.19861C35.5409 1.93811 35.9999 2.95799 35.9999 4.08088V31.9191C35.9999 33.042 35.5409 34.0619 34.8016 34.8014C34.0623 35.5409 33.0421 36 31.9202 36H4.0797C2.95782 36 1.93755 35.5409 1.19827 34.8014C0.458984 34.0619 0 33.042 0 31.9191V4.08088C0 2.95799 0.458984 1.93811 1.19827 1.19861C1.93755 0.459116 2.95782 0 4.0797 0V0ZM31.9202 0.721078H4.0797C3.15628 0.721078 2.31674 1.09901 1.70772 1.70821C1.0987 2.31741 0.72087 3.15719 0.72087 4.08088V31.9191C0.72087 32.8428 1.0987 33.6826 1.70772 34.2918C2.31674 34.901 3.15628 35.2789 4.0797 35.2789H31.9202C32.8436 35.2789 33.6831 34.901 34.2922 34.2918C34.9012 33.6826 35.279 32.8428 35.279 31.9191V4.08088C35.279 3.15719 34.9012 2.31741 34.2922 1.70821C33.6831 1.09901 32.8436 0.721078 31.9202 0.721078Z" fill="#222222"/>
<path fill-rule="evenodd" clip-rule="evenodd" d="M19.7049 12.746C19.6558 12.5987 19.5174 12.5004 19.3646 12.5004H19.0734C20.1693 11.6293 20.8097 10.3045 20.8043 8.90256C20.807 7.06473 19.7431 5.39404 18.0756 4.6177C17.9631 4.56586 17.8335 4.57473 17.7326 4.6409C17.6289 4.70707 17.5682 4.81963 17.5682 4.94379V8.54168H14.6922V4.94652C14.6922 4.82509 14.6288 4.7098 14.5279 4.64363C14.4242 4.57745 14.2939 4.56859 14.1848 4.62043C12.561 5.36198 11.5053 6.96581 11.4589 8.74906C11.4159 10.535 12.3905 12.188 13.9741 13.0107V14.6582H13.0739C12.563 14.6582 12.102 14.97 11.9083 15.4427C11.7153 15.9162 11.8272 16.4585 12.1941 16.816C11.952 17.0527 11.8162 17.3754 11.8162 17.7165C11.8162 18.0542 11.952 18.3803 12.1941 18.617C11.952 18.8537 11.8162 19.1764 11.8162 19.5175C11.8162 19.8552 11.952 20.1813 12.1941 20.418C11.8278 20.7754 11.7153 21.3185 11.9083 21.7912C12.1013 22.2647 12.5603 22.573 13.0739 22.5764H13.9741V24.0159C13.9741 25.2076 14.9405 26.1743 16.1319 26.1743C17.3234 26.1743 18.2898 25.2076 18.2898 24.0159V22.5764H26.9197V21.8581H20.4442V15.3779H26.917V14.6596H20.3433L19.7056 12.7467L19.7049 12.746ZM19.5869 14.6589H18.2891V13.2188H19.1082L19.5869 14.6589ZM18.2857 5.55572C19.3039 6.22768 19.9586 7.32737 20.0684 8.54509H18.2857V5.55572ZM14.4808 12.4602C13.1686 11.8626 12.2889 10.5964 12.1818 9.15633C12.0754 7.71964 12.7615 6.33751 13.97 5.55299V8.89983C13.97 9.09903 14.1316 9.26071 14.3308 9.26071H20.0677C19.9381 10.6626 19.0611 11.8837 17.7776 12.4575C17.6507 12.5155 17.5668 12.6451 17.5668 12.7863V14.6562H16.4879V12.8586H15.7698V14.6562H14.6909V12.7863C14.6909 12.6451 14.607 12.5182 14.4801 12.4602H14.4808ZM12.531 21.3123C12.531 21.0149 12.7731 20.7727 13.0704 20.7727C13.2696 20.7727 13.4312 20.611 13.4312 20.4118C13.4312 20.2126 13.2696 20.051 13.0704 20.051C12.7731 20.051 12.531 19.8088 12.531 19.5113C12.531 19.2139 12.7731 18.9717 13.0704 18.9717C13.2696 18.9717 13.4312 18.81 13.4312 18.6108C13.4312 18.4116 13.2696 18.25 13.0704 18.25C12.7731 18.25 12.531 18.0078 12.531 17.7103C12.531 17.4129 12.7731 17.1707 13.0704 17.1707C13.2696 17.1707 13.4312 17.0091 13.4312 16.8099C13.4312 16.6107 13.2696 16.449 13.0704 16.449C12.7731 16.449 12.531 16.2068 12.531 15.9094C12.531 15.6119 12.7731 15.3697 13.0704 15.3697H19.722V21.8444H13.0704C12.7731 21.8499 12.531 21.6077 12.531 21.311V21.3123ZM17.5675 24.0097C17.5675 24.8058 16.9244 25.4498 16.1278 25.4498C15.3319 25.4498 14.6888 24.8065 14.6888 24.0097V22.5703H17.5648V24.0097H17.5675Z" fill="#222222"/>
<path fill-rule="evenodd" clip-rule="evenodd" d="M16.8469 24.0105C16.8469 24.4089 16.5237 24.7288 16.1288 24.7288C15.7305 24.7288 15.4106 24.4055 15.4106 24.0105C15.4106 23.6121 15.7339 23.2921 16.1288 23.2921C16.5271 23.2921 16.8469 23.6121 16.8469 24.0105Z" fill="#222222"/>
<path fill-rule="evenodd" clip-rule="evenodd" d="M14.689 10.3052H17.5649V11.0235H14.689V10.3052Z" fill="#222222"/>
<path fill-rule="evenodd" clip-rule="evenodd" d="M21.1616 20.0551C21.1616 20.6527 21.6431 21.1343 22.2405 21.1343C22.838 21.1343 23.3195 20.6527 23.3195 20.0551C23.3195 19.4575 22.838 18.9758 22.2405 18.9758C21.6465 18.9758 21.1616 19.4575 21.1616 20.0551ZM22.6006 20.0551C22.6006 20.2543 22.439 20.4159 22.2399 20.4159C22.0407 20.4159 21.8791 20.2543 21.8791 20.0551C21.8791 19.8559 22.0407 19.6942 22.2399 19.6942C22.439 19.6942 22.6006 19.8559 22.6006 20.0551Z" fill="#222222"/>
<path d="M6.15361 31.4089C6.0138 31.4089 5.86922 31.3946 5.72054 31.3666V30.799H6.09837C6.17953 30.799 6.23545 30.767 6.26614 30.7021C6.28046 30.6742 6.28728 30.6442 6.28728 30.6121C6.28728 30.58 6.28046 30.5514 6.26614 30.5261L5.11084 28.425H5.95106L6.70739 29.9169L7.33756 28.425H8.17778L7.10636 30.7363C7.00815 30.958 6.89085 31.1231 6.75377 31.2322C6.60237 31.3502 6.40254 31.4089 6.15293 31.4089H6.15361ZM10.5313 31.325C9.90664 31.3809 9.38832 31.4089 8.97708 31.4089C8.70292 31.4089 8.50105 31.3441 8.37215 31.2158C8.24325 31.0869 8.17914 30.885 8.17914 30.6107V29.2661C8.17914 28.9721 8.24598 28.7586 8.37897 28.6249C8.51196 28.4918 8.72542 28.425 9.02004 28.425H10.5327V29.013H9.1885C9.02073 29.013 8.93616 29.0969 8.93616 29.2654V30.6101C8.93616 30.6749 8.95526 30.7253 8.99276 30.7635C9.03096 30.8017 9.0787 30.8202 9.13803 30.8202C9.19668 30.8202 9.26147 30.8195 9.33104 30.8181C9.40128 30.8168 9.47357 30.8147 9.54927 30.812C9.62498 30.8093 9.70136 30.8065 9.77843 30.8038C9.85549 30.8011 9.95506 30.7956 10.0771 30.7867C10.1992 30.7786 10.3506 30.7683 10.5327 30.7574V31.325H10.5313ZM12.2964 31.3673H11.54V29.0137H10.6575V28.4257H13.1782V29.0137H12.2957V31.3673H12.2964ZM13.704 31.3673H12.8849L13.9986 28.4257H14.8388L15.9525 31.3673H15.1335L14.9446 30.842H13.8943L13.7054 31.3673H13.704ZM14.0818 30.2956H14.7543L14.418 29.3077L14.0818 30.2956ZM18.7249 31.3673H17.9685V30.1694H16.9182V31.3673H16.1619V28.4257H16.9182V29.5813H17.9685V28.4257H18.7249V31.3673ZM21.12 29.2238C21.12 29.0553 21.0361 28.9714 20.8677 28.9714H20.1536C19.9859 28.9714 19.9013 29.0553 19.9013 29.2238V30.5684C19.9013 30.7363 19.9852 30.8208 20.1536 30.8208H20.8677C21.0355 30.8208 21.12 30.7369 21.12 30.5684V29.2238ZM21.8764 30.5684C21.8764 30.8625 21.8102 31.076 21.6765 31.2097C21.5436 31.3427 21.3301 31.4096 21.0355 31.4096H19.9852C19.6912 31.4096 19.4778 31.3434 19.3441 31.2097C19.2111 31.0767 19.1443 30.8631 19.1443 30.5684V29.2238C19.1443 28.9298 19.2104 28.7163 19.3441 28.5826C19.4771 28.4495 19.6906 28.3827 19.9852 28.3827H21.0355C21.3294 28.3827 21.5429 28.4489 21.6765 28.5826C21.8095 28.7156 21.8764 28.9291 21.8764 29.2238V30.5684ZM22.2965 28.425H23.9769C24.2511 28.425 24.4529 28.4871 24.5818 28.6119C24.7107 28.7367 24.7749 28.9264 24.7749 29.1815C24.7749 29.3494 24.7387 29.4865 24.6657 29.5915C24.5928 29.6966 24.5034 29.7703 24.397 29.8119C24.6241 29.8733 24.7783 30.0247 24.8594 30.2655C24.8874 30.3522 24.9017 30.4531 24.9017 30.5684C24.9017 30.8427 24.8369 31.0446 24.7087 31.1735C24.5798 31.3025 24.3779 31.3666 24.1038 31.3666H22.2972V28.425H22.2965ZM24.1454 30.4422C24.1454 30.2737 24.0615 30.1898 23.893 30.1898H23.0528V30.7779H23.893C24.0615 30.7779 24.1454 30.694 24.1454 30.5255V30.4416V30.4422ZM24.0192 29.2654C24.0192 29.0969 23.9353 29.013 23.7669 29.013H23.0528V29.6018H23.7669C23.9346 29.6018 24.0192 29.5179 24.0192 29.3494V29.2654ZM27.4224 28.3827C27.4926 28.3827 27.6181 28.397 27.8002 28.425V28.9926H27.6317C27.5895 28.9926 27.5519 29.0055 27.5185 29.0321C27.4851 29.0587 27.4599 29.0874 27.4428 29.1181L27.0439 29.8746L27.8629 31.3666H27.065L26.4137 30.1687H26.0359V31.3666H25.2795V28.425H26.0359V29.5806H26.4137L26.8338 28.7818C26.8952 28.6638 26.9716 28.5682 27.063 28.4939C27.1537 28.4195 27.2737 28.3827 27.4224 28.3827ZM28.6411 31.3666H27.822L28.9357 28.425H29.7759L30.8896 31.3666H30.0706L29.8816 30.8413H28.8314L28.6425 31.3666H28.6411ZM29.0189 30.2949H29.6914L29.3551 29.3071L29.0189 30.2949Z" fill="#222222"/>
</svg>
