<?xml version="1.0" encoding="utf-8"?>
<!-- Generator: Adobe Illustrator 21.1.0, SVG Export Plug-In . SVG Version: 6.00 Build 0)  -->
<svg version="1.1" id="Layer_1" xmlns="http://www.w3.org/2000/svg" xmlns:xlink="http://www.w3.org/1999/xlink" x="0px" y="0px"
	 viewBox="0 0 448 448" style="enable-background:new 0 0 448 448;" xml:space="preserve">
<style type="text/css">
	.st0{opacity:0.75;fill:#FFFFFF;}
</style>
<path class="st0" d="M400,0H48C21.5,0,0,21.5,0,48v352c0,26.5,21.5,48,48,48h352c26.5,0,48-21.5,48-48V48C448,21.5,426.5,0,400,0z
	 M367.4,316.7h-34.1c-13,0-16.8-10.4-40-33.5c-20.3-19.5-29-22.1-34-22.1c-10.9,0-8.9,3.6-8.9,42.3c0,8.4-2.7,13.3-24.4,13.3
	c-36.1,0-75.9-22-104.1-62.4C79.6,194.9,68,150,68,141c0-5.1,2-9.7,11.7-9.7h34.1c8.7,0,12,3.8,15.4,13.3
	c16.7,48.7,44.8,91.2,56.4,91.2c4.3,0,6.3-2,6.3-13v-50.3c-1.3-23.2-13.6-25.1-13.6-33.3c0-3.8,3.2-7.8,8.7-7.8h53.6
	c7.2,0,9.6,3.9,9.6,12.6v67.6c0,7.2,3.3,9.8,5.4,9.8c4.3,0,8-2.5,15.9-10.5c24.6-27.5,41.9-69.8,41.9-69.8c2.1-5.1,6.1-9.7,14.8-9.7
	h34.1c10.3,0,12.5,5.3,10.3,12.6c-4.3,19.9-45.9,78.5-46,78.5c-3.6,5.8-5,8.7,0,15.2c2,2.8,45.8,44.4,52.3,64.6
	C382,311.8,377.1,316.7,367.4,316.7z"/>
</svg>
