<?xml version="1.0" encoding="utf-8"?>
<!-- Generator: Adobe Illustrator 21.1.0, SVG Export Plug-In . SVG Version: 6.00 Build 0)  -->
<svg version="1.1" id="Layer_1" xmlns="http://www.w3.org/2000/svg" xmlns:xlink="http://www.w3.org/1999/xlink" x="0px" y="0px"
	 viewBox="0 0 448 448" style="enable-background:new 0 0 448 448;" xml:space="preserve">
<style type="text/css">
	.st0{opacity:0.75;fill:#FFFFFF;}
</style>
<path class="st0" d="M186.8,170.1l95.2,54.1l-95.2,54.1V170.1z M448,48v352c0,26.5-21.5,48-48,48H48c-26.5,0-48-21.5-48-48V48
	C0,21.5,21.5,0,48,0h352C426.5,0,448,21.5,448,48z M406,224.3c0,0,0-59.6-7.6-88.2c-4.2-15.8-16.5-28.2-32.2-32.4
	C337.9,96,224,96,224,96s-113.9,0-142.2,7.7c-15.7,4.2-28,16.6-32.2,32.4C42,164.6,42,224.3,42,224.3s0,59.6,7.6,88.2
	c4.2,15.8,16.5,27.7,32.2,31.9C110.1,352,224,352,224,352s113.9,0,142.2-7.7c15.7-4.2,28-16.1,32.2-31.9
	C406,283.9,406,224.3,406,224.3L406,224.3z"/>
</svg>
