<?xml version="1.0" encoding="utf-8"?>
<!-- Generator: Adobe Illustrator 21.1.0, SVG Export Plug-In . SVG Version: 6.00 Build 0)  -->
<svg version="1.1" id="Слой_1" xmlns="http://www.w3.org/2000/svg" xmlns:xlink="http://www.w3.org/1999/xlink" x="0px" y="0px"
	 viewBox="0 0 68 68.3" style="enable-background:new 0 0 68 68.3;" xml:space="preserve">
<style type="text/css">
	.st0{opacity:0.75;fill:#FFFFFF;}
	.st1{fill:#FFFFFF;}
</style>
<title>logo2</title>
<path class="st0" d="M33.9,0l-9.2,7.8L3.7,26.2c-5,4.3-4.9,11.4,0.2,15.8l12.2,10.4c-0.4-2.5-0.1-5.1,0.8-7.4l-8.3-7.1
	c-2.1-1.6-2.5-4.7-0.9-6.8c0.2-0.3,0.5-0.5,0.7-0.8l11.6-10.1c1.4,5.6,7.3,9.9,14.3,9.9c7.9,0,14.3-5.6,14.2-12.4
	c-0.1-3-1.3-5.8-3.5-7.9l0,0L33.9,0z M26.5,17.7c0-2,0.9-3.8,2.5-4.9l5.3-4.6l4.5,4.1c1.7,1.3,2.8,3.3,3,5.5c0,3.6-3.3,6.6-7.6,6.6
	S26.5,21.4,26.5,17.7z"/>
<path class="st1" d="M34.1,68.3l9.2-7.8l21.1-18.3c5-4.3,4.9-11.4-0.2-15.8L51.9,16c0.4,2.5,0.1,5.1-0.8,7.4l8.3,7.1
	c2.1,1.7,2.5,4.7,0.8,6.8c-0.2,0.3-0.4,0.5-0.7,0.7L47.9,48.1c-1.4-5.7-7.3-9.9-14.3-9.9c-7.9,0-14.3,5.5-14.2,12.4
	c0.1,3,1.3,5.8,3.5,7.9l0,0L34.1,68.3z M41.5,50.6c0,2-0.9,3.8-2.5,4.9l-5.3,4.6l-4.5-4.1c-1.7-1.3-2.8-3.3-3-5.5
	C26.1,47,29.5,44,33.8,44S41.5,47,41.5,50.6L41.5,50.6z"/>
</svg>
