<svg id="Слой_1" data-name="Слой 1" xmlns="http://www.w3.org/2000/svg" viewBox="0 0 252.17 85.01"><title>logo</title><path d="M33.89,0,24.73,7.85,3.67,26.19c-5,4.34-4.88,11.41.23,15.76L16.11,52.33a15.08,15.08,0,0,1,.77-7.42L8.59,37.86a4.86,4.86,0,0,1-.11-7.59l11.59-10.1c1.41,5.65,7.29,9.93,14.25,9.93,7.94,0,14.32-5.56,14.22-12.38A11.51,11.51,0,0,0,45.09,9.8h0ZM26.47,17.72A6.15,6.15,0,0,1,29,12.77l5.33-4.64,4.48,4.11a7.58,7.58,0,0,1,3,5.48c.05,3.64-3.35,6.61-7.58,6.61S26.52,21.36,26.47,17.72Z" style="fill:#7e1818"/><path d="M34.1,68.31l9.17-7.85L64.32,42.12c5-4.34,4.88-11.41-.23-15.76L51.88,16a15.07,15.07,0,0,1-.77,7.42l8.29,7.05A4.86,4.86,0,0,1,59.51,38l-11.6,10.1c-1.41-5.65-7.29-9.93-14.25-9.93-7.94,0-14.31,5.55-14.22,12.38a11.52,11.52,0,0,0,3.45,7.92h0Zm7.43-17.71A6.14,6.14,0,0,1,39,55.54l-5.33,4.64-4.48-4.11a7.58,7.58,0,0,1-3-5.48C26.11,46.95,29.52,44,33.75,44S41.47,46.95,41.52,50.59Z" style="fill:#df2623"/><path d="M78.18,12.54h5v1.53c.72-1.12,2.29-2.13,5.22-2.13a18.74,18.74,0,0,1,2.09.12v4.74a13,13,0,0,0-2.61-.28c-2.49,0-4.7.8-4.7,2.29V33h-5Z" style="fill:#1d1d1b"/><path d="M106.27,12.54h5V31.8a30,30,0,0,1-9.67,1.77c-5.74,0-8.31-2.29-8.31-9.63V12.54h5V23.42c0,4.54.84,5.66,4.33,5.66a12.44,12.44,0,0,0,3.69-.52Z" style="fill:#1d1d1b"/><path d="M78.18,12.54h5v1.53c.72-1.12,2.29-2.13,5.22-2.13a18.74,18.74,0,0,1,2.09.12v4.74a13,13,0,0,0-2.61-.28c-2.49,0-4.7.8-4.7,2.29V33h-5Z" style="fill:#7e1818"/><path d="M106.27,12.54h5V31.8a30,30,0,0,1-9.67,1.77c-5.74,0-8.31-2.29-8.31-9.63V12.54h5V23.42c0,4.54.84,5.66,4.33,5.66a12.44,12.44,0,0,0,3.69-.52Z" style="fill:#7e1818"/><path d="M132.4,32.49a19.48,19.48,0,0,1-6.22,1c-6.22,0-10.11-2.49-10.11-10.87S120,11.94,126.18,11.94a21.26,21.26,0,0,1,6.22,1l-1.12,4.25a14.39,14.39,0,0,0-4.74-.88c-3.61,0-5.34.8-5.34,6.46,0,5.42,1.73,6.46,5.34,6.46a13.07,13.07,0,0,0,4.74-1Z" style="fill:#1d1d1b"/><path d="M152,32.41a25.78,25.78,0,0,1-7.14,1.12c-5.9,0-9.91-2.49-9.91-10.87,0-8.19,3.57-10.71,9.51-10.71,6.46,0,9.27,2.21,8.91,12.12h-13.2c0,4.37,1.73,5.26,5.3,5.26a24.77,24.77,0,0,0,5.74-.84Zm-11.8-12.16h8.59c-.16-3.61-1.2-4.37-4.05-4.37C141.59,15.87,140.51,16.88,140.19,20.25Z" style="fill:#1d1d1b"/><path d="M163.19,6.48c0,2.37-.68,2.77-2.85,2.77s-2.89-.4-2.89-2.77c0-2.13.68-2.45,2.89-2.45S163.19,4.35,163.19,6.48ZM162.79,33h-5V12.54h5Z" style="fill:#1d1d1b"/><path d="M173.3,27.23A7.25,7.25,0,0,0,174.87,32l-4.37,1.88a9.13,9.13,0,0,1-2.17-6.5V4h5Z" style="fill:#1d1d1b"/><path d="M184.46,6.48c0,2.37-.68,2.77-2.85,2.77s-2.89-.4-2.89-2.77c0-2.13.68-2.45,2.89-2.45S184.46,4.35,184.46,6.48ZM184.06,33h-5V12.54h5Z" style="fill:#1d1d1b"/><path d="M194.57,33h-5V13.71a29.86,29.86,0,0,1,9.67-1.77c5.74,0,8.31,2.29,8.31,9.63V33h-5V22.09c0-4.54-.84-5.66-4.37-5.66a13.77,13.77,0,0,0-3.65.48Z" style="fill:#1d1d1b"/><path d="M220.86,33.45c-5.62,0-8.59-2.33-8.59-10.63s3.09-10.87,9.83-10.87A26.57,26.57,0,0,1,231,13.46V31.4c0,8-4.46,9.75-10.92,9.75a23.15,23.15,0,0,1-7.18-1.21l1-4a21.6,21.6,0,0,0,6.14,1c3.77,0,6-1,6-4.81A9.92,9.92,0,0,1,220.86,33.45ZM226,16.71a11.92,11.92,0,0,0-3.93-.68c-3.53,0-4.7.92-4.7,6.74,0,5.1,1.08,6.38,4.57,6.38,2.21,0,4.05-.68,4.05-1.93Z" style="fill:#1d1d1b"/><path d="M250.16,17a20.69,20.69,0,0,0-5.94-1c-2.45,0-3.69.24-3.69,2.37,0,1.4.88,1.89,4.21,2.21,4.94.52,7.1,2,7.1,6.14,0,5.3-3.53,6.82-8.75,6.82a25.73,25.73,0,0,1-7.3-1.08l1-3.93a20.85,20.85,0,0,0,6.06,1c2.73,0,4-.36,4-2.49,0-1.45-.8-2.13-4.37-2.45-4.49-.36-6.9-1.6-6.9-5.82,0-5.3,3.57-6.78,8.75-6.78a23.64,23.64,0,0,1,6.86,1.12Z" style="fill:#1d1d1b"/><path d="M132.4,32.49a19.48,19.48,0,0,1-6.22,1c-6.22,0-10.11-2.49-10.11-10.87S120,11.94,126.18,11.94a21.26,21.26,0,0,1,6.22,1l-1.12,4.25a14.39,14.39,0,0,0-4.74-.88c-3.61,0-5.34.8-5.34,6.46,0,5.42,1.73,6.46,5.34,6.46a13.07,13.07,0,0,0,4.74-1Z" style="fill:#df2623"/><path d="M152,32.41a25.78,25.78,0,0,1-7.14,1.12c-5.9,0-9.91-2.49-9.91-10.87,0-8.19,3.57-10.71,9.51-10.71,6.46,0,9.27,2.21,8.91,12.12h-13.2c0,4.37,1.73,5.26,5.3,5.26a24.77,24.77,0,0,0,5.74-.84Zm-11.8-12.16h8.59c-.16-3.61-1.2-4.37-4.05-4.37C141.59,15.87,140.51,16.88,140.19,20.25Z" style="fill:#df2623"/><path d="M163.19,6.48c0,2.37-.68,2.77-2.85,2.77s-2.89-.4-2.89-2.77c0-2.13.68-2.45,2.89-2.45S163.19,4.35,163.19,6.48ZM162.79,33h-5V12.54h5Z" style="fill:#df2623"/><path d="M173.3,27.23A7.25,7.25,0,0,0,174.87,32l-4.37,1.88a9.13,9.13,0,0,1-2.17-6.5V4h5Z" style="fill:#df2623"/><path d="M184.46,6.48c0,2.37-.68,2.77-2.85,2.77s-2.89-.4-2.89-2.77c0-2.13.68-2.45,2.89-2.45S184.46,4.35,184.46,6.48ZM184.06,33h-5V12.54h5Z" style="fill:#df2623"/><path d="M194.57,33h-5V13.71a29.86,29.86,0,0,1,9.67-1.77c5.74,0,8.31,2.29,8.31,9.63V33h-5V22.09c0-4.54-.84-5.66-4.37-5.66a13.77,13.77,0,0,0-3.65.48Z" style="fill:#df2623"/><path d="M220.86,33.45c-5.62,0-8.59-2.33-8.59-10.63s3.09-10.87,9.83-10.87A26.57,26.57,0,0,1,231,13.46V31.4c0,8-4.46,9.75-10.92,9.75a23.15,23.15,0,0,1-7.18-1.21l1-4a21.6,21.6,0,0,0,6.14,1c3.77,0,6-1,6-4.81A9.92,9.92,0,0,1,220.86,33.45ZM226,16.71a11.92,11.92,0,0,0-3.93-.68c-3.53,0-4.7.92-4.7,6.74,0,5.1,1.08,6.38,4.57,6.38,2.21,0,4.05-.68,4.05-1.93Z" style="fill:#df2623"/><path d="M250.16,17a20.69,20.69,0,0,0-5.94-1c-2.45,0-3.69.24-3.69,2.37,0,1.4.88,1.89,4.21,2.21,4.94.52,7.1,2,7.1,6.14,0,5.3-3.53,6.82-8.75,6.82a25.73,25.73,0,0,1-7.3-1.08l1-3.93a20.85,20.85,0,0,0,6.06,1c2.73,0,4-.36,4-2.49,0-1.45-.8-2.13-4.37-2.45-4.49-.36-6.9-1.6-6.9-5.82,0-5.3,3.57-6.78,8.75-6.78a23.64,23.64,0,0,1,6.86,1.12Z" style="fill:#df2623"/><path d="M78.18,45a19.38,19.38,0,0,1,6.53-1.12c4.92,0,7.15,1.79,7.15,7.88s-2.49,7.88-6.48,7.88a7.42,7.42,0,0,1-3.58-.85v6.07H78.18Zm3.63,10.14c0,.88,1.32,1.44,2.93,1.44,2.55,0,3.4-1,3.4-4.72,0-4.1-.85-4.84-3.43-4.84a8.93,8.93,0,0,0-2.9.44Z" style="fill:#1d1d1b"/><path d="M97.78,44.3h3.78a104.51,104.51,0,0,1,3.69,11.31,108,108,0,0,0,3.69-11.31h3.69A143.89,143.89,0,0,1,107,59.84c-.7,1.67-1.55,3.54-2.32,5h-4c.79-1.41,1.7-3.28,2.43-4.89A143.68,143.68,0,0,0,97.78,44.3Z" style="fill:#1d1d1b"/><path d="M78.18,45a19.38,19.38,0,0,1,6.53-1.12c4.92,0,7.15,1.79,7.15,7.88s-2.49,7.88-6.48,7.88a7.42,7.42,0,0,1-3.58-.85v6.07H78.18Zm3.63,10.14c0,.88,1.32,1.44,2.93,1.44,2.55,0,3.4-1,3.4-4.72,0-4.1-.85-4.84-3.43-4.84a8.93,8.93,0,0,0-2.9.44Z" style="fill:#7e1818"/><path d="M97.78,44.3h3.78a104.51,104.51,0,0,1,3.69,11.31,108,108,0,0,0,3.69-11.31h3.69A143.89,143.89,0,0,1,107,59.84c-.7,1.67-1.55,3.54-2.32,5h-4c.79-1.41,1.7-3.28,2.43-4.89A143.68,143.68,0,0,0,97.78,44.3Z" style="fill:#7e1818"/><path d="M130.57,58.87a14.14,14.14,0,0,1-4.54.76c-4.54,0-7.38-1.82-7.38-7.94s2.87-7.82,7.38-7.82a15.54,15.54,0,0,1,4.54.7l-.82,3.11a10.57,10.57,0,0,0-3.46-.64c-2.64,0-3.9.59-3.9,4.72,0,4,1.26,4.72,3.9,4.72a9.58,9.58,0,0,0,3.46-.7Z" style="fill:#1d1d1b"/><path d="M147,50.11A74.48,74.48,0,0,1,141,59.22h-3.63V44.3H141V53.8A77.47,77.47,0,0,0,147,44.3h3.63V59.22H147Z" style="fill:#1d1d1b"/><path d="M164.12,47.47a58.07,58.07,0,0,1-2.25,11.75h-3.81a64.62,64.62,0,0,0,2.61-14.92H171.8V59.22h-3.63V47.47Z" style="fill:#1d1d1b"/><path d="M190,50.11a74.71,74.71,0,0,1-6.07,9.11h-3.63V44.3h3.63V53.8A77.71,77.71,0,0,0,190,44.3h3.63V59.22H190Z" style="fill:#1d1d1b"/><path d="M205.67,52.89v6.33H202V44.3h3.63v5.48h5.86V44.3h3.63V59.22h-3.63V52.89Z" style="fill:#1d1d1b"/><path d="M227.27,59.22h-3.63V44.3H234v3.16h-6.74Z" style="fill:#1d1d1b"/><path d="M251.85,58.87a14.15,14.15,0,0,1-4.54.76c-4.54,0-7.38-1.82-7.38-7.94s2.87-7.82,7.38-7.82a15.55,15.55,0,0,1,4.54.7L251,47.67a10.56,10.56,0,0,0-3.46-.64c-2.64,0-3.9.59-3.9,4.72,0,4,1.26,4.72,3.9,4.72a9.57,9.57,0,0,0,3.46-.7Z" style="fill:#1d1d1b"/><path d="M130.57,58.87a14.14,14.14,0,0,1-4.54.76c-4.54,0-7.38-1.82-7.38-7.94s2.87-7.82,7.38-7.82a15.54,15.54,0,0,1,4.54.7l-.82,3.11a10.57,10.57,0,0,0-3.46-.64c-2.64,0-3.9.59-3.9,4.72,0,4,1.26,4.72,3.9,4.72a9.58,9.58,0,0,0,3.46-.7Z" style="fill:#df2623"/><path d="M147,50.11A74.48,74.48,0,0,1,141,59.22h-3.63V44.3H141V53.8A77.47,77.47,0,0,0,147,44.3h3.63V59.22H147Z" style="fill:#df2623"/><path d="M164.12,47.47a58.07,58.07,0,0,1-2.25,11.75h-3.81a64.62,64.62,0,0,0,2.61-14.92H171.8V59.22h-3.63V47.47Z" style="fill:#df2623"/><path d="M190,50.11a74.71,74.71,0,0,1-6.07,9.11h-3.63V44.3h3.63V53.8A77.71,77.71,0,0,0,190,44.3h3.63V59.22H190Z" style="fill:#df2623"/><path d="M205.67,52.89v6.33H202V44.3h3.63v5.48h5.86V44.3h3.63V59.22h-3.63V52.89Z" style="fill:#df2623"/><path d="M227.27,59.22h-3.63V44.3H234v3.16h-6.74Z" style="fill:#df2623"/><path d="M251.85,58.87a14.15,14.15,0,0,1-4.54.76c-4.54,0-7.38-1.82-7.38-7.94s2.87-7.82,7.38-7.82a15.55,15.55,0,0,1,4.54.7L251,47.67a10.56,10.56,0,0,0-3.46-.64c-2.64,0-3.9.59-3.9,4.72,0,4,1.26,4.72,3.9,4.72a9.57,9.57,0,0,0,3.46-.7Z" style="fill:#df2623"/><path d="M5.42,78.19a34.48,34.48,0,0,1-2.8,4.21H.94v-6.9H2.62V79.9a36,36,0,0,0,2.8-4.39H7.1v6.9H5.42Z" style="fill:#575756"/><path d="M10.65,79.48V82.4H9v-6.9h1.68V78h2.71V75.51H15v6.9H13.36V79.48Z" style="fill:#575756"/><path d="M20.12,82.4H18.44V77H16.07V75.51H22.5V77H20.12Z" style="fill:#575756"/><path d="M29,82.21a8.69,8.69,0,0,1-2.41.38c-2,0-3.35-.84-3.35-3.67s1.21-3.62,3.21-3.62c2.18,0,3.13.75,3,4.09H25c0,1.48.58,1.77,1.79,1.77a8.4,8.4,0,0,0,1.94-.28Zm-4-4.11h2.9c-.05-1.22-.41-1.48-1.37-1.48S25.15,77,25,78.11Z" style="fill:#575756"/><path d="M31,75.82a9,9,0,0,1,3-.51c2.28,0,3.31.83,3.31,3.64s-1.15,3.64-3,3.64a3.43,3.43,0,0,1-1.65-.39V85H31Zm1.68,4.69c0,.41.61.66,1.35.66,1.18,0,1.57-.47,1.57-2.18,0-1.9-.39-2.24-1.59-2.24a4.12,4.12,0,0,0-1.34.2Z" style="fill:#575756"/><path d="M40.64,79.48V82.4H39v-6.9h1.68V78h2.71V75.51H45v6.9H43.35V79.48Z" style="fill:#575756"/><path d="M52.43,82.21a8.69,8.69,0,0,1-2.41.38c-2,0-3.35-.84-3.35-3.67s1.21-3.62,3.21-3.62c2.18,0,3.13.75,3,4.09H48.44c0,1.48.58,1.77,1.79,1.77a8.4,8.4,0,0,0,1.94-.28Zm-4-4.11h2.9c-.05-1.22-.41-1.48-1.37-1.48S48.56,77,48.45,78.11Z" style="fill:#575756"/><path d="M57.59,82.4H55.91V77H53.54V75.51H60V77H57.59Z" style="fill:#575756"/><path d="M70.57,75.51h2.34v6.9H71.25v-5c-.64,1.37-1.4,3.27-1.9,4.62H68.09c-.5-1.36-1.23-3.29-1.84-4.62v5H64.58v-6.9H67c.64,1.33,1.21,2.67,1.79,4.11C69.38,78.15,69.95,76.82,70.57,75.51Z" style="fill:#575756"/><path d="M80.55,82.05a9.6,9.6,0,0,1-3.12.54c-2.18,0-2.91-.5-2.91-2.3S75.62,78,77.23,78a8.13,8.13,0,0,1,1.71.19c0-1.21-.28-1.48-1.72-1.48a6.5,6.5,0,0,0-2.09.31l-.31-1.38a11.48,11.48,0,0,1,2.75-.37c2,0,3,.62,3,2.68Zm-1.61-2.7a6.86,6.86,0,0,0-1.37-.12c-.95,0-1.29.11-1.29,1s.26,1.08,1.27,1.08a4.4,4.4,0,0,0,1.38-.23Z" style="fill:#575756"/><path d="M84.06,82.4H82.38v-6.9h4.8V77H84.06Z" style="fill:#575756"/><path d="M93.89,82.05a9.59,9.59,0,0,1-3.12.54c-2.18,0-2.91-.5-2.91-2.3S89,78,90.57,78a8.13,8.13,0,0,1,1.71.19c0-1.21-.28-1.48-1.72-1.48a6.5,6.5,0,0,0-2.09.31l-.31-1.38a11.48,11.48,0,0,1,2.75-.37c2,0,3,.62,3,2.68Zm-1.61-2.7a6.86,6.86,0,0,0-1.37-.12c-.95,0-1.29.11-1.29,1s.26,1.08,1.27,1.08a4.4,4.4,0,0,0,1.38-.23Z" style="fill:#575756"/><path d="M96.79,78.14h1.06c1,0,1.34-.15,1.34-.69s-.3-.7-1.46-.7a7,7,0,0,0-2.11.3l-.35-1.46a10.93,10.93,0,0,1,2.49-.27c2.43,0,3.2.47,3.2,1.77,0,.95-.33,1.57-1.65,1.68,1.4.07,1.83.77,1.83,1.82,0,1.57-1,2-3.37,2a11.66,11.66,0,0,1-2.55-.26l.35-1.5a7.07,7.07,0,0,0,2.17.33c1.3,0,1.61-.23,1.61-.91s-.45-.85-1.49-.85H96.79Z" style="fill:#575756"/><path d="M107.2,78.19a34.48,34.48,0,0,1-2.8,4.21h-1.68v-6.9h1.68V79.9a36,36,0,0,0,2.8-4.39h1.68v6.9H107.2Z" style="fill:#575756"/><path d="M112.44,79.48V82.4h-1.68v-6.9h1.68V78h2.71V75.51h1.68v6.9h-1.68V79.48Z" style="fill:#575756"/><path d="M124,79.48V82.4h-1.68v-6.9H124V78h2.71V75.51h1.68v6.9h-1.68V79.48Z" style="fill:#575756"/><path d="M136,82.05a9.59,9.59,0,0,1-3.12.54c-2.18,0-2.91-.5-2.91-2.3s1.1-2.26,2.71-2.26a8.13,8.13,0,0,1,1.71.19c0-1.21-.28-1.48-1.72-1.48a6.5,6.5,0,0,0-2.09.31l-.31-1.38a11.48,11.48,0,0,1,2.75-.37c2,0,3,.62,3,2.68Zm-1.61-2.7a6.85,6.85,0,0,0-1.37-.12c-.95,0-1.29.11-1.29,1s.26,1.08,1.27,1.08a4.4,4.4,0,0,0,1.38-.23Z" style="fill:#575756"/><path d="M141.06,82.4h-1.68V77H137V75.51h6.44V77h-2.38Z" style="fill:#575756"/><path d="M144.12,77.53c0-1.11.53-2,2.18-2h4.09v6.9h-1.68V80h-1c-.89,0-1.34.37-2.11,2.45h-1.92c1-2.38,1.49-2.85,2.45-3A1.78,1.78,0,0,1,144.12,77.53Zm4.59-.66h-2c-.53,0-.81.22-.81.87s.3.89.85.89h1.92Z" style="fill:#575756"/><path d="M151.36,82.4c1.33-3,2-3.46,2.67-3.73a19.41,19.41,0,0,1-2.51-3.17h1.94c1,1.44,1.92,2.67,2.44,3.28V75.51h1.68v3.28c.52-.61,1.45-1.84,2.45-3.28H162a20.25,20.25,0,0,1-2.51,3.17c.65.27,1.33.69,2.66,3.73h-1.91c-1.07-2.37-1.88-3-2.63-3.2v3.2H155.9v-3.2c-.75.2-1.56.83-2.62,3.2Z" style="fill:#575756"/><path d="M164.78,79.48V82.4H163.1v-6.9h1.68V78h2.71V75.51h1.68v6.9h-1.68V79.48Z" style="fill:#575756"/><path d="M175.17,78a1.92,1.92,0,0,1,2.14,2.18c0,1.63-.73,2.22-2.14,2.22h-4.11v-6.9h1.68V78Zm.38,2.21c0-.66-.27-.91-.8-.91h-2v1.86h2C175.29,81.16,175.54,80.89,175.54,80.21Zm4.16,2.2H178v-6.9h1.68Z" style="fill:#575756"/><path d="M185.74,82.4c-.38-.64-.89-1.4-1.45-2.18-.61.83-1.19,1.57-1.69,2.18h-1.87c.73-.85,1.73-2.15,2.68-3.44-.93-1.3-1.92-2.59-2.67-3.46h2c.46.57,1,1.33,1.58,2.11.58-.8,1.06-1.54,1.42-2.11h1.87c-.62.93-1.49,2.18-2.37,3.4.87,1.22,1.73,2.49,2.38,3.5Z" style="fill:#575756"/><path d="M193.93,82.4h-1.68v-6.9h6.07v6.9h-1.68V77h-2.71Z" style="fill:#575756"/><path d="M200,78.92c0-2.82,1.1-3.62,3.28-3.62s3.31.8,3.31,3.62-1.08,3.67-3.31,3.67S200,81.75,200,78.92Zm1.73,0c0,1.91.37,2.28,1.54,2.28s1.57-.37,1.57-2.28-.37-2.28-1.57-2.28S201.7,77,201.7,78.95Z" style="fill:#575756"/><path d="M211.36,82.4h-1.68V77h-2.37V75.51h6.44V77h-2.38Z" style="fill:#575756"/><path d="M214.51,78.92c0-2.82,1.1-3.62,3.28-3.62s3.31.8,3.31,3.62-1.08,3.67-3.31,3.67S214.51,81.75,214.51,78.92Zm1.73,0c0,1.91.37,2.28,1.54,2.28s1.57-.37,1.57-2.28-.37-2.28-1.57-2.28S216.24,77,216.24,78.95Z" style="fill:#575756"/><path d="M225,77a26.9,26.9,0,0,1-1,5.43h-1.76a29.86,29.86,0,0,0,1.21-6.9h5.15v6.9h-1.68V77Z" style="fill:#575756"/><path d="M235,82.4c-1.16-2.45-2-3-2.86-3.2v3.2h-1.68v-6.9h1.68v3.32c.54-.6,1.56-1.84,2.67-3.32h2a23,23,0,0,1-2.62,3.16c.69.27,1.33.71,2.78,3.74Z" style="fill:#575756"/><path d="M237.7,78.92c0-2.82,1.1-3.62,3.28-3.62s3.31.8,3.31,3.62-1.08,3.67-3.31,3.67S237.7,81.75,237.7,78.92Zm1.73,0c0,1.91.37,2.28,1.54,2.28s1.57-.37,1.57-2.28-.37-2.28-1.57-2.28S239.44,77,239.44,78.95Z" style="fill:#575756"/><path d="M252.17,80.52c0,1.36-.77,1.88-2,1.88h-4.21v-6.9h4.16c1.56,0,1.92.64,1.92,1.65s-.26,1.49-1.57,1.59C251.81,78.79,252.17,79.49,252.17,80.52Zm-4.57-2.33h2c.49,0,.66-.23.66-.7s-.18-.68-.66-.68h-2Zm2.06,2.91c.53,0,.75-.22.75-.79s-.26-.89-.79-.89h-2V81.1Z" style="fill:#575756"/></svg>